<?xml version="1.0" encoding="UTF-8" standalone="no"?>
<!-- Created with Inkscape (http://www.inkscape.org/) -->

<svg
   xmlns:dc="http://purl.org/dc/elements/1.1/"
   xmlns:cc="http://creativecommons.org/ns#"
   xmlns:rdf="http://www.w3.org/1999/02/22-rdf-syntax-ns#"
   xmlns:svg="http://www.w3.org/2000/svg"
   xmlns="http://www.w3.org/2000/svg"
   xmlns:sodipodi="http://sodipodi.sourceforge.net/DTD/sodipodi-0.dtd"
   xmlns:inkscape="http://www.inkscape.org/namespaces/inkscape"
   width="210mm"
   height="297mm"
   viewBox="0 0 744.09448819 1052.3622047"
   id="svg4013"
   version="1.1"
   inkscape:version="0.91 r13725"
   sodipodi:docname="footprint-principe.svg">
  <defs
     id="defs4015">
    <clipPath
       id="clipPath4141"
       clipPathUnits="userSpaceOnUse">
      <path
         style="clip-rule:evenodd"
         inkscape:connector-curvature="0"
         id="path4143"
         d="M 1.192e-6,540 720,540 720,2.4414e-4 1.081e-6,1.2207e-4" />
    </clipPath>
    <clipPath
       id="clipPath4151"
       clipPathUnits="userSpaceOnUse">
      <path
         style="clip-rule:evenodd"
         inkscape:connector-curvature="0"
         id="path4153"
         d="M 1.192e-6,540 720,540 720,2.4414e-4 1.081e-6,1.2207e-4" />
    </clipPath>
    <clipPath
       id="clipPath4165"
       clipPathUnits="userSpaceOnUse">
      <path
         style="clip-rule:evenodd"
         inkscape:connector-curvature="0"
         id="path4167"
         d="M 3.7e-7,540 720,540 720,0 -6.14e-7,0" />
    </clipPath>
    <clipPath
       id="clipPath4175"
       clipPathUnits="userSpaceOnUse">
      <path
         style="clip-rule:evenodd"
         inkscape:connector-curvature="0"
         id="path4177"
         d="M 3.7e-7,540 720,540 720,0 -6.14e-7,0" />
    </clipPath>
    <clipPath
       id="clipPath4185"
       clipPathUnits="userSpaceOnUse">
      <path
         style="clip-rule:evenodd"
         inkscape:connector-curvature="0"
         id="path4187"
         d="M -1.412e-6,540 720,540 720,0 3.339e-6,0" />
    </clipPath>
    <clipPath
       id="clipPath4195"
       clipPathUnits="userSpaceOnUse">
      <path
         style="clip-rule:evenodd"
         inkscape:connector-curvature="0"
         id="path4197"
         d="M -1.412e-6,540 720,540 720,0 3.339e-6,0" />
    </clipPath>
    <clipPath
       id="clipPath4205"
       clipPathUnits="userSpaceOnUse">
      <path
         style="clip-rule:evenodd"
         inkscape:connector-curvature="0"
         id="path4207"
         d="M 2.162e-6,540 720,540 720,1.2207e-4 8.012e-6,6.104e-6" />
    </clipPath>
    <clipPath
       id="clipPath4215"
       clipPathUnits="userSpaceOnUse">
      <path
         style="clip-rule:evenodd"
         inkscape:connector-curvature="0"
         id="path4217"
         d="M 2.162e-6,540 720,540 720,1.2207e-4 8.012e-6,6.104e-6" />
    </clipPath>
    <clipPath
       id="clipPath4233"
       clipPathUnits="userSpaceOnUse">
      <path
         style="clip-rule:evenodd"
         inkscape:connector-curvature="0"
         id="path4235"
         d="M 4.813e-6,540 720,540 720,1.8311e-4 7.438e-6,1.2207e-4" />
    </clipPath>
    <clipPath
       id="clipPath4243"
       clipPathUnits="userSpaceOnUse">
      <path
         style="clip-rule:evenodd"
         inkscape:connector-curvature="0"
         id="path4245"
         d="M 4.813e-6,540 720,540 720,1.8311e-4 7.438e-6,1.2207e-4" />
    </clipPath>
    <clipPath
       id="clipPath4257"
       clipPathUnits="userSpaceOnUse">
      <path
         style="clip-rule:evenodd"
         inkscape:connector-curvature="0"
         id="path4259"
         d="M 4.89e-7,540 720,540 720,6.104e-6 8.451e-6,1.2207e-4" />
    </clipPath>
    <clipPath
       id="clipPath4267"
       clipPathUnits="userSpaceOnUse">
      <path
         style="clip-rule:evenodd"
         inkscape:connector-curvature="0"
         id="path4269"
         d="M 4.89e-7,540 720,540 720,6.104e-6 8.451e-6,1.2207e-4" />
    </clipPath>
  </defs>
  <sodipodi:namedview
     id="base"
     pagecolor="#ffffff"
     bordercolor="#666666"
     borderopacity="1.0"
     inkscape:pageopacity="0.0"
     inkscape:pageshadow="2"
     inkscape:zoom="1"
     inkscape:cx="248.19448"
     inkscape:cy="481.95476"
     inkscape:document-units="px"
     inkscape:current-layer="g4029"
     showgrid="false"
     inkscape:window-width="1280"
     inkscape:window-height="962"
     inkscape:window-x="-8"
     inkscape:window-y="-8"
     inkscape:window-maximized="1" />
  <metadata
     id="metadata4018">
    <rdf:RDF>
      <cc:Work
         rdf:about="">
        <dc:format>image/svg+xml</dc:format>
        <dc:type
           rdf:resource="http://purl.org/dc/dcmitype/StillImage" />
        <dc:title></dc:title>
      </cc:Work>
    </rdf:RDF>
  </metadata>
  <g
     inkscape:label="Calque 1"
     inkscape:groupmode="layer"
     id="layer1">
    <g
       transform="matrix(1.25,0,0,-1.25,-480,891.29083)"
       inkscape:label="140515 réunion de labo footprint_038"
       id="g4029">
      <path
         inkscape:connector-curvature="0"
         id="path4073"
         style="fill:#009900;fill-opacity:0.6;fill-rule:evenodd;stroke:none"
         d="m 567.84103,326.32449 c -14.947,-7.84 -33.9985,-3.095 -42.555,10.605 -8.5565,13.7 -3.378,31.16 11.5665,39.005 4.717,2.475 10.058,3.78 15.493,3.78 l 0,-28.585 15.4955,-24.805 z" />
      <path
         inkscape:connector-curvature="0"
         id="path4075"
         style="fill:none;stroke:#009900;stroke-width:1;stroke-linecap:butt;stroke-linejoin:round;stroke-miterlimit:10;stroke-dasharray:none;stroke-opacity:1"
         d="m 567.84103,326.32449 c -14.947,-7.84 -33.9985,-3.095 -42.555,10.605 -8.5565,13.7 -3.378,31.16 11.5665,39.005 4.717,2.475 10.058,3.78 15.493,3.78 l 0,-28.585 15.4955,-24.805 z" />
      <path
         inkscape:connector-curvature="0"
         id="path4077"
         style="fill:#ff9900;fill-opacity:0.6;fill-rule:evenodd;stroke:none"
         d="m 640.96603,379.71449 c 17.22,0.005 31.185,-12.79 31.19,-28.575 0,-10.145 -5.865,-19.535 -15.41,-24.665 l -15.77,24.655 -0.01,28.585 z" />
      <path
         inkscape:connector-curvature="0"
         id="path4079"
         style="fill:none;stroke:#ff9900;stroke-width:1;stroke-linecap:butt;stroke-linejoin:round;stroke-miterlimit:10;stroke-dasharray:none;stroke-opacity:1"
         d="m 640.96603,379.71449 c 17.22,0.005 31.185,-12.79 31.19,-28.575 0,-10.145 -5.865,-19.535 -15.41,-24.665 l -15.77,24.655 -0.01,28.585 z" />
      <path
         inkscape:connector-curvature="0"
         id="path4081"
         style="fill:#000000;fill-opacity:1;fill-rule:nonzero;stroke:none"
         d="m 690.99603,357.54949 69.39,0 0,-1.5 -69.39,0 0,1.5 z m 65.265,2.525 5.61,-3.275 -5.61,-3.27 c -0.355,-0.21 -0.815,-0.09 -1.025,0.27 -0.21,0.355 -0.085,0.815 0.27,1.025 l 4.5,2.625 0,-1.295 -4.5,2.625 c -0.355,0.205 -0.48,0.665 -0.27,1.025 0.21,0.355 0.67,0.48 1.025,0.27 z" />
      <path
         inkscape:connector-curvature="0"
         id="path4083"
         style="fill:#000000;fill-opacity:1;fill-rule:nonzero;stroke:none"
         d="m 744.86103,346.20949 -35.37,0 0,-1.5 35.37,0 0,1.5 z m -31.25,2.525 -5.61,-3.275 5.61,-3.27 c 0.36,-0.21 0.82,-0.09 1.025,0.27 0.21,0.355 0.09,0.815 -0.27,1.025 l -4.5,2.625 0,-1.295 4.5,2.625 c 0.36,0.205 0.48,0.665 0.27,1.025 -0.205,0.355 -0.665,0.48 -1.025,0.27 z" />
      <path
         inkscape:connector-curvature="0"
         id="path4085"
         style="fill:#009900;fill-opacity:0.6;fill-rule:evenodd;stroke:none"
         d="m 827.38603,326.32449 c -14.945,-7.84 -34,-3.095 -42.555,10.605 -8.555,13.7 -3.375,31.16 11.565,39.005 4.72,2.475 10.06,3.78 15.495,3.78 l 0,-28.585 15.495,-24.805 z" />
      <path
         inkscape:connector-curvature="0"
         id="path4087"
         style="fill:none;stroke:#009900;stroke-width:1;stroke-linecap:butt;stroke-linejoin:round;stroke-miterlimit:10;stroke-dasharray:none;stroke-opacity:1"
         d="m 827.38603,326.32449 c -14.945,-7.84 -34,-3.095 -42.555,10.605 -8.555,13.7 -3.375,31.16 11.565,39.005 4.72,2.475 10.06,3.78 15.495,3.78 l 0,-28.585 15.495,-24.805 z" />
      <path
         inkscape:connector-curvature="0"
         id="path4089"
         style="fill:#ff9900;fill-opacity:0.6;fill-rule:evenodd;stroke:none"
         d="m 814.32603,379.71449 c 17.225,0.005 31.185,-12.79 31.19,-28.575 0.005,-10.145 -5.86,-19.535 -15.41,-24.665 l -15.77,24.655 -0.01,28.585 z" />
      <path
         inkscape:connector-curvature="0"
         id="path4091"
         style="fill:none;stroke:#ff9900;stroke-width:1;stroke-linecap:butt;stroke-linejoin:round;stroke-miterlimit:10;stroke-dasharray:none;stroke-opacity:1"
         d="m 814.32603,379.71449 c 17.225,0.005 31.185,-12.79 31.19,-28.575 0.005,-10.145 -5.86,-19.535 -15.41,-24.665 l -15.77,24.655 -0.01,28.585 z" />
      <text
         id="text4093"
         style="font-variant:normal;font-weight:bold;font-size:10.03199959px;font-family:Helvetica;-inkscape-font-specification:Helvetica-Bold;writing-mode:lr-tb;fill:#009900;fill-opacity:1;fill-rule:nonzero;stroke:none"
         transform="scale(1,-1)"
         x="527.54755"
         y="-388.0195">
        <tspan
           id="tspan4095"
           sodipodi:role="line"
           y="-388.0195"
           x="527.54755 534.20886 538.11133 544.24091 547.58154 553.15936 555.9483 562.07788 567.6557 569.9129">Protéine A</tspan>
      </text>
      <text
         id="text4097"
         style="font-variant:normal;font-weight:bold;font-size:10.03199959px;font-family:Helvetica;-inkscape-font-specification:Helvetica-Bold;writing-mode:lr-tb;fill:#f78d0b;fill-opacity:1;fill-rule:nonzero;stroke:none"
         transform="scale(1,-1)"
         x="599.60626"
         y="-388.0195">
        <tspan
           id="tspan4099"
           sodipodi:role="line"
           y="-388.0195"
           x="599.60626 607.96271 613.54041 619.1181 623.02045 629.1499 638.008 644.13745 646.88617 652.46387 658.0415 664.17096 666.92969 672.50739 675.08557">Macromolécule B</tspan>
      </text>
      <text
         id="text4101"
         style="font-variant:normal;font-weight:bold;font-size:10.03199959px;font-family:Helvetica;-inkscape-font-specification:Helvetica-Bold;writing-mode:lr-tb;fill:#000000;fill-opacity:1;fill-rule:nonzero;stroke:none"
         transform="scale(1,-1)"
         x="780.75812"
         y="-388.0195">
        <tspan
           id="tspan4103"
           sodipodi:role="line"
           y="-388.0195"
           x="780.75812 788.00122 794.1308 803.0191 809.14868 811.89746 817.47522 823.0531">Complexe</tspan>
      </text>
      <text
         id="text4105"
         style="font-variant:normal;font-weight:bold;font-size:10.03199959px;font-family:Helvetica;-inkscape-font-specification:Helvetica-Bold;writing-mode:lr-tb;fill:#009900;fill-opacity:1;fill-rule:nonzero;stroke:none"
         transform="scale(1,-1)"
         x="830.97827"
         y="-388.0195">
        <tspan
           id="tspan4107"
           y="-388.0195"
           x="830.97827">A</tspan>
      </text>
      <text
         id="text4109"
         style="font-variant:normal;font-weight:bold;font-size:10.03199959px;font-family:Helvetica;-inkscape-font-specification:Helvetica-Bold;writing-mode:lr-tb;fill:#ff9900;fill-opacity:1;fill-rule:nonzero;stroke:none"
         transform="scale(1,-1)"
         x="838.23822"
         y="-388.0195">
        <tspan
           id="tspan4111"
           y="-388.0195"
           x="838.23822">B</tspan>
      </text>
      <text
         id="text4113"
         style="font-variant:normal;font-weight:bold;font-size:18px;font-family:Helvetica;-inkscape-font-specification:Helvetica-Bold;writing-mode:lr-tb;fill:#000000;fill-opacity:1;fill-rule:nonzero;stroke:none"
         transform="scale(1,-1)"
         x="592.21637"
         y="-344.50949">
        <tspan
           id="tspan4115"
           y="-344.50949"
           x="592.21637">+</tspan>
      </text>
      <path
         inkscape:connector-curvature="0"
         id="path4117"
         style="fill:#000000;fill-opacity:1;fill-rule:nonzero;stroke:none"
         d="m 552.59103,304.59949 5e-4,-29.7 -1.5,0 -5e-4,29.7 1.5,0 z m 2.523,-25.58 -3.2725,-5.61 -3.273,5.61 c -0.209,0.36 -0.088,0.82 0.27,1.025 0.3575,0.21 0.817,0.09 1.0255,-0.27 l 0,0 2.625,-4.5 -1.2955,0 2.625,4.5 c 0.2085,0.36 0.668,0.48 1.0255,0.27 0.358,-0.205 0.479,-0.665 0.27,-1.025 z" />
      <path
         inkscape:connector-curvature="0"
         id="path4119"
         style="fill:#dc0528;fill-opacity:1;fill-rule:evenodd;stroke:none"
         d="m 561.76603,287.68949 3.54,8.5 3.545,-8.5 -7.085,0 z" />
      <path
         inkscape:connector-curvature="0"
         id="path4121"
         style="fill:none;stroke:#000000;stroke-width:1;stroke-linecap:butt;stroke-linejoin:round;stroke-miterlimit:10;stroke-dasharray:none;stroke-opacity:1"
         d="m 561.76603,287.68949 3.54,8.5 3.545,-8.5 -7.085,0 z" />
      <text
         id="text4123"
         style="font-variant:normal;font-weight:bold;font-size:10.03199959px;font-family:Helvetica;-inkscape-font-specification:Helvetica-Bold;writing-mode:lr-tb;fill:#000000;fill-opacity:1;fill-rule:nonzero;stroke:none"
         transform="scale(1,-1)"
         x="574.79169"
         y="-288.25449">
        <tspan
           id="tspan4125"
           sodipodi:role="line"
           y="-288.25449"
           x="574.79169 582.03467 587.61237 593.19006 598.76776 602.13843 604.92725">Réactif</tspan>
      </text>
      <path
         inkscape:connector-curvature="0"
         id="path4127"
         style="fill:#000000;fill-opacity:1;fill-rule:nonzero;stroke:none"
         d="m 813.86603,304.76949 0,-29.7 -1.5,0 0,29.7 1.5,0 z m 2.52,-25.575 -3.27,-5.615 -3.275,5.615 c -0.21,0.355 -0.09,0.815 0.27,1.025 0.36,0.205 0.815,0.085 1.025,-0.27 l 2.625,-4.5 -1.295,0 2.625,4.5 c 0.21,0.355 0.67,0.475 1.025,0.27 0.36,-0.21 0.48,-0.67 0.27,-1.025 z" />
      <path
         inkscape:connector-curvature="0"
         id="path4129"
         style="fill:#dc0528;fill-opacity:1;fill-rule:evenodd;stroke:none"
         d="m 792.47103,287.85949 3.545,8.505 3.54,-8.505 -7.085,0 z" />
      <path
         inkscape:connector-curvature="0"
         id="path4131"
         style="fill:none;stroke:#000000;stroke-width:1;stroke-linecap:butt;stroke-linejoin:round;stroke-miterlimit:10;stroke-dasharray:none;stroke-opacity:1"
         d="m 792.47103,287.85949 3.545,8.505 3.54,-8.505 -7.085,0 z" />
      <text
         id="text4133"
         style="font-variant:normal;font-weight:bold;font-size:10.02000046px;font-family:Helvetica;-inkscape-font-specification:Helvetica-Bold;writing-mode:lr-tb;fill:#000000;fill-opacity:1;fill-rule:nonzero;stroke:none"
         transform="scale(1,-1)"
         x="753.08331"
         y="-288.43448">
        <tspan
           id="tspan4135"
           sodipodi:role="line"
           y="-288.43448"
           x="753.08331 760.34766 765.91876 771.5199 777.09106 780.45776 783.24335">Réactif</tspan>
      </text>
      <g
         id="g4137"
         transform="matrix(0.5,0,0,0.5,507.77103,168.16949)">
        <g
           clip-path="url(#clipPath4141)"
           id="g4139">
          <path
             inkscape:connector-curvature="0"
             id="path4145"
             style="fill:#dc0528;fill-opacity:1;fill-rule:evenodd;stroke:none"
             d="M 18.727,90.636 36.997,93 25.814,78.36 18.727,90.636 Z" />
        </g>
      </g>
      <g
         id="g4147"
         transform="matrix(0.5,0,0,0.5,507.77103,168.16949)">
        <g
           clip-path="url(#clipPath4151)"
           id="g4149">
          <path
             inkscape:connector-curvature="0"
             id="path4155"
             style="fill:none;stroke:#000000;stroke-width:2;stroke-linecap:butt;stroke-linejoin:round;stroke-miterlimit:10;stroke-dasharray:none;stroke-opacity:1"
             d="M 18.727,90.636 36.997,93 25.814,78.36 18.727,90.636 Z" />
        </g>
      </g>
      <path
         inkscape:connector-curvature="0"
         id="path4157"
         style="fill:#dc0528;fill-opacity:1;fill-rule:evenodd;stroke:none"
         d="m 546.66503,189.69549 3.5435,8.502 3.544,-8.502 -7.0875,0 z" />
      <path
         inkscape:connector-curvature="0"
         id="path4159"
         style="fill:none;stroke:#000000;stroke-width:1;stroke-linecap:butt;stroke-linejoin:round;stroke-miterlimit:10;stroke-dasharray:none;stroke-opacity:1"
         d="m 546.66503,189.69549 3.5435,8.502 3.544,-8.502 -7.0875,0 z" />
      <g
         id="g4161"
         transform="matrix(0.5,0,0,0.5,507.77103,168.16949)">
        <g
           clip-path="url(#clipPath4165)"
           id="g4163">
          <path
             inkscape:connector-curvature="0"
             id="path4169"
             style="fill:#dc0528;fill-opacity:1;fill-rule:evenodd;stroke:none"
             d="m 112.66,138.03 -17.004,7.09 17.004,7.09 0,-14.18 z" />
        </g>
      </g>
      <g
         id="g4171"
         transform="matrix(0.5,0,0,0.5,507.77103,168.16949)">
        <g
           clip-path="url(#clipPath4175)"
           id="g4173">
          <path
             inkscape:connector-curvature="0"
             id="path4179"
             style="fill:none;stroke:#000000;stroke-width:2;stroke-linecap:butt;stroke-linejoin:round;stroke-miterlimit:10;stroke-dasharray:none;stroke-opacity:1"
             d="m 112.66,138.03 -17.004,7.09 17.004,7.09 0,-14.18 z" />
        </g>
      </g>
      <g
         id="g4181"
         transform="matrix(0.5,0,0,0.5,507.77103,168.16949)">
        <g
           clip-path="url(#clipPath4185)"
           id="g4183">
          <path
             inkscape:connector-curvature="0"
             id="path4189"
             style="fill:#dc0528;fill-opacity:1;fill-rule:evenodd;stroke:none"
             d="m 130.26,94.843 -18.27,-2.365 11.19,14.642 7.08,-12.277 z" />
        </g>
      </g>
      <g
         id="g4191"
         transform="matrix(0.5,0,0,0.5,507.77103,168.16949)">
        <g
           clip-path="url(#clipPath4195)"
           id="g4193">
          <path
             inkscape:connector-curvature="0"
             id="path4199"
             style="fill:none;stroke:#000000;stroke-width:2;stroke-linecap:butt;stroke-linejoin:round;stroke-miterlimit:10;stroke-dasharray:none;stroke-opacity:1"
             d="m 130.26,94.843 -18.27,-2.365 11.19,14.642 7.08,-12.277 z" />
        </g>
      </g>
      <g
         id="g4201"
         transform="matrix(0.5,0,0,0.5,507.77103,168.16949)">
        <g
           clip-path="url(#clipPath4205)"
           id="g4203">
          <path
             inkscape:connector-curvature="0"
             id="path4209"
             style="fill:#dc0528;fill-opacity:1;fill-rule:evenodd;stroke:none"
             d="m 42.795,175.96 6.414,-17.27 -16.78,7.6 10.366,9.67 z" />
        </g>
      </g>
      <g
         id="g4211"
         transform="matrix(0.5,0,0,0.5,507.77103,168.16949)">
        <g
           clip-path="url(#clipPath4215)"
           id="g4213">
          <path
             inkscape:connector-curvature="0"
             id="path4219"
             style="fill:none;stroke:#000000;stroke-width:2;stroke-linecap:butt;stroke-linejoin:round;stroke-miterlimit:10;stroke-dasharray:none;stroke-opacity:1"
             d="m 42.795,175.96 6.414,-17.27 -16.78,7.6 10.366,9.67 z" />
        </g>
      </g>
      <path
         inkscape:connector-curvature="0"
         id="path4221"
         style="fill:#009900;fill-opacity:0.6;fill-rule:evenodd;stroke:none"
         d="m 570.66603,202.07649 c -14.9445,-7.8435 -33.996,-3.0965 -42.5525,10.6025 -8.5565,13.7005 -3.378,31.1655 11.567,39.0055 4.7165,2.475 10.0575,3.78 15.493,3.78 l 0,-28.585 15.4925,-24.803 z" />
      <path
         inkscape:connector-curvature="0"
         id="path4223"
         style="fill:none;stroke:#009900;stroke-width:1;stroke-linecap:butt;stroke-linejoin:round;stroke-miterlimit:10;stroke-dasharray:none;stroke-opacity:1"
         d="m 570.66603,202.07649 c -14.9445,-7.8435 -33.996,-3.0965 -42.5525,10.6025 -8.5565,13.7005 -3.378,31.1655 11.567,39.0055 4.7165,2.475 10.0575,3.78 15.493,3.78 l 0,-28.585 15.4925,-24.803 z" />
      <path
         inkscape:connector-curvature="0"
         id="path4225"
         style="fill:#ff9900;fill-opacity:0.6;fill-rule:evenodd;stroke:none"
         d="m 814.95103,255.26949 c 17.22,0.005 31.185,-12.79 31.19,-28.575 0,-10.146 -5.865,-19.5335 -15.41,-24.665 l -15.77,24.655 -0.01,28.585 z" />
      <path
         inkscape:connector-curvature="0"
         id="path4227"
         style="fill:none;stroke:#ff9900;stroke-width:1;stroke-linecap:butt;stroke-linejoin:round;stroke-miterlimit:10;stroke-dasharray:none;stroke-opacity:1"
         d="m 814.95103,255.26949 c 17.22,0.005 31.185,-12.79 31.19,-28.575 0,-10.146 -5.865,-19.5335 -15.41,-24.665 l -15.77,24.655 -0.01,28.585 z" />
      <g
         id="g4229"
         transform="matrix(0.5,0,0,0.5,507.77103,168.16949)">
        <g
           clip-path="url(#clipPath4233)"
           id="g4231">
          <path
             inkscape:connector-curvature="0"
             id="path4237"
             style="fill:#dc0528;fill-opacity:1;fill-rule:evenodd;stroke:none"
             d="m 533.7,89.95 18.27,2.365 -11.18,-14.64 -7.09,12.275 z" />
        </g>
      </g>
      <g
         id="g4239"
         transform="matrix(0.5,0,0,0.5,507.77103,168.16949)">
        <g
           clip-path="url(#clipPath4243)"
           id="g4241">
          <path
             inkscape:connector-curvature="0"
             id="path4247"
             style="fill:none;stroke:#000000;stroke-width:2;stroke-linecap:butt;stroke-linejoin:round;stroke-miterlimit:10;stroke-dasharray:none;stroke-opacity:1"
             d="m 533.7,89.95 18.27,2.365 -11.18,-14.64 -7.09,12.275 z" />
        </g>
      </g>
      <path
         inkscape:connector-curvature="0"
         id="path4249"
         style="fill:#dc0528;fill-opacity:1;fill-rule:evenodd;stroke:none"
         d="m 804.15103,189.35249 3.545,8.502 3.545,-8.502 -7.09,0 z" />
      <path
         inkscape:connector-curvature="0"
         id="path4251"
         style="fill:none;stroke:#000000;stroke-width:1;stroke-linecap:butt;stroke-linejoin:round;stroke-miterlimit:10;stroke-dasharray:none;stroke-opacity:1"
         d="m 804.15103,189.35249 3.545,8.502 3.545,-8.502 -7.09,0 z" />
      <g
         id="g4253"
         transform="matrix(0.5,0,0,0.5,507.77103,168.16949)">
        <g
           clip-path="url(#clipPath4257)"
           id="g4255">
          <path
             inkscape:connector-curvature="0"
             id="path4261"
             style="fill:#dc0528;fill-opacity:1;fill-rule:evenodd;stroke:none"
             d="m 557.77,175.27 6.41,-17.27 -16.78,7.61 10.37,9.66 z" />
        </g>
      </g>
      <g
         id="g4263"
         transform="matrix(0.5,0,0,0.5,507.77103,168.16949)">
        <g
           clip-path="url(#clipPath4267)"
           id="g4265">
          <path
             inkscape:connector-curvature="0"
             id="path4271"
             style="fill:none;stroke:#000000;stroke-width:2;stroke-linecap:butt;stroke-linejoin:round;stroke-miterlimit:10;stroke-dasharray:none;stroke-opacity:1"
             d="m 557.77,175.27 6.41,-17.27 -16.78,7.61 10.37,9.66 z" />
        </g>
      </g>
      <path
         inkscape:connector-curvature="0"
         id="path4273"
         style="fill:#009900;fill-opacity:0.6;fill-rule:evenodd;stroke:none"
         d="m 828.15603,201.73349 c -14.945,-7.8435 -34,-3.0965 -42.555,10.6025 -8.555,13.6985 -3.38,31.1635 11.565,39.0085 4.72,2.475 10.06,3.775 15.495,3.775 l 0,-28.58 15.495,-24.806 z" />
      <path
         inkscape:connector-curvature="0"
         id="path4275"
         style="fill:none;stroke:#009900;stroke-width:1;stroke-linecap:butt;stroke-linejoin:round;stroke-miterlimit:10;stroke-dasharray:none;stroke-opacity:1"
         d="m 828.15603,201.73349 c -14.945,-7.8435 -34,-3.0965 -42.555,10.6025 -8.555,13.6985 -3.38,31.1635 11.565,39.0085 4.72,2.475 10.06,3.775 15.495,3.775 l 0,-28.58 15.495,-24.806 z" />
      <text
         id="text4277"
         style="font-variant:normal;font-weight:bold;font-size:10.03199959px;font-family:Helvetica;-inkscape-font-specification:Helvetica-Bold;writing-mode:lr-tb;fill:#000000;fill-opacity:1;fill-rule:nonzero;stroke:none"
         transform="scale(1,-1)"
         x="615.67596"
         y="-225.14449">
        <tspan
           id="tspan4279"
           sodipodi:role="line"
           y="-225.14449"
           x="615.67596 621.25586">5</tspan>
      </text>
      <text
         id="text4281"
         style="font-variant:normal;font-weight:bold;font-size:10.02000046px;font-family:Helvetica;-inkscape-font-specification:Helvetica-Bold;writing-mode:lr-tb;fill:#000000;fill-opacity:1;fill-rule:nonzero;stroke:none"
         transform="scale(1,-1)"
         x="585.9165"
         y="-213.14549">
        <tspan
           id="tspan4283"
           sodipodi:role="line"
           y="-213.14549"
           x="585.9165 594.8241 600.94623 607.03827 609.82379 613.16034 615.94586 621.51685 627.08789 630.4245 633.21002 639.33209 645.45422">modifications</tspan>
      </text>
      <text
         id="text4285"
         style="font-variant:normal;font-weight:bold;font-size:10.03199959px;font-family:Helvetica;-inkscape-font-specification:Helvetica-Bold;writing-mode:lr-tb;fill:#000000;fill-opacity:1;fill-rule:nonzero;stroke:none"
         transform="scale(1,-1)"
         x="733.31873"
         y="-225.14449">
        <tspan
           id="tspan4287"
           sodipodi:role="line"
           y="-225.14449"
           x="733.31873 738.89862">3</tspan>
      </text>
      <text
         id="text4289"
         style="font-variant:normal;font-weight:bold;font-size:10.02000046px;font-family:Helvetica;-inkscape-font-specification:Helvetica-Bold;writing-mode:lr-tb;fill:#000000;fill-opacity:1;fill-rule:nonzero;stroke:none"
         transform="scale(1,-1)"
         x="703.55927"
         y="-213.14549">
        <tspan
           id="tspan4291"
           sodipodi:role="line"
           y="-213.14549"
           x="703.55927 712.46686 718.58899 724.68103 727.46655 730.8031 733.58862 739.15961 744.73065 748.06726 750.85278 756.97485 763.09698">modifications</tspan>
      </text>
    </g>
  </g>
</svg>
