<?xml version="1.0" encoding="UTF-8" standalone="no"?>
<!-- Created with matplotlib (http://matplotlib.org/) -->

<svg
   xmlns:dc="http://purl.org/dc/elements/1.1/"
   xmlns:cc="http://creativecommons.org/ns#"
   xmlns:rdf="http://www.w3.org/1999/02/22-rdf-syntax-ns#"
   xmlns:svg="http://www.w3.org/2000/svg"
   xmlns="http://www.w3.org/2000/svg"
   xmlns:xlink="http://www.w3.org/1999/xlink"
   xmlns:sodipodi="http://sodipodi.sourceforge.net/DTD/sodipodi-0.dtd"
   xmlns:inkscape="http://www.inkscape.org/namespaces/inkscape"
   height="432pt"
   version="1.1"
   viewBox="0 0 576 432"
   width="576pt"
   id="svg2"
   inkscape:version="0.91 r13725"
   sodipodi:docname="RAP1-Sup200.svg"
   inkscape:export-filename="/Users/Guillaume/Labo/redac/these/resultats/figures/chap1/RAP1-Sup200.png"
   inkscape:export-xdpi="300"
   inkscape:export-ydpi="300">
  <metadata
     id="metadata841">
    <rdf:RDF>
      <cc:Work
         rdf:about="">
        <dc:format>image/svg+xml</dc:format>
        <dc:type
           rdf:resource="http://purl.org/dc/dcmitype/StillImage" />
        <dc:title></dc:title>
        <dc:creator>
          <cc:Agent>
            <dc:title>Guillaume Gaullier</dc:title>
          </cc:Agent>
        </dc:creator>
        <dc:rights>
          <cc:Agent>
            <dc:title>CC BY-SA 4.0</dc:title>
          </cc:Agent>
        </dc:rights>
        <cc:license
           rdf:resource="http://creativecommons.org/licenses/by-sa/3.0/" />
      </cc:Work>
      <cc:License
         rdf:about="http://creativecommons.org/licenses/by-sa/3.0/">
        <cc:permits
           rdf:resource="http://creativecommons.org/ns#Reproduction" />
        <cc:permits
           rdf:resource="http://creativecommons.org/ns#Distribution" />
        <cc:requires
           rdf:resource="http://creativecommons.org/ns#Notice" />
        <cc:requires
           rdf:resource="http://creativecommons.org/ns#Attribution" />
        <cc:permits
           rdf:resource="http://creativecommons.org/ns#DerivativeWorks" />
        <cc:requires
           rdf:resource="http://creativecommons.org/ns#ShareAlike" />
      </cc:License>
    </rdf:RDF>
  </metadata>
  <sodipodi:namedview
     pagecolor="#ffffff"
     bordercolor="#666666"
     borderopacity="1"
     objecttolerance="10"
     gridtolerance="10"
     guidetolerance="10"
     inkscape:pageopacity="0"
     inkscape:pageshadow="2"
     inkscape:window-width="1280"
     inkscape:window-height="707"
     id="namedview839"
     showgrid="false"
     inkscape:zoom="1"
     inkscape:cx="369"
     inkscape:cy="272"
     inkscape:window-x="0"
     inkscape:window-y="0"
     inkscape:window-maximized="1"
     inkscape:current-layer="svg2" />
  <defs
     id="defs4">
    <style
       type="text/css"
       id="style6">
*{stroke-linecap:butt;stroke-linejoin:round;}
  </style>
  </defs>
  <g
     id="figure_1">
    <g
       id="patch_1">
      <path
         d=" M0 432 L576 432 L576 0 L0 0 z "
         style="fill:#ffffff;"
         id="path10" />
    </g>
    <g
       id="axes_1">
      <g
         id="patch_2">
        <path
           d=" M72 388.8 L518.4 388.8 L518.4 43.2 L72 43.2 z "
           style="fill:#ffffff;"
           id="path14" />
      </g>
      <g
         id="line2d_1">
        <path
           clip-path="url(#p7ff5b81e1d)"
           d=" M72 371.06 L72 371.065 L72 371.069 L72.7878 371.176 L72.7878 371.195 L79.6151 371.468 L79.6151 371.488 L85.6546 371.692 L85.6546 371.687 L85.6546 371.69 L90.1186 371.789 L90.1186 371.786 L115.064 372.13 L115.064 372.143 L123.992 372.155 L123.992 372.165 L123.992 372.183 L125.043 372.165 L125.043 372.16 L128.719 372.181 L128.719 372.2 L130.82 372.179 L130.82 372.172 L130.82 372.175 L140.798 372.33 L140.798 372.317 L142.899 372.338 L142.899 372.349 L142.899 372.352 L233.492 372.611 L233.492 372.598 L237.693 372.568 L237.693 372.579 L242.157 372.592 L242.157 372.596 L242.157 372.595 L247.934 372.63 L247.934 372.639 L254.761 372.522 L254.761 372.509 L256.6 372.512 L256.6 372.541 L258.175 372.537 L258.175 372.507 L261.851 372.525 L261.851 372.538 L266.315 372.422 L266.315 372.394 L267.366 372.205 L267.366 372.192 L268.153 372.005 L268.153 371.974 L268.941 371.779 L268.941 371.702 L269.466 371.555 L269.466 371.464 L269.992 371.267 L269.992 371.186 L270.517 371.004 L270.517 370.884 L270.779 370.735 L271.304 370.524 L271.304 370.427 L271.567 370.316 L271.567 370.25 L271.83 370.129 L271.83 370.07 L272.092 369.932 L272.092 369.878 L272.617 369.657 L272.617 369.536 L273.143 369.337 L273.143 369.253 L273.405 369.11 L273.93 368.874 L273.93 368.834 L274.718 368.652 L274.718 368.61 L275.506 368.442 L275.506 368.432 L277.344 368.394 L277.344 368.43 L279.445 368.673 L279.445 368.692 L280.495 368.851 L280.495 368.896 L281.808 369.12 L281.808 369.14 L283.646 369.357 L283.646 369.367 L287.322 369.742 L287.322 369.772 L292.312 369.88 L292.312 369.872 L295.463 369.739 L295.463 369.729 L297.038 369.543 L297.038 369.527 L298.351 369.401 L298.351 369.369 L299.664 369.184 L299.664 369.168 L300.189 369.034 L306.491 368.26 L307.542 368.184 L307.542 368.159 L317.52 367.772 L317.52 367.787 L320.146 367.819 L320.146 367.827 L320.146 367.835 L325.135 367.879 L327.761 367.747 L327.761 367.728 L330.649 367.539 L330.649 367.523 L333.275 367.181 L333.275 367.159 L334.063 367.031 L334.063 366.982 L335.113 366.81 L335.113 366.79 L335.639 366.675 L336.426 366.492 L336.426 366.455 L336.952 366.3 L336.952 366.202 L337.214 366.081 L337.214 366.023 L337.477 365.884 L337.477 365.829 L337.739 365.661 L337.739 365.558 L338.002 365.346 L338.002 365.211 L338.264 365.108 L338.264 364.825 L338.527 364.696 L338.527 364.407 L338.79 364.226 L338.79 363.909 L339.052 363.583 L339.052 363.376 L339.315 363.206 L339.315 362.826 L339.577 362.674 L339.577 362.267 L339.84 362.066 L339.84 361.681 L340.103 361.451 L340.103 361.066 L340.365 360.849 L340.365 360.394 L340.628 360.194 L340.628 359.72 L340.89 359.52 L340.89 359.12 L341.153 358.888 L341.153 358.478 L341.416 358.23 L341.416 357.813 L341.678 357.623 L341.678 357.187 L341.941 357.023 L341.941 356.608 L342.203 356.382 L342.203 355.971 L342.466 355.743 L342.466 355.362 L342.728 355.169 L342.728 354.81 L342.991 354.669 L342.991 354.292 L343.254 354.121 L343.254 353.77 L343.516 353.561 L343.516 353.226 L343.779 352.921 L343.779 352.741 L344.041 352.604 L344.041 352.296 L344.304 352.167 L344.304 351.887 L344.567 351.734 L344.567 351.456 L344.829 351.205 L344.829 351.058 L345.092 350.831 L345.092 350.711 L345.354 350.621 L345.354 350.381 L345.617 350.167 L345.617 350.082 L345.88 349.882 L345.88 349.794 L346.142 349.628 L346.142 349.544 L346.405 349.389 L346.405 349.292 L346.667 349.138 L346.667 349.073 L347.192 348.828 L347.192 348.726 L347.718 348.535 L347.718 348.485 L349.556 348.274 L349.556 348.307 L350.344 348.448 L350.344 348.538 L351.131 348.772 L351.131 348.845 L351.656 349.014 L351.656 349.133 L351.919 349.284 L351.919 349.367 L352.182 349.506 L352.182 349.576 L352.707 349.746 L352.707 349.834 L352.969 349.962 L352.969 350.036 L353.232 350.19 L353.232 350.284 L353.495 350.427 L353.495 350.495 L353.757 350.665 L354.02 350.808 L354.02 350.881 L354.282 351.045 L354.282 351.137 L354.545 351.279 L354.545 351.354 L354.808 351.484 L354.808 351.553 L355.07 351.7 L355.07 351.763 L355.333 351.908 L355.333 351.973 L355.595 352.122 L355.595 352.226 L355.858 352.401 L355.858 352.501 L356.12 352.7 L356.12 352.763 L356.383 352.916 L356.383 352.987 L356.646 353.125 L356.646 353.219 L356.908 353.372 L356.908 353.461 L357.171 353.602 L357.171 353.653 L357.433 353.793 L357.433 353.849 L357.696 353.996 L357.696 354.077 L357.959 354.225 L357.959 354.313 L358.221 354.458 L358.221 354.538 L358.484 354.684 L358.484 354.727 L359.009 354.981 L359.009 355.139 L359.272 355.288 L359.272 355.356 L359.534 355.483 L359.534 355.532 L359.797 355.65 L359.797 355.714 L360.059 355.85 L360.059 355.919 L360.322 356.042 L360.322 356.113 L360.847 356.298 L360.847 356.388 L361.372 356.598 L361.372 356.696 L361.897 356.855 L361.897 356.916 L362.423 357.12 L362.423 357.157 L363.998 357.234 L363.998 357.192 L364.523 357.022 L365.048 356.837 L365.048 356.673 L365.311 356.503 L365.311 356.426 L365.574 356.232 L365.574 356.144 L365.836 355.897 L365.836 355.759 L366.099 355.628 L366.099 355.341 L366.361 355.236 L366.361 354.934 L366.624 354.778 L366.624 354.448 L366.887 354.24 L366.887 353.864 L367.149 353.624 L367.149 353.169 L367.412 352.95 L367.412 352.402 L367.674 352.182 L367.674 351.623 L367.937 351.301 L367.937 350.693 L368.2 350.314 L368.2 349.638 L368.462 349.274 L368.462 348.475 L368.725 348.153 L368.725 347.274 L368.987 346.853 L368.987 345.996 L369.25 345.446 L369.25 344.471 L369.512 343.892 L369.512 342.773 L369.775 342.26 L369.775 341.026 L370.038 340.505 L370.038 339.273 L370.3 338.573 L370.3 337.275 L370.563 336.472 L370.563 335.049 L370.825 334.306 L370.825 332.665 L371.088 332.03 L371.088 330.269 L371.351 329.413 L371.351 327.699 L371.613 326.643 L371.613 324.822 L371.876 323.782 L371.876 321.797 L372.138 320.919 L372.138 318.699 L372.401 317.732 L372.401 315.539 L372.664 314.282 L372.664 312.04 L372.926 310.661 L372.926 308.256 L373.189 307.035 L373.189 304.29 L373.451 303.253 L373.451 300.476 L373.714 299.095 L373.714 296.409 L373.976 294.764 L373.976 291.934 L374.239 290.344 L374.239 287.259 L374.502 285.941 L374.502 282.635 L374.764 281.184 L374.764 277.994 L375.027 276.127 L375.027 272.866 L375.289 270.929 L375.289 267.643 L375.552 266.027 L375.552 262.338 L375.815 260.87 L375.815 257.095 L376.077 255.193 L376.077 251.609 L376.34 249.459 L376.34 245.822 L376.602 243.84 L376.602 239.922 L376.865 238.306 L376.865 234.202 L377.128 232.38 L377.128 228.554 L377.39 226.314 L377.39 222.498 L377.653 220.238 L377.653 216.352 L377.915 214.471 L377.915 210.172 L378.178 208.472 L378.178 204.316 L378.44 202.19 L378.44 198.24 L378.703 195.882 L378.703 191.885 L378.966 189.763 L378.966 185.596 L379.228 183.965 L379.228 179.715 L379.491 177.827 L379.491 173.971 L379.753 171.653 L379.753 167.675 L380.016 165.559 L380.016 161.517 L380.279 159.744 L380.279 155.652 L380.541 153.984 L380.541 149.909 L380.804 147.936 L380.804 144.251 L381.066 141.982 L381.066 138.574 L381.329 136.698 L381.329 132.96 L381.592 131.668 L381.592 127.802 L381.854 126.042 L381.854 122.727 L382.117 120.604 L382.117 117.302 L382.379 115.529 L382.379 112.108 L382.642 110.677 L382.642 107.363 L382.904 106.026 L382.904 102.997 L383.167 101.36 L383.167 98.5364 L383.43 96.903 L383.43 94.135 L383.692 92.7837 L383.692 89.8934 L383.955 88.8725 L383.955 86.0071 L384.217 84.7172 L384.217 82.347 L384.48 80.9754 L384.48 78.7641 L384.743 77.5828 L384.743 75.4211 L385.005 74.5616 L385.005 72.6222 L385.268 71.8595 L385.268 69.9729 L385.53 68.988 L385.53 67.2333 L385.793 66.1662 L385.793 64.5313 L386.056 63.7316 L386.056 62.085 L386.318 61.5202 L386.318 59.9979 L386.581 59.3388 L386.581 58.1798 L386.843 57.507 L386.843 56.6327 L387.106 56.2222 L387.106 55.4275 L387.368 55.1241 L387.368 54.4228 L387.631 54.0676 L387.631 53.3654 L387.894 53.0046 L387.894 52.4134 L388.156 52.1151 L388.156 51.7157 L388.419 51.4194 L388.419 51.2895 L388.681 51.2372 L388.681 51.2758 L388.944 51.4031 L388.944 51.7101 L389.207 51.9862 L389.207 52.1151 L389.469 52.3013 L389.469 52.5027 L389.732 52.695 L389.732 53.237 L389.994 53.5369 L389.994 54.1153 L390.257 54.4751 L390.257 55.1561 L390.52 55.6239 L390.52 56.6646 L390.782 57.2385 L390.782 58.674 L391.045 59.2591 L391.045 60.4719 L391.307 61.131 L391.307 62.3879 L391.57 63.217 L391.57 64.8692 L391.832 65.7445 L391.832 67.5012 L392.095 68.1386 L392.095 69.8765 L392.358 70.7493 L392.358 72.6927 L392.62 73.9694 L392.62 76.2827 L392.883 77.6391 L392.883 80.0184 L393.145 81.0789 L393.145 83.6795 L393.408 84.7552 L393.408 87.337 L393.671 88.7609 L393.671 91.3031 L393.933 92.838 L393.933 95.4705 L394.196 96.8553 L394.196 100.126 L394.458 101.438 L394.458 104.983 L394.721 106.657 L394.721 109.787 L394.984 111.635 L394.984 114.791 L395.246 116.648 L395.246 120.273 L395.509 121.889 L395.509 125.666 L395.771 127.191 L395.771 130.581 L396.034 132.531 L396.034 136.116 L396.296 138.355 L396.296 142.256 L396.559 144.189 L396.559 148.37 L396.822 149.885 L396.822 153.959 L397.084 155.976 L397.084 159.891 L397.347 162.195 L397.347 166.023 L397.609 168.113 L397.609 171.999 L397.872 173.657 L397.872 177.947 L398.135 179.827 L398.135 183.911 L398.397 186.261 L398.397 190.238 L398.66 192.556 L398.66 196.477 L398.922 198.402 L398.922 202.656 L399.185 204.295 L399.185 208.371 L399.448 210.334 L399.448 213.983 L399.71 216.172 L399.71 219.877 L399.973 221.9 L399.973 226 L400.235 227.587 L400.235 231.626 L400.498 233.41 L400.498 236.911 L400.76 238.982 L400.76 242.566 L401.023 244.501 L401.023 247.971 L401.286 249.513 L401.286 252.938 L401.548 254.267 L401.548 257.705 L401.811 259.368 L401.811 262.571 L402.073 264.553 L402.073 267.51 L402.336 269.093 L402.336 272.287 L402.599 273.464 L402.599 276.548 L402.861 277.931 L402.861 280.555 L403.124 282.078 L403.124 284.641 L403.386 286 L403.386 288.546 L403.649 289.687 L403.649 292.4 L403.912 293.424 L403.912 295.96 L404.174 297.233 L404.174 299.444 L404.437 300.741 L404.437 302.852 L404.699 303.902 L404.699 306.088 L404.962 306.863 L404.962 308.883 L405.224 309.829 L405.224 311.659 L405.487 312.729 L405.487 314.525 L405.75 315.517 L405.75 317.279 L406.012 318.028 L406.012 319.777 L406.275 320.484 L406.275 322.034 L406.537 322.866 L406.537 324.281 L406.8 325.075 L406.8 326.365 L407.063 326.997 L407.063 328.368 L407.325 328.904 L407.325 330.265 L407.588 330.894 L407.588 332.051 L407.85 332.719 L407.85 333.812 L408.113 334.406 L408.113 335.505 L408.376 335.954 L408.376 337.004 L408.638 337.44 L408.638 338.37 L408.901 338.861 L408.901 339.706 L409.163 340.218 L409.163 341.044 L409.426 341.452 L409.426 342.315 L409.688 342.608 L409.688 343.341 L409.951 343.696 L409.951 344.381 L410.214 344.777 L410.214 345.428 L410.476 345.767 L410.476 346.368 L410.739 346.605 L410.739 347.212 L411.001 347.473 L411.001 348.015 L411.264 348.323 L411.264 348.819 L411.527 349.097 L411.527 349.541 L411.789 349.745 L411.789 350.219 L412.052 350.404 L412.052 350.854 L412.314 351.07 L412.314 351.434 L412.577 351.768 L412.577 351.951 L412.84 352.128 L412.84 352.455 L413.102 352.58 L413.102 352.93 L413.365 353.068 L413.365 353.346 L413.627 353.647 L413.627 353.765 L413.89 353.994 L413.89 354.131 L414.152 354.354 L414.152 354.481 L414.415 354.582 L414.415 354.8 L414.678 355.022 L414.678 355.099 L414.94 355.272 L414.94 355.375 L415.203 355.548 L415.203 355.646 L415.465 355.818 L415.465 355.9 L415.728 356.048 L415.728 356.097 L415.991 356.24 L415.991 356.299 L416.516 356.501 L416.516 356.585 L417.041 356.758 L417.041 356.831 L417.566 356.998 L417.566 357.034 L418.091 357.202 L418.091 357.221 L420.455 357.423 L420.455 357.403 L422.293 357.319 L422.293 357.312 L423.08 357.184 L423.08 357.149 L423.868 357.026 L423.868 356.972 L425.444 356.71 L425.444 356.685 L426.757 356.501 L426.757 356.455 L430.17 356.368 L430.17 356.394 L433.584 356.761 L433.584 356.806 L434.109 356.943 L437.523 357.159 L437.523 357.15 L437.523 357.141 L438.311 357.029 L439.361 356.752 L439.361 356.724 L439.886 356.569 L439.886 356.531 L440.149 356.393 L440.674 356.173 L440.674 356.083 L441.199 355.886 L441.199 355.755 L441.462 355.579 L441.724 355.458 L441.724 355.394 L441.987 355.253 L441.987 355.154 L442.249 354.984 L442.249 354.893 L442.512 354.735 L442.512 354.682 L442.775 354.536 L442.775 354.469 L443.037 354.301 L443.037 354.198 L443.3 354.021 L443.3 353.916 L443.562 353.744 L443.562 353.659 L443.825 353.452 L443.825 353.366 L444.088 353.167 L444.088 353.058 L444.35 352.853 L444.35 352.727 L444.613 352.516 L444.613 352.414 L444.875 352.216 L444.875 352.144 L445.138 351.923 L445.138 351.805 L445.4 351.566 L445.4 351.431 L445.663 351.201 L445.663 351.078 L445.926 350.994 L445.926 350.759 L446.188 350.64 L446.188 350.408 L446.451 350.182 L446.451 350.067 L446.713 349.855 L446.713 349.723 L446.976 349.628 L446.976 349.38 L447.239 349.267 L447.239 349.037 L447.501 348.786 L447.501 348.667 L447.764 348.443 L447.764 348.296 L448.026 348.18 L448.026 347.932 L448.289 347.835 L448.289 347.597 L448.552 347.37 L448.552 347.268 L448.814 347.026 L448.814 346.902 L449.077 346.683 L449.077 346.551 L449.339 346.463 L449.339 346.239 L449.602 346.132 L449.602 345.92 L449.864 345.682 L449.864 345.569 L450.127 345.357 L450.127 345.225 L450.39 345.011 L450.39 344.897 L450.652 344.684 L450.652 344.606 L450.915 344.419 L450.915 344.34 L451.177 344.161 L451.177 344.054 L451.44 343.866 L451.44 343.752 L451.703 343.671 L451.703 343.453 L451.965 343.232 L451.965 343.151 L452.228 342.964 L452.228 342.876 L452.49 342.715 L452.49 342.623 L452.753 342.443 L452.753 342.339 L453.016 342.153 L453.016 342.082 L453.278 341.918 L453.278 341.857 L453.541 341.71 L453.541 341.617 L453.803 341.443 L453.803 341.331 L454.066 341.172 L454.066 341.107 L454.328 340.945 L454.328 340.898 L454.591 340.796 L454.591 340.725 L454.854 340.604 L454.854 340.535 L455.116 340.39 L455.116 340.318 L455.379 340.188 L455.379 340.144 L455.904 339.926 L455.904 339.821 L456.429 339.607 L456.429 339.49 L456.954 339.303 L456.954 339.279 L457.48 339.132 L457.48 339.096 L458.005 338.918 L458.005 338.89 L460.368 338.672 L460.368 338.691 L461.418 338.868 L461.418 338.892 L462.206 339.069 L462.206 339.15 L462.731 339.321 L462.731 339.398 L462.994 339.557 L463.256 339.676 L463.256 339.747 L463.782 339.967 L463.782 340.067 L464.044 340.189 L464.044 340.266 L464.307 340.397 L464.307 340.474 L464.569 340.602 L464.569 340.669 L464.832 340.83 L464.832 340.899 L465.095 341.09 L465.095 341.181 L465.357 341.347 L465.357 341.444 L465.62 341.586 L465.62 341.661 L465.882 341.834 L465.882 341.911 L466.145 342.119 L466.145 342.217 L466.408 342.408 L466.408 342.512 L466.67 342.686 L466.67 342.792 L466.933 342.983 L466.933 343.079 L467.195 343.189 L467.195 343.4 L467.458 343.62 L467.458 343.731 L467.72 343.933 L467.72 344.063 L467.983 344.165 L467.983 344.44 L468.246 344.561 L468.246 344.813 L468.508 345.085 L468.508 345.199 L468.771 345.427 L468.771 345.564 L469.033 345.78 L469.033 345.905 L469.296 345.993 L469.296 346.234 L469.559 346.358 L469.559 346.604 L469.821 346.891 L469.821 347.032 L470.084 347.297 L470.084 347.463 L470.346 347.569 L470.346 347.837 L470.609 347.964 L470.609 348.227 L470.872 348.374 L470.872 348.637 L471.134 348.876 L471.134 349.034 L471.397 349.159 L471.397 349.455 L471.659 349.573 L471.659 349.862 L471.922 350.002 L471.922 350.266 L472.184 350.526 L472.184 350.67 L472.447 350.812 L472.447 351.086 L472.71 351.195 L472.71 351.481 L472.972 351.604 L472.972 351.858 L473.235 352.132 L473.235 352.265 L473.497 352.52 L473.497 352.679 L473.76 352.805 L473.76 353.084 L474.023 353.195 L474.023 353.459 L474.285 353.585 L474.285 353.842 L474.548 354.101 L474.548 354.226 L474.81 354.462 L474.81 354.6 L475.073 354.688 L475.073 354.961 L475.336 355.087 L475.336 355.323 L475.598 355.574 L475.598 355.684 L475.861 355.896 L475.861 356.017 L476.123 356.211 L476.123 356.324 L476.386 356.424 L476.386 356.671 L476.648 356.936 L476.648 357.042 L476.911 357.245 L476.911 357.368 L477.174 357.577 L477.174 357.692 L477.436 357.787 L477.436 358.021 L477.699 358.224 L477.699 358.302 L477.961 358.526 L477.961 358.622 L478.224 358.796 L478.224 358.909 L478.487 359.081 L478.487 359.176 L478.749 359.267 L478.749 359.465 L479.012 359.643 L479.012 359.72 L479.274 359.89 L479.274 359.99 L479.537 360.171 L479.537 360.279 L479.8 360.447 L479.8 360.525 L480.062 360.701 L480.062 360.764 L480.325 360.924 L480.325 361 L480.587 361.128 L480.587 361.204 L480.85 361.32 L480.85 361.383 L481.112 361.539 L481.112 361.605 L481.375 361.765 L481.375 361.837 L481.9 362.092 L481.9 362.225 L482.163 362.357 L482.163 362.413 L482.688 362.629 L482.688 362.723 L483.213 362.896 L483.213 362.99 L483.476 363.15 L484.001 363.365 L484.001 363.459 L484.264 363.561 L484.264 363.621 L484.526 363.782 L485.051 363.982 L485.051 364.044 L485.576 364.188 L485.576 364.229 L486.102 364.407 L486.102 364.44 L486.627 364.588 L486.627 364.677 L487.152 364.82 L487.152 364.887 L487.94 365.068 L487.94 365.135 L488.99 365.379 L488.99 365.456 L489.778 365.649 L489.778 365.741 L490.828 366.014 L490.828 366.038 L491.879 366.236 L491.879 366.288 L492.666 366.458 L492.666 366.494 L493.454 366.624 L493.454 366.698 L494.242 366.863 L495.555 367.107 L495.555 367.124 L495.817 367.143 L495.817 367.143"
           style="fill:none;stroke:#0000ff;stroke-linecap:square;stroke-width:1.5;"
           id="path17" />
      </g>
      <g
         id="line2d_2">
        <path
           clip-path="url(#p7ff5b81e1d)"
           d=" M268.941 366.336 L268.941 388.8"
           style="fill:none;stroke:#ff0000;stroke-linecap:square;stroke-width:0.85;"
           id="path20" />
      </g>
      <g
         id="line2d_3">
        <path
           clip-path="url(#p7ff5b81e1d)"
           d=" M282.071 366.336 L282.071 388.8"
           style="fill:none;stroke:#ff0000;stroke-linecap:square;stroke-width:0.85;"
           id="path23" />
      </g>
      <g
         id="line2d_4">
        <path
           clip-path="url(#p7ff5b81e1d)"
           d=" M295.2 366.336 L295.2 388.8"
           style="fill:none;stroke:#ff0000;stroke-linecap:square;stroke-width:0.85;"
           id="path26" />
      </g>
      <g
         id="line2d_5">
        <path
           clip-path="url(#p7ff5b81e1d)"
           d=" M308.329 366.336 L308.329 388.8"
           style="fill:none;stroke:#ff0000;stroke-linecap:square;stroke-width:0.85;"
           id="path29" />
      </g>
      <g
         id="line2d_6">
        <path
           clip-path="url(#p7ff5b81e1d)"
           d=" M321.196 366.336 L321.196 388.8"
           style="fill:none;stroke:#ff0000;stroke-linecap:square;stroke-width:0.85;"
           id="path32" />
      </g>
      <g
         id="line2d_7">
        <path
           clip-path="url(#p7ff5b81e1d)"
           d=" M334.326 366.336 L334.326 388.8"
           style="fill:none;stroke:#ff0000;stroke-linecap:square;stroke-width:0.85;"
           id="path35" />
      </g>
      <g
         id="line2d_8">
        <path
           clip-path="url(#p7ff5b81e1d)"
           d=" M347.455 366.336 L347.455 388.8"
           style="fill:none;stroke:#ff0000;stroke-linecap:square;stroke-width:0.85;"
           id="path38" />
      </g>
      <g
         id="line2d_9">
        <path
           clip-path="url(#p7ff5b81e1d)"
           d=" M360.584 366.336 L360.584 388.8"
           style="fill:none;stroke:#ff0000;stroke-linecap:square;stroke-width:0.85;"
           id="path41" />
      </g>
      <g
         id="line2d_10">
        <path
           clip-path="url(#p7ff5b81e1d)"
           d=" M373.714 366.336 L373.714 388.8"
           style="fill:none;stroke:#ff0000;stroke-linecap:square;stroke-width:0.85;"
           id="path44" />
      </g>
      <g
         id="line2d_11">
        <path
           clip-path="url(#p7ff5b81e1d)"
           d=" M386.843 366.336 L386.843 388.8"
           style="fill:none;stroke:#ff0000;stroke-linecap:square;stroke-width:0.85;"
           id="path47" />
      </g>
      <g
         id="line2d_12">
        <path
           clip-path="url(#p7ff5b81e1d)"
           d=" M399.973 366.336 L399.973 388.8"
           style="fill:none;stroke:#ff0000;stroke-linecap:square;stroke-width:0.85;"
           id="path50" />
      </g>
      <g
         id="line2d_13">
        <path
           clip-path="url(#p7ff5b81e1d)"
           d=" M413.102 366.336 L413.102 388.8"
           style="fill:none;stroke:#ff0000;stroke-linecap:square;stroke-width:0.85;"
           id="path53" />
      </g>
      <g
         id="line2d_14">
        <path
           clip-path="url(#p7ff5b81e1d)"
           d=" M426.232 366.336 L426.232 388.8"
           style="fill:none;stroke:#ff0000;stroke-linecap:square;stroke-width:0.85;"
           id="path56" />
      </g>
      <g
         id="line2d_15">
        <path
           clip-path="url(#p7ff5b81e1d)"
           d=" M439.361 366.336 L439.361 388.8"
           style="fill:none;stroke:#ff0000;stroke-linecap:square;stroke-width:0.85;"
           id="path59" />
      </g>
      <g
         id="line2d_16">
        <path
           clip-path="url(#p7ff5b81e1d)"
           d=" M452.228 366.336 L452.228 388.8"
           style="fill:none;stroke:#ff0000;stroke-linecap:square;stroke-width:0.85;"
           id="path62" />
      </g>
      <g
         id="matplotlib.axis_1">
        <g
           id="xtick_1">
          <g
             id="line2d_17">
            <defs
               id="defs67">
              <path
                 d=" M0 0 L0 6"
                 id="m041f95ef2b"
                 style="stroke:#000000;stroke-width:0.5;" />
            </defs>
            <g
               id="g70">
              <use
                 style="stroke:#000000;stroke-width:0.5;"
                 x="72.0"
                 xlink:href="#m041f95ef2b"
                 y="388.8"
                 id="use72" />
            </g>
          </g>
          <g
             id="text_1">
            <!-- 0 -->
            <defs
               id="defs75">
              <path
                 d=" M31.7812 66.4062 Q24.1719 66.4062 20.3281 58.9062 Q16.5 51.4219 16.5 36.375 Q16.5 21.3906 20.3281 13.8906 Q24.1719 6.39062 31.7812 6.39062 Q39.4531 6.39062 43.2812 13.8906 Q47.125 21.3906 47.125 36.375 Q47.125 51.4219 43.2812 58.9062 Q39.4531 66.4062 31.7812 66.4062 M31.7812 74.2188 Q44.0469 74.2188 50.5156 64.5156 Q56.9844 54.8281 56.9844 36.375 Q56.9844 17.9688 50.5156 8.26562 Q44.0469 -1.42188 31.7812 -1.42188 Q19.5312 -1.42188 13.0625 8.26562 Q6.59375 17.9688 6.59375 36.375 Q6.59375 54.8281 13.0625 64.5156 Q19.5312 74.2188 31.7812 74.2188"
                 id="BitstreamVeraSans-Roman-30" />
            </defs>
            <g
               transform="translate(68.9765625 405.918125)scale(0.12 -0.12)"
               id="g78">
              <use
                 xlink:href="#BitstreamVeraSans-Roman-30"
                 id="use80" />
            </g>
          </g>
        </g>
        <g
           id="xtick_2">
          <g
             id="line2d_18">
            <g
               id="g84">
              <use
                 style="stroke:#000000;stroke-width:0.5;"
                 x="124.517647059"
                 xlink:href="#m041f95ef2b"
                 y="388.8"
                 id="use86" />
            </g>
          </g>
          <g
             id="text_2">
            <!-- 2 -->
            <defs
               id="defs89">
              <path
                 d=" M19.1875 8.29688 L53.6094 8.29688 L53.6094 0 L7.32812 0 L7.32812 8.29688 Q12.9375 14.1094 22.625 23.8906 Q32.3281 33.6875 34.8125 36.5312 Q39.5469 41.8438 41.4219 45.5312 Q43.3125 49.2188 43.3125 52.7812 Q43.3125 58.5938 39.2344 62.25 Q35.1562 65.9219 28.6094 65.9219 Q23.9688 65.9219 18.8125 64.3125 Q13.6719 62.7031 7.8125 59.4219 L7.8125 69.3906 Q13.7656 71.7812 18.9375 73 Q24.125 74.2188 28.4219 74.2188 Q39.75 74.2188 46.4844 68.5469 Q53.2188 62.8906 53.2188 53.4219 Q53.2188 48.9219 51.5312 44.8906 Q49.8594 40.875 45.4062 35.4062 Q44.1875 33.9844 37.6406 27.2188 Q31.1094 20.4531 19.1875 8.29688"
                 id="BitstreamVeraSans-Roman-32" />
            </defs>
            <g
               transform="translate(121.740772059 405.918125)scale(0.12 -0.12)"
               id="g92">
              <use
                 xlink:href="#BitstreamVeraSans-Roman-32"
                 id="use94" />
            </g>
          </g>
        </g>
        <g
           id="xtick_3">
          <g
             id="line2d_19">
            <g
               id="g98">
              <use
                 style="stroke:#000000;stroke-width:0.5;"
                 x="177.035294118"
                 xlink:href="#m041f95ef2b"
                 y="388.8"
                 id="use100" />
            </g>
          </g>
          <g
             id="text_3">
            <!-- 4 -->
            <defs
               id="defs103">
              <path
                 d=" M37.7969 64.3125 L12.8906 25.3906 L37.7969 25.3906 z  M35.2031 72.9062 L47.6094 72.9062 L47.6094 25.3906 L58.0156 25.3906 L58.0156 17.1875 L47.6094 17.1875 L47.6094 0 L37.7969 0 L37.7969 17.1875 L4.89062 17.1875 L4.89062 26.7031 z "
                 id="BitstreamVeraSans-Roman-34" />
            </defs>
            <g
               transform="translate(173.847794118 405.918125)scale(0.12 -0.12)"
               id="g106">
              <use
                 xlink:href="#BitstreamVeraSans-Roman-34"
                 id="use108" />
            </g>
          </g>
        </g>
        <g
           id="xtick_4">
          <g
             id="line2d_20">
            <g
               id="g112">
              <use
                 style="stroke:#000000;stroke-width:0.5;"
                 x="229.552941176"
                 xlink:href="#m041f95ef2b"
                 y="388.8"
                 id="use114" />
            </g>
          </g>
          <g
             id="text_4">
            <!-- 6 -->
            <defs
               id="defs117">
              <path
                 d=" M33.0156 40.375 Q26.375 40.375 22.4844 35.8281 Q18.6094 31.2969 18.6094 23.3906 Q18.6094 15.5312 22.4844 10.9531 Q26.375 6.39062 33.0156 6.39062 Q39.6562 6.39062 43.5312 10.9531 Q47.4062 15.5312 47.4062 23.3906 Q47.4062 31.2969 43.5312 35.8281 Q39.6562 40.375 33.0156 40.375 M52.5938 71.2969 L52.5938 62.3125 Q48.875 64.0625 45.0938 64.9844 Q41.3125 65.9219 37.5938 65.9219 Q27.8281 65.9219 22.6719 59.3281 Q17.5312 52.7344 16.7969 39.4062 Q19.6719 43.6562 24.0156 45.9219 Q28.375 48.1875 33.5938 48.1875 Q44.5781 48.1875 50.9531 41.5156 Q57.3281 34.8594 57.3281 23.3906 Q57.3281 12.1562 50.6875 5.35938 Q44.0469 -1.42188 33.0156 -1.42188 Q20.3594 -1.42188 13.6719 8.26562 Q6.98438 17.9688 6.98438 36.375 Q6.98438 53.6562 15.1875 63.9375 Q23.3906 74.2188 37.2031 74.2188 Q40.9219 74.2188 44.7031 73.4844 Q48.4844 72.75 52.5938 71.2969"
                 id="BitstreamVeraSans-Roman-36" />
            </defs>
            <g
               transform="translate(226.532316176 405.918125)scale(0.12 -0.12)"
               id="g120">
              <use
                 xlink:href="#BitstreamVeraSans-Roman-36"
                 id="use122" />
            </g>
          </g>
        </g>
        <g
           id="xtick_5">
          <g
             id="line2d_21">
            <g
               id="g126">
              <use
                 style="stroke:#000000;stroke-width:0.5;"
                 x="282.070588235"
                 xlink:href="#m041f95ef2b"
                 y="388.8"
                 id="use128" />
            </g>
          </g>
          <g
             id="text_5">
            <!-- 8 -->
            <defs
               id="defs131">
              <path
                 d=" M31.7812 34.625 Q24.75 34.625 20.7188 30.8594 Q16.7031 27.0938 16.7031 20.5156 Q16.7031 13.9219 20.7188 10.1562 Q24.75 6.39062 31.7812 6.39062 Q38.8125 6.39062 42.8594 10.1719 Q46.9219 13.9688 46.9219 20.5156 Q46.9219 27.0938 42.8906 30.8594 Q38.875 34.625 31.7812 34.625 M21.9219 38.8125 Q15.5781 40.375 12.0312 44.7188 Q8.5 49.0781 8.5 55.3281 Q8.5 64.0625 14.7188 69.1406 Q20.9531 74.2188 31.7812 74.2188 Q42.6719 74.2188 48.875 69.1406 Q55.0781 64.0625 55.0781 55.3281 Q55.0781 49.0781 51.5312 44.7188 Q48 40.375 41.7031 38.8125 Q48.8281 37.1562 52.7969 32.3125 Q56.7812 27.4844 56.7812 20.5156 Q56.7812 9.90625 50.3125 4.23438 Q43.8438 -1.42188 31.7812 -1.42188 Q19.7344 -1.42188 13.25 4.23438 Q6.78125 9.90625 6.78125 20.5156 Q6.78125 27.4844 10.7812 32.3125 Q14.7969 37.1562 21.9219 38.8125 M18.3125 54.3906 Q18.3125 48.7344 21.8438 45.5625 Q25.3906 42.3906 31.7812 42.3906 Q38.1406 42.3906 41.7188 45.5625 Q45.3125 48.7344 45.3125 54.3906 Q45.3125 60.0625 41.7188 63.2344 Q38.1406 66.4062 31.7812 66.4062 Q25.3906 66.4062 21.8438 63.2344 Q18.3125 60.0625 18.3125 54.3906"
                 id="BitstreamVeraSans-Roman-38" />
            </defs>
            <g
               transform="translate(279.070588235 405.918125)scale(0.12 -0.12)"
               id="g134">
              <use
                 xlink:href="#BitstreamVeraSans-Roman-38"
                 id="use136" />
            </g>
          </g>
        </g>
        <g
           id="xtick_6">
          <g
             id="line2d_22">
            <g
               id="g140">
              <use
                 style="stroke:#000000;stroke-width:0.5;"
                 x="334.588235294"
                 xlink:href="#m041f95ef2b"
                 y="388.8"
                 id="use142" />
            </g>
          </g>
          <g
             id="text_6">
            <!-- 10 -->
            <defs
               id="defs145">
              <path
                 d=" M12.4062 8.29688 L28.5156 8.29688 L28.5156 63.9219 L10.9844 60.4062 L10.9844 69.3906 L28.4219 72.9062 L38.2812 72.9062 L38.2812 8.29688 L54.3906 8.29688 L54.3906 0 L12.4062 0 z "
                 id="BitstreamVeraSans-Roman-31" />
            </defs>
            <g
               transform="translate(328.010735294 405.918125)scale(0.12 -0.12)"
               id="g148">
              <use
                 xlink:href="#BitstreamVeraSans-Roman-31"
                 id="use150" />
              <use
                 x="63.623046875"
                 xlink:href="#BitstreamVeraSans-Roman-30"
                 id="use152" />
            </g>
          </g>
        </g>
        <g
           id="xtick_7">
          <g
             id="line2d_23">
            <g
               id="g156">
              <use
                 style="stroke:#000000;stroke-width:0.5;"
                 x="387.105882353"
                 xlink:href="#m041f95ef2b"
                 y="388.8"
                 id="use158" />
            </g>
          </g>
          <g
             id="text_7">
            <!-- 12 -->
            <g
               transform="translate(380.730882353 405.918125)scale(0.12 -0.12)"
               id="g161">
              <use
                 xlink:href="#BitstreamVeraSans-Roman-31"
                 id="use163" />
              <use
                 x="63.623046875"
                 xlink:href="#BitstreamVeraSans-Roman-32"
                 id="use165" />
            </g>
          </g>
        </g>
        <g
           id="xtick_8">
          <g
             id="line2d_24">
            <g
               id="g169">
              <use
                 style="stroke:#000000;stroke-width:0.5;"
                 x="439.623529412"
                 xlink:href="#m041f95ef2b"
                 y="388.8"
                 id="use171" />
            </g>
          </g>
          <g
             id="text_8">
            <!-- 14 -->
            <g
               transform="translate(432.984154412 405.918125)scale(0.12 -0.12)"
               id="g174">
              <use
                 xlink:href="#BitstreamVeraSans-Roman-31"
                 id="use176" />
              <use
                 x="63.623046875"
                 xlink:href="#BitstreamVeraSans-Roman-34"
                 id="use178" />
            </g>
          </g>
        </g>
        <g
           id="xtick_9">
          <g
             id="line2d_25">
            <g
               id="g182">
              <use
                 style="stroke:#000000;stroke-width:0.5;"
                 x="492.141176471"
                 xlink:href="#m041f95ef2b"
                 y="388.8"
                 id="use184" />
            </g>
          </g>
          <g
             id="text_9">
            <!-- 16 -->
            <g
               transform="translate(485.543051471 405.918125)scale(0.12 -0.12)"
               id="g187">
              <use
                 xlink:href="#BitstreamVeraSans-Roman-31"
                 id="use189" />
              <use
                 x="63.623046875"
                 xlink:href="#BitstreamVeraSans-Roman-36"
                 id="use191" />
            </g>
          </g>
        </g>
        <g
           id="xtick_10">
          <g
             id="line2d_26">
            <defs
               id="defs195">
              <path
                 d=" M0 0 L0 4"
                 id="m241eb9d196"
                 style="stroke:#2b2b2b;stroke-width:0.5;" />
            </defs>
            <g
               id="g198">
              <use
                 style="fill:#2b2b2b;stroke:#2b2b2b;stroke-width:0.5;"
                 x="85.1294117647"
                 xlink:href="#m241eb9d196"
                 y="388.8"
                 id="use200" />
            </g>
          </g>
        </g>
        <g
           id="xtick_11">
          <g
             id="line2d_27">
            <g
               id="g204">
              <use
                 style="fill:#2b2b2b;stroke:#2b2b2b;stroke-width:0.5;"
                 x="98.2588235294"
                 xlink:href="#m241eb9d196"
                 y="388.8"
                 id="use206" />
            </g>
          </g>
        </g>
        <g
           id="xtick_12">
          <g
             id="line2d_28">
            <g
               id="g210">
              <use
                 style="fill:#2b2b2b;stroke:#2b2b2b;stroke-width:0.5;"
                 x="111.388235294"
                 xlink:href="#m241eb9d196"
                 y="388.8"
                 id="use212" />
            </g>
          </g>
        </g>
        <g
           id="xtick_13">
          <g
             id="line2d_29">
            <g
               id="g216">
              <use
                 style="fill:#2b2b2b;stroke:#2b2b2b;stroke-width:0.5;"
                 x="137.647058824"
                 xlink:href="#m241eb9d196"
                 y="388.8"
                 id="use218" />
            </g>
          </g>
        </g>
        <g
           id="xtick_14">
          <g
             id="line2d_30">
            <g
               id="g222">
              <use
                 style="fill:#2b2b2b;stroke:#2b2b2b;stroke-width:0.5;"
                 x="150.776470588"
                 xlink:href="#m241eb9d196"
                 y="388.8"
                 id="use224" />
            </g>
          </g>
        </g>
        <g
           id="xtick_15">
          <g
             id="line2d_31">
            <g
               id="g228">
              <use
                 style="fill:#2b2b2b;stroke:#2b2b2b;stroke-width:0.5;"
                 x="163.905882353"
                 xlink:href="#m241eb9d196"
                 y="388.8"
                 id="use230" />
            </g>
          </g>
        </g>
        <g
           id="xtick_16">
          <g
             id="line2d_32">
            <g
               id="g234">
              <use
                 style="fill:#2b2b2b;stroke:#2b2b2b;stroke-width:0.5;"
                 x="190.164705882"
                 xlink:href="#m241eb9d196"
                 y="388.8"
                 id="use236" />
            </g>
          </g>
        </g>
        <g
           id="xtick_17">
          <g
             id="line2d_33">
            <g
               id="g240">
              <use
                 style="fill:#2b2b2b;stroke:#2b2b2b;stroke-width:0.5;"
                 x="203.294117647"
                 xlink:href="#m241eb9d196"
                 y="388.8"
                 id="use242" />
            </g>
          </g>
        </g>
        <g
           id="xtick_18">
          <g
             id="line2d_34">
            <g
               id="g246">
              <use
                 style="fill:#2b2b2b;stroke:#2b2b2b;stroke-width:0.5;"
                 x="216.423529412"
                 xlink:href="#m241eb9d196"
                 y="388.8"
                 id="use248" />
            </g>
          </g>
        </g>
        <g
           id="xtick_19">
          <g
             id="line2d_35">
            <g
               id="g252">
              <use
                 style="fill:#2b2b2b;stroke:#2b2b2b;stroke-width:0.5;"
                 x="242.682352941"
                 xlink:href="#m241eb9d196"
                 y="388.8"
                 id="use254" />
            </g>
          </g>
        </g>
        <g
           id="xtick_20">
          <g
             id="line2d_36">
            <g
               id="g258">
              <use
                 style="fill:#2b2b2b;stroke:#2b2b2b;stroke-width:0.5;"
                 x="255.811764706"
                 xlink:href="#m241eb9d196"
                 y="388.8"
                 id="use260" />
            </g>
          </g>
        </g>
        <g
           id="xtick_21">
          <g
             id="line2d_37">
            <g
               id="g264">
              <use
                 style="fill:#2b2b2b;stroke:#2b2b2b;stroke-width:0.5;"
                 x="268.941176471"
                 xlink:href="#m241eb9d196"
                 y="388.8"
                 id="use266" />
            </g>
          </g>
        </g>
        <g
           id="xtick_22">
          <g
             id="line2d_38">
            <g
               id="g270">
              <use
                 style="fill:#2b2b2b;stroke:#2b2b2b;stroke-width:0.5;"
                 x="295.2"
                 xlink:href="#m241eb9d196"
                 y="388.8"
                 id="use272" />
            </g>
          </g>
        </g>
        <g
           id="xtick_23">
          <g
             id="line2d_39">
            <g
               id="g276">
              <use
                 style="fill:#2b2b2b;stroke:#2b2b2b;stroke-width:0.5;"
                 x="308.329411765"
                 xlink:href="#m241eb9d196"
                 y="388.8"
                 id="use278" />
            </g>
          </g>
        </g>
        <g
           id="xtick_24">
          <g
             id="line2d_40">
            <g
               id="g282">
              <use
                 style="fill:#2b2b2b;stroke:#2b2b2b;stroke-width:0.5;"
                 x="321.458823529"
                 xlink:href="#m241eb9d196"
                 y="388.8"
                 id="use284" />
            </g>
          </g>
        </g>
        <g
           id="xtick_25">
          <g
             id="line2d_41">
            <g
               id="g288">
              <use
                 style="fill:#2b2b2b;stroke:#2b2b2b;stroke-width:0.5;"
                 x="347.717647059"
                 xlink:href="#m241eb9d196"
                 y="388.8"
                 id="use290" />
            </g>
          </g>
        </g>
        <g
           id="xtick_26">
          <g
             id="line2d_42">
            <g
               id="g294">
              <use
                 style="fill:#2b2b2b;stroke:#2b2b2b;stroke-width:0.5;"
                 x="360.847058824"
                 xlink:href="#m241eb9d196"
                 y="388.8"
                 id="use296" />
            </g>
          </g>
        </g>
        <g
           id="xtick_27">
          <g
             id="line2d_43">
            <g
               id="g300">
              <use
                 style="fill:#2b2b2b;stroke:#2b2b2b;stroke-width:0.5;"
                 x="373.976470588"
                 xlink:href="#m241eb9d196"
                 y="388.8"
                 id="use302" />
            </g>
          </g>
        </g>
        <g
           id="xtick_28">
          <g
             id="line2d_44">
            <g
               id="g306">
              <use
                 style="fill:#2b2b2b;stroke:#2b2b2b;stroke-width:0.5;"
                 x="400.235294118"
                 xlink:href="#m241eb9d196"
                 y="388.8"
                 id="use308" />
            </g>
          </g>
        </g>
        <g
           id="xtick_29">
          <g
             id="line2d_45">
            <g
               id="g312">
              <use
                 style="fill:#2b2b2b;stroke:#2b2b2b;stroke-width:0.5;"
                 x="413.364705882"
                 xlink:href="#m241eb9d196"
                 y="388.8"
                 id="use314" />
            </g>
          </g>
        </g>
        <g
           id="xtick_30">
          <g
             id="line2d_46">
            <g
               id="g318">
              <use
                 style="fill:#2b2b2b;stroke:#2b2b2b;stroke-width:0.5;"
                 x="426.494117647"
                 xlink:href="#m241eb9d196"
                 y="388.8"
                 id="use320" />
            </g>
          </g>
        </g>
        <g
           id="xtick_31">
          <g
             id="line2d_47">
            <g
               id="g324">
              <use
                 style="fill:#2b2b2b;stroke:#2b2b2b;stroke-width:0.5;"
                 x="452.752941176"
                 xlink:href="#m241eb9d196"
                 y="388.8"
                 id="use326" />
            </g>
          </g>
        </g>
        <g
           id="xtick_32">
          <g
             id="line2d_48">
            <g
               id="g330">
              <use
                 style="fill:#2b2b2b;stroke:#2b2b2b;stroke-width:0.5;"
                 x="465.882352941"
                 xlink:href="#m241eb9d196"
                 y="388.8"
                 id="use332" />
            </g>
          </g>
        </g>
        <g
           id="xtick_33">
          <g
             id="line2d_49">
            <g
               id="g336">
              <use
                 style="fill:#2b2b2b;stroke:#2b2b2b;stroke-width:0.5;"
                 x="479.011764706"
                 xlink:href="#m241eb9d196"
                 y="388.8"
                 id="use338" />
            </g>
          </g>
        </g>
        <g
           id="xtick_34">
          <g
             id="line2d_50">
            <g
               id="g342">
              <use
                 style="fill:#2b2b2b;stroke:#2b2b2b;stroke-width:0.5;"
                 x="505.270588235"
                 xlink:href="#m241eb9d196"
                 y="388.8"
                 id="use344" />
            </g>
          </g>
        </g>
        <g
           id="text_10">
          <!-- ml -->
          <defs
             id="defs347">
            <path
               d=" M52 44.1875 Q55.375 50.25 60.0625 53.125 Q64.75 56 71.0938 56 Q79.6406 56 84.2812 50.0156 Q88.9219 44.0469 88.9219 33.0156 L88.9219 0 L79.8906 0 L79.8906 32.7188 Q79.8906 40.5781 77.0938 44.375 Q74.3125 48.1875 68.6094 48.1875 Q61.625 48.1875 57.5625 43.5469 Q53.5156 38.9219 53.5156 30.9062 L53.5156 0 L44.4844 0 L44.4844 32.7188 Q44.4844 40.625 41.7031 44.4062 Q38.9219 48.1875 33.1094 48.1875 Q26.2188 48.1875 22.1562 43.5312 Q18.1094 38.875 18.1094 30.9062 L18.1094 0 L9.07812 0 L9.07812 54.6875 L18.1094 54.6875 L18.1094 46.1875 Q21.1875 51.2188 25.4844 53.6094 Q29.7812 56 35.6875 56 Q41.6562 56 45.8281 52.9688 Q50 49.9531 52 44.1875"
               id="BitstreamVeraSans-Roman-6d" />
            <path
               d=" M9.42188 75.9844 L18.4062 75.9844 L18.4062 0 L9.42188 0 z "
               id="BitstreamVeraSans-Roman-6c" />
          </defs>
          <g
             transform="translate(288.7959375 422.531875)scale(0.12 -0.12)"
             id="g351">
            <use
               xlink:href="#BitstreamVeraSans-Roman-6d"
               id="use353" />
            <use
               x="97.412109375"
               xlink:href="#BitstreamVeraSans-Roman-6c"
               id="use355" />
          </g>
        </g>
      </g>
      <g
         id="matplotlib.axis_2">
        <g
           id="ytick_1">
          <g
             id="line2d_51">
            <defs
               id="defs360">
              <path
                 d=" M0 0 L-6 0"
                 id="mcdbef0770c"
                 style="stroke:#000000;stroke-width:0.5;" />
            </defs>
            <g
               id="g363">
              <use
                 style="stroke:#000000;stroke-width:0.5;"
                 x="72.0"
                 xlink:href="#mcdbef0770c"
                 y="372.793069054"
                 id="use365" />
            </g>
          </g>
          <g
             id="text_11">
            <!-- 0 -->
            <g
               transform="translate(57.953125 376.104319054)scale(0.12 -0.12)"
               id="g368">
              <use
                 xlink:href="#BitstreamVeraSans-Roman-30"
                 id="use370" />
            </g>
          </g>
        </g>
        <g
           id="ytick_2">
          <g
             id="line2d_52">
            <g
               id="g374">
              <use
                 style="stroke:#000000;stroke-width:0.5;"
                 x="72.0"
                 xlink:href="#mcdbef0770c"
                 y="322.050468494"
                 id="use376" />
            </g>
          </g>
          <g
             id="text_12">
            <!-- 100 -->
            <g
               transform="translate(43.21 325.361718494)scale(0.12 -0.12)"
               id="g379">
              <use
                 xlink:href="#BitstreamVeraSans-Roman-31"
                 id="use381" />
              <use
                 x="63.623046875"
                 xlink:href="#BitstreamVeraSans-Roman-30"
                 id="use383" />
              <use
                 x="127.24609375"
                 xlink:href="#BitstreamVeraSans-Roman-30"
                 id="use385" />
            </g>
          </g>
        </g>
        <g
           id="ytick_3">
          <g
             id="line2d_53">
            <g
               id="g389">
              <use
                 style="stroke:#000000;stroke-width:0.5;"
                 x="72.0"
                 xlink:href="#mcdbef0770c"
                 y="271.307867933"
                 id="use391" />
            </g>
          </g>
          <g
             id="text_13">
            <!-- 200 -->
            <g
               transform="translate(42.77125 274.619117933)scale(0.12 -0.12)"
               id="g394">
              <use
                 xlink:href="#BitstreamVeraSans-Roman-32"
                 id="use396" />
              <use
                 x="63.623046875"
                 xlink:href="#BitstreamVeraSans-Roman-30"
                 id="use398" />
              <use
                 x="127.24609375"
                 xlink:href="#BitstreamVeraSans-Roman-30"
                 id="use400" />
            </g>
          </g>
        </g>
        <g
           id="ytick_4">
          <g
             id="line2d_54">
            <g
               id="g404">
              <use
                 style="stroke:#000000;stroke-width:0.5;"
                 x="72.0"
                 xlink:href="#mcdbef0770c"
                 y="220.565267373"
                 id="use406" />
            </g>
          </g>
          <g
             id="text_14">
            <!-- 300 -->
            <defs
               id="defs409">
              <path
                 d=" M40.5781 39.3125 Q47.6562 37.7969 51.625 33 Q55.6094 28.2188 55.6094 21.1875 Q55.6094 10.4062 48.1875 4.48438 Q40.7656 -1.42188 27.0938 -1.42188 Q22.5156 -1.42188 17.6562 -0.515625 Q12.7969 0.390625 7.625 2.20312 L7.625 11.7188 Q11.7188 9.32812 16.5938 8.10938 Q21.4844 6.89062 26.8125 6.89062 Q36.0781 6.89062 40.9375 10.5469 Q45.7969 14.2031 45.7969 21.1875 Q45.7969 27.6406 41.2812 31.2656 Q36.7656 34.9062 28.7188 34.9062 L20.2188 34.9062 L20.2188 43.0156 L29.1094 43.0156 Q36.375 43.0156 40.2344 45.9219 Q44.0938 48.8281 44.0938 54.2969 Q44.0938 59.9062 40.1094 62.9062 Q36.1406 65.9219 28.7188 65.9219 Q24.6562 65.9219 20.0156 65.0312 Q15.375 64.1562 9.8125 62.3125 L9.8125 71.0938 Q15.4375 72.6562 20.3438 73.4375 Q25.25 74.2188 29.5938 74.2188 Q40.8281 74.2188 47.3594 69.1094 Q53.9062 64.0156 53.9062 55.3281 Q53.9062 49.2656 50.4375 45.0938 Q46.9688 40.9219 40.5781 39.3125"
                 id="BitstreamVeraSans-Roman-33" />
            </defs>
            <g
               transform="translate(42.806875 223.876517373)scale(0.12 -0.12)"
               id="g412">
              <use
                 xlink:href="#BitstreamVeraSans-Roman-33"
                 id="use414" />
              <use
                 x="63.623046875"
                 xlink:href="#BitstreamVeraSans-Roman-30"
                 id="use416" />
              <use
                 x="127.24609375"
                 xlink:href="#BitstreamVeraSans-Roman-30"
                 id="use418" />
            </g>
          </g>
        </g>
        <g
           id="ytick_5">
          <g
             id="line2d_55">
            <g
               id="g422">
              <use
                 style="stroke:#000000;stroke-width:0.5;"
                 x="72.0"
                 xlink:href="#mcdbef0770c"
                 y="169.822666812"
                 id="use424" />
            </g>
          </g>
          <g
             id="text_15">
            <!-- 400 -->
            <g
               transform="translate(42.47875 173.133916812)scale(0.12 -0.12)"
               id="g427">
              <use
                 xlink:href="#BitstreamVeraSans-Roman-34"
                 id="use429" />
              <use
                 x="63.623046875"
                 xlink:href="#BitstreamVeraSans-Roman-30"
                 id="use431" />
              <use
                 x="127.24609375"
                 xlink:href="#BitstreamVeraSans-Roman-30"
                 id="use433" />
            </g>
          </g>
        </g>
        <g
           id="ytick_6">
          <g
             id="line2d_56">
            <g
               id="g437">
              <use
                 style="stroke:#000000;stroke-width:0.5;"
                 x="72.0"
                 xlink:href="#mcdbef0770c"
                 y="119.080066252"
                 id="use439" />
            </g>
          </g>
          <g
             id="text_16">
            <!-- 500 -->
            <defs
               id="defs442">
              <path
                 d=" M10.7969 72.9062 L49.5156 72.9062 L49.5156 64.5938 L19.8281 64.5938 L19.8281 46.7344 Q21.9688 47.4688 24.1094 47.8281 Q26.2656 48.1875 28.4219 48.1875 Q40.625 48.1875 47.75 41.5 Q54.8906 34.8125 54.8906 23.3906 Q54.8906 11.625 47.5625 5.09375 Q40.2344 -1.42188 26.9062 -1.42188 Q22.3125 -1.42188 17.5469 -0.640625 Q12.7969 0.140625 7.71875 1.70312 L7.71875 11.625 Q12.1094 9.23438 16.7969 8.0625 Q21.4844 6.89062 26.7031 6.89062 Q35.1562 6.89062 40.0781 11.3281 Q45.0156 15.7656 45.0156 23.3906 Q45.0156 31 40.0781 35.4375 Q35.1562 39.8906 26.7031 39.8906 Q22.75 39.8906 18.8125 39.0156 Q14.8906 38.1406 10.7969 36.2812 z "
                 id="BitstreamVeraSans-Roman-35" />
            </defs>
            <g
               transform="translate(42.818125 122.391316252)scale(0.12 -0.12)"
               id="g445">
              <use
                 xlink:href="#BitstreamVeraSans-Roman-35"
                 id="use447" />
              <use
                 x="63.623046875"
                 xlink:href="#BitstreamVeraSans-Roman-30"
                 id="use449" />
              <use
                 x="127.24609375"
                 xlink:href="#BitstreamVeraSans-Roman-30"
                 id="use451" />
            </g>
          </g>
        </g>
        <g
           id="ytick_7">
          <g
             id="line2d_57">
            <g
               id="g455">
              <use
                 style="stroke:#000000;stroke-width:0.5;"
                 x="72.0"
                 xlink:href="#mcdbef0770c"
                 y="68.3374656912"
                 id="use457" />
            </g>
          </g>
          <g
             id="text_17">
            <!-- 600 -->
            <g
               transform="translate(42.73 71.6487156912)scale(0.12 -0.12)"
               id="g460">
              <use
                 xlink:href="#BitstreamVeraSans-Roman-36"
                 id="use462" />
              <use
                 x="63.623046875"
                 xlink:href="#BitstreamVeraSans-Roman-30"
                 id="use464" />
              <use
                 x="127.24609375"
                 xlink:href="#BitstreamVeraSans-Roman-30"
                 id="use466" />
            </g>
          </g>
        </g>
        <g
           id="ytick_8">
          <g
             id="line2d_58">
            <defs
               id="defs470">
              <path
                 d=" M0 0 L-4 0"
                 id="mb4bc592ff6"
                 style="stroke:#2b2b2b;stroke-width:0.5;" />
            </defs>
            <g
               id="g473">
              <use
                 style="fill:#2b2b2b;stroke:#2b2b2b;stroke-width:0.5;"
                 x="72.0"
                 xlink:href="#mb4bc592ff6"
                 y="382.941589166"
                 id="use475" />
            </g>
          </g>
        </g>
        <g
           id="ytick_9">
          <g
             id="line2d_59">
            <g
               id="g479">
              <use
                 style="fill:#2b2b2b;stroke:#2b2b2b;stroke-width:0.5;"
                 x="72.0"
                 xlink:href="#mb4bc592ff6"
                 y="362.644548942"
                 id="use481" />
            </g>
          </g>
        </g>
        <g
           id="ytick_10">
          <g
             id="line2d_60">
            <g
               id="g485">
              <use
                 style="fill:#2b2b2b;stroke:#2b2b2b;stroke-width:0.5;"
                 x="72.0"
                 xlink:href="#mb4bc592ff6"
                 y="352.49602883"
                 id="use487" />
            </g>
          </g>
        </g>
        <g
           id="ytick_11">
          <g
             id="line2d_61">
            <g
               id="g491">
              <use
                 style="fill:#2b2b2b;stroke:#2b2b2b;stroke-width:0.5;"
                 x="72.0"
                 xlink:href="#mb4bc592ff6"
                 y="342.347508718"
                 id="use493" />
            </g>
          </g>
        </g>
        <g
           id="ytick_12">
          <g
             id="line2d_62">
            <g
               id="g497">
              <use
                 style="fill:#2b2b2b;stroke:#2b2b2b;stroke-width:0.5;"
                 x="72.0"
                 xlink:href="#mb4bc592ff6"
                 y="332.198988606"
                 id="use499" />
            </g>
          </g>
        </g>
        <g
           id="ytick_13">
          <g
             id="line2d_63">
            <g
               id="g503">
              <use
                 style="fill:#2b2b2b;stroke:#2b2b2b;stroke-width:0.5;"
                 x="72.0"
                 xlink:href="#mb4bc592ff6"
                 y="311.901948382"
                 id="use505" />
            </g>
          </g>
        </g>
        <g
           id="ytick_14">
          <g
             id="line2d_64">
            <g
               id="g509">
              <use
                 style="fill:#2b2b2b;stroke:#2b2b2b;stroke-width:0.5;"
                 x="72.0"
                 xlink:href="#mb4bc592ff6"
                 y="301.753428269"
                 id="use511" />
            </g>
          </g>
        </g>
        <g
           id="ytick_15">
          <g
             id="line2d_65">
            <g
               id="g515">
              <use
                 style="fill:#2b2b2b;stroke:#2b2b2b;stroke-width:0.5;"
                 x="72.0"
                 xlink:href="#mb4bc592ff6"
                 y="291.604908157"
                 id="use517" />
            </g>
          </g>
        </g>
        <g
           id="ytick_16">
          <g
             id="line2d_66">
            <g
               id="g521">
              <use
                 style="fill:#2b2b2b;stroke:#2b2b2b;stroke-width:0.5;"
                 x="72.0"
                 xlink:href="#mb4bc592ff6"
                 y="281.456388045"
                 id="use523" />
            </g>
          </g>
        </g>
        <g
           id="ytick_17">
          <g
             id="line2d_67">
            <g
               id="g527">
              <use
                 style="fill:#2b2b2b;stroke:#2b2b2b;stroke-width:0.5;"
                 x="72.0"
                 xlink:href="#mb4bc592ff6"
                 y="261.159347821"
                 id="use529" />
            </g>
          </g>
        </g>
        <g
           id="ytick_18">
          <g
             id="line2d_68">
            <g
               id="g533">
              <use
                 style="fill:#2b2b2b;stroke:#2b2b2b;stroke-width:0.5;"
                 x="72.0"
                 xlink:href="#mb4bc592ff6"
                 y="251.010827709"
                 id="use535" />
            </g>
          </g>
        </g>
        <g
           id="ytick_19">
          <g
             id="line2d_69">
            <g
               id="g539">
              <use
                 style="fill:#2b2b2b;stroke:#2b2b2b;stroke-width:0.5;"
                 x="72.0"
                 xlink:href="#mb4bc592ff6"
                 y="240.862307597"
                 id="use541" />
            </g>
          </g>
        </g>
        <g
           id="ytick_20">
          <g
             id="line2d_70">
            <g
               id="g545">
              <use
                 style="fill:#2b2b2b;stroke:#2b2b2b;stroke-width:0.5;"
                 x="72.0"
                 xlink:href="#mb4bc592ff6"
                 y="230.713787485"
                 id="use547" />
            </g>
          </g>
        </g>
        <g
           id="ytick_21">
          <g
             id="line2d_71">
            <g
               id="g551">
              <use
                 style="fill:#2b2b2b;stroke:#2b2b2b;stroke-width:0.5;"
                 x="72.0"
                 xlink:href="#mb4bc592ff6"
                 y="210.416747261"
                 id="use553" />
            </g>
          </g>
        </g>
        <g
           id="ytick_22">
          <g
             id="line2d_72">
            <g
               id="g557">
              <use
                 style="fill:#2b2b2b;stroke:#2b2b2b;stroke-width:0.5;"
                 x="72.0"
                 xlink:href="#mb4bc592ff6"
                 y="200.268227148"
                 id="use559" />
            </g>
          </g>
        </g>
        <g
           id="ytick_23">
          <g
             id="line2d_73">
            <g
               id="g563">
              <use
                 style="fill:#2b2b2b;stroke:#2b2b2b;stroke-width:0.5;"
                 x="72.0"
                 xlink:href="#mb4bc592ff6"
                 y="190.119707036"
                 id="use565" />
            </g>
          </g>
        </g>
        <g
           id="ytick_24">
          <g
             id="line2d_74">
            <g
               id="g569">
              <use
                 style="fill:#2b2b2b;stroke:#2b2b2b;stroke-width:0.5;"
                 x="72.0"
                 xlink:href="#mb4bc592ff6"
                 y="179.971186924"
                 id="use571" />
            </g>
          </g>
        </g>
        <g
           id="ytick_25">
          <g
             id="line2d_75">
            <g
               id="g575">
              <use
                 style="fill:#2b2b2b;stroke:#2b2b2b;stroke-width:0.5;"
                 x="72.0"
                 xlink:href="#mb4bc592ff6"
                 y="159.6741467"
                 id="use577" />
            </g>
          </g>
        </g>
        <g
           id="ytick_26">
          <g
             id="line2d_76">
            <g
               id="g581">
              <use
                 style="fill:#2b2b2b;stroke:#2b2b2b;stroke-width:0.5;"
                 x="72.0"
                 xlink:href="#mb4bc592ff6"
                 y="149.525626588"
                 id="use583" />
            </g>
          </g>
        </g>
        <g
           id="ytick_27">
          <g
             id="line2d_77">
            <g
               id="g587">
              <use
                 style="fill:#2b2b2b;stroke:#2b2b2b;stroke-width:0.5;"
                 x="72.0"
                 xlink:href="#mb4bc592ff6"
                 y="139.377106476"
                 id="use589" />
            </g>
          </g>
        </g>
        <g
           id="ytick_28">
          <g
             id="line2d_78">
            <g
               id="g593">
              <use
                 style="fill:#2b2b2b;stroke:#2b2b2b;stroke-width:0.5;"
                 x="72.0"
                 xlink:href="#mb4bc592ff6"
                 y="129.228586364"
                 id="use595" />
            </g>
          </g>
        </g>
        <g
           id="ytick_29">
          <g
             id="line2d_79">
            <g
               id="g599">
              <use
                 style="fill:#2b2b2b;stroke:#2b2b2b;stroke-width:0.5;"
                 x="72.0"
                 xlink:href="#mb4bc592ff6"
                 y="108.93154614"
                 id="use601" />
            </g>
          </g>
        </g>
        <g
           id="ytick_30">
          <g
             id="line2d_80">
            <g
               id="g605">
              <use
                 style="fill:#2b2b2b;stroke:#2b2b2b;stroke-width:0.5;"
                 x="72.0"
                 xlink:href="#mb4bc592ff6"
                 y="98.7830260275"
                 id="use607" />
            </g>
          </g>
        </g>
        <g
           id="ytick_31">
          <g
             id="line2d_81">
            <g
               id="g611">
              <use
                 style="fill:#2b2b2b;stroke:#2b2b2b;stroke-width:0.5;"
                 x="72.0"
                 xlink:href="#mb4bc592ff6"
                 y="88.6345059154"
                 id="use613" />
            </g>
          </g>
        </g>
        <g
           id="ytick_32">
          <g
             id="line2d_82">
            <g
               id="g617">
              <use
                 style="fill:#2b2b2b;stroke:#2b2b2b;stroke-width:0.5;"
                 x="72.0"
                 xlink:href="#mb4bc592ff6"
                 y="78.4859858033"
                 id="use619" />
            </g>
          </g>
        </g>
        <g
           id="ytick_33">
          <g
             id="line2d_83">
            <g
               id="g623">
              <use
                 style="fill:#2b2b2b;stroke:#2b2b2b;stroke-width:0.5;"
                 x="72.0"
                 xlink:href="#mb4bc592ff6"
                 y="58.1889455791"
                 id="use625" />
            </g>
          </g>
        </g>
        <g
           id="text_18">
          <!-- mAU -->
          <defs
             id="defs628">
            <path
               d=" M8.6875 72.9062 L18.6094 72.9062 L18.6094 28.6094 Q18.6094 16.8906 22.8438 11.7344 Q27.0938 6.59375 36.625 6.59375 Q46.0938 6.59375 50.3438 11.7344 Q54.5938 16.8906 54.5938 28.6094 L54.5938 72.9062 L64.5 72.9062 L64.5 27.3906 Q64.5 13.1406 57.4375 5.85938 Q50.3906 -1.42188 36.625 -1.42188 Q22.7969 -1.42188 15.7344 5.85938 Q8.6875 13.1406 8.6875 27.3906 z "
               id="BitstreamVeraSans-Roman-55" />
            <path
               d=" M34.1875 63.1875 L20.7969 26.9062 L47.6094 26.9062 z  M28.6094 72.9062 L39.7969 72.9062 L67.5781 0 L57.3281 0 L50.6875 18.7031 L17.8281 18.7031 L11.1875 0 L0.78125 0 z "
               id="BitstreamVeraSans-Roman-41" />
          </defs>
          <g
             transform="translate(34.983125 229.2740625)rotate(-90.0)scale(0.12 -0.12)"
             id="g632">
            <use
               xlink:href="#BitstreamVeraSans-Roman-6d"
               id="use634" />
            <use
               x="97.412109375"
               xlink:href="#BitstreamVeraSans-Roman-41"
               id="use636" />
            <use
               x="165.8203125"
               xlink:href="#BitstreamVeraSans-Roman-55"
               id="use638" />
          </g>
        </g>
      </g>
      <g
         id="patch_3">
        <path
           d=" M72 43.2 L518.4 43.2"
           style="fill:none;"
           id="path641" />
      </g>
      <g
         id="patch_4">
        <path
           d=" M518.4 388.8 L518.4 43.2"
           style="fill:none;"
           id="path644" />
      </g>
      <g
         id="patch_5">
        <path
           d=" M72 388.8 L518.4 388.8"
           style="fill:none;stroke:#000000;"
           id="path647" />
      </g>
      <g
         id="patch_6">
        <path
           d=" M72 388.8 L72 43.2"
           style="fill:none;stroke:#000000;"
           id="path650" />
      </g>
      <g
         id="text_19">
        <!-- 1 -->
        <g
           transform="translate(277.713382353 383.616)rotate(-90.0)scale(0.08 -0.08)"
           id="g653">
          <use
             xlink:href="#BitstreamVeraSans-Roman-31"
             id="use655" />
        </g>
      </g>
      <g
         id="text_20">
        <!-- 2 -->
        <g
           transform="translate(290.842794118 383.616)rotate(-90.0)scale(0.08 -0.08)"
           id="g658">
          <use
             xlink:href="#BitstreamVeraSans-Roman-32"
             id="use660" />
        </g>
      </g>
      <g
         id="text_21">
        <!-- 3 -->
        <g
           transform="translate(303.972205882 383.616)rotate(-90.0)scale(0.08 -0.08)"
           id="g663">
          <use
             xlink:href="#BitstreamVeraSans-Roman-33"
             id="use665" />
        </g>
      </g>
      <g
         id="text_22">
        <!-- 4 -->
        <g
           transform="translate(316.970323529 383.616)rotate(-90.0)scale(0.08 -0.08)"
           id="g668">
          <use
             xlink:href="#BitstreamVeraSans-Roman-34"
             id="use670" />
        </g>
      </g>
      <g
         id="text_23">
        <!-- 5 -->
        <g
           transform="translate(329.968441176 383.616)rotate(-90.0)scale(0.08 -0.08)"
           id="g673">
          <use
             xlink:href="#BitstreamVeraSans-Roman-35"
             id="use675" />
        </g>
      </g>
      <g
         id="text_24">
        <!-- 6 -->
        <g
           transform="translate(343.097852941 383.616)rotate(-90.0)scale(0.08 -0.08)"
           id="g678">
          <use
             xlink:href="#BitstreamVeraSans-Roman-36"
             id="use680" />
        </g>
      </g>
      <g
         id="text_25">
        <!-- 7 -->
        <defs
           id="defs683">
          <path
             d=" M8.20312 72.9062 L55.0781 72.9062 L55.0781 68.7031 L28.6094 0 L18.3125 0 L43.2188 64.5938 L8.20312 64.5938 z "
             id="BitstreamVeraSans-Roman-37" />
        </defs>
        <g
           transform="translate(356.227264706 383.616)rotate(-90.0)scale(0.08 -0.08)"
           id="g686">
          <use
             xlink:href="#BitstreamVeraSans-Roman-37"
             id="use688" />
        </g>
      </g>
      <g
         id="text_26">
        <!-- 8 -->
        <g
           transform="translate(369.356676471 383.616)rotate(-90.0)scale(0.08 -0.08)"
           id="g691">
          <use
             xlink:href="#BitstreamVeraSans-Roman-38"
             id="use693" />
        </g>
      </g>
      <g
         id="text_27">
        <!-- 9 -->
        <defs
           id="defs696">
          <path
             d=" M10.9844 1.51562 L10.9844 10.5 Q14.7031 8.73438 18.5 7.8125 Q22.3125 6.89062 25.9844 6.89062 Q35.75 6.89062 40.8906 13.4531 Q46.0469 20.0156 46.7812 33.4062 Q43.9531 29.2031 39.5938 26.9531 Q35.25 24.7031 29.9844 24.7031 Q19.0469 24.7031 12.6719 31.3125 Q6.29688 37.9375 6.29688 49.4219 Q6.29688 60.6406 12.9375 67.4219 Q19.5781 74.2188 30.6094 74.2188 Q43.2656 74.2188 49.9219 64.5156 Q56.5938 54.8281 56.5938 36.375 Q56.5938 19.1406 48.4062 8.85938 Q40.2344 -1.42188 26.4219 -1.42188 Q22.7031 -1.42188 18.8906 -0.6875 Q15.0938 0.046875 10.9844 1.51562 M30.6094 32.4219 Q37.25 32.4219 41.125 36.9531 Q45.0156 41.5 45.0156 49.4219 Q45.0156 57.2812 41.125 61.8438 Q37.25 66.4062 30.6094 66.4062 Q23.9688 66.4062 20.0938 61.8438 Q16.2188 57.2812 16.2188 49.4219 Q16.2188 41.5 20.0938 36.9531 Q23.9688 32.4219 30.6094 32.4219"
             id="BitstreamVeraSans-Roman-39" />
        </defs>
        <g
           transform="translate(382.486088235 383.616)rotate(-90.0)scale(0.08 -0.08)"
           id="g699">
          <use
             xlink:href="#BitstreamVeraSans-Roman-39"
             id="use701" />
        </g>
      </g>
      <g
         id="text_28">
        <!-- 10 -->
        <g
           transform="translate(395.6155 383.616)rotate(-90.0)scale(0.08 -0.08)"
           id="g704">
          <use
             xlink:href="#BitstreamVeraSans-Roman-31"
             id="use706" />
          <use
             x="63.623046875"
             xlink:href="#BitstreamVeraSans-Roman-30"
             id="use708" />
        </g>
      </g>
      <g
         id="text_29">
        <!-- 11 -->
        <g
           transform="translate(408.744911765 383.616)rotate(-90.0)scale(0.08 -0.08)"
           id="g711">
          <use
             xlink:href="#BitstreamVeraSans-Roman-31"
             id="use713" />
          <use
             x="63.623046875"
             xlink:href="#BitstreamVeraSans-Roman-31"
             id="use715" />
        </g>
      </g>
      <g
         id="text_30">
        <!-- 12 -->
        <g
           transform="translate(421.874323529 383.616)rotate(-90.0)scale(0.08 -0.08)"
           id="g718">
          <use
             xlink:href="#BitstreamVeraSans-Roman-31"
             id="use720" />
          <use
             x="63.623046875"
             xlink:href="#BitstreamVeraSans-Roman-32"
             id="use722" />
        </g>
      </g>
      <g
         id="text_31">
        <!-- 13 -->
        <g
           transform="translate(435.003735294 383.616)rotate(-90.0)scale(0.08 -0.08)"
           id="g725">
          <use
             xlink:href="#BitstreamVeraSans-Roman-31"
             id="use727" />
          <use
             x="63.623046875"
             xlink:href="#BitstreamVeraSans-Roman-33"
             id="use729" />
        </g>
      </g>
      <g
         id="text_32">
        <!-- 14 -->
        <g
           transform="translate(448.001852941 383.616)rotate(-90.0)scale(0.08 -0.08)"
           id="g732">
          <use
             xlink:href="#BitstreamVeraSans-Roman-31"
             id="use734" />
          <use
             x="63.623046875"
             xlink:href="#BitstreamVeraSans-Roman-34"
             id="use736" />
        </g>
      </g>
      <g
         id="text_33">
        <!-- Waste -->
        <defs
           id="defs739">
          <path
             d=" M56.2031 29.5938 L56.2031 25.2031 L14.8906 25.2031 Q15.4844 15.9219 20.4844 11.0625 Q25.4844 6.20312 34.4219 6.20312 Q39.5938 6.20312 44.4531 7.46875 Q49.3125 8.73438 54.1094 11.2812 L54.1094 2.78125 Q49.2656 0.734375 44.1875 -0.34375 Q39.1094 -1.42188 33.8906 -1.42188 Q20.7969 -1.42188 13.1562 6.1875 Q5.51562 13.8125 5.51562 26.8125 Q5.51562 40.2344 12.7656 48.1094 Q20.0156 56 32.3281 56 Q43.3594 56 49.7812 48.8906 Q56.2031 41.7969 56.2031 29.5938 M47.2188 32.2344 Q47.125 39.5938 43.0938 43.9844 Q39.0625 48.3906 32.4219 48.3906 Q24.9062 48.3906 20.3906 44.1406 Q15.875 39.8906 15.1875 32.1719 z "
             id="BitstreamVeraSans-Roman-65" />
          <path
             d=" M18.3125 70.2188 L18.3125 54.6875 L36.8125 54.6875 L36.8125 47.7031 L18.3125 47.7031 L18.3125 18.0156 Q18.3125 11.3281 20.1406 9.42188 Q21.9688 7.51562 27.5938 7.51562 L36.8125 7.51562 L36.8125 0 L27.5938 0 Q17.1875 0 13.2344 3.875 Q9.28125 7.76562 9.28125 18.0156 L9.28125 47.7031 L2.6875 47.7031 L2.6875 54.6875 L9.28125 54.6875 L9.28125 70.2188 z "
             id="BitstreamVeraSans-Roman-74" />
          <path
             d=" M34.2812 27.4844 Q23.3906 27.4844 19.1875 25 Q14.9844 22.5156 14.9844 16.5 Q14.9844 11.7188 18.1406 8.90625 Q21.2969 6.10938 26.7031 6.10938 Q34.1875 6.10938 38.7031 11.4062 Q43.2188 16.7031 43.2188 25.4844 L43.2188 27.4844 z  M52.2031 31.2031 L52.2031 0 L43.2188 0 L43.2188 8.29688 Q40.1406 3.32812 35.5469 0.953125 Q30.9531 -1.42188 24.3125 -1.42188 Q15.9219 -1.42188 10.9531 3.29688 Q6 8.01562 6 15.9219 Q6 25.1406 12.1719 29.8281 Q18.3594 34.5156 30.6094 34.5156 L43.2188 34.5156 L43.2188 35.4062 Q43.2188 41.6094 39.1406 45 Q35.0625 48.3906 27.6875 48.3906 Q23 48.3906 18.5469 47.2656 Q14.1094 46.1406 10.0156 43.8906 L10.0156 52.2031 Q14.9375 54.1094 19.5781 55.0469 Q24.2188 56 28.6094 56 Q40.4844 56 46.3438 49.8438 Q52.2031 43.7031 52.2031 31.2031"
             id="BitstreamVeraSans-Roman-61" />
          <path
             d=" M44.2812 53.0781 L44.2812 44.5781 Q40.4844 46.5312 36.375 47.5 Q32.2812 48.4844 27.875 48.4844 Q21.1875 48.4844 17.8438 46.4375 Q14.5 44.3906 14.5 40.2812 Q14.5 37.1562 16.8906 35.375 Q19.2812 33.5938 26.5156 31.9844 L29.5938 31.2969 Q39.1562 29.25 43.1875 25.5156 Q47.2188 21.7812 47.2188 15.0938 Q47.2188 7.46875 41.1875 3.01562 Q35.1562 -1.42188 24.6094 -1.42188 Q20.2188 -1.42188 15.4531 -0.5625 Q10.6875 0.296875 5.42188 2 L5.42188 11.2812 Q10.4062 8.6875 15.2344 7.39062 Q20.0625 6.10938 24.8125 6.10938 Q31.1562 6.10938 34.5625 8.28125 Q37.9844 10.4531 37.9844 14.4062 Q37.9844 18.0625 35.5156 20.0156 Q33.0625 21.9688 24.7031 23.7812 L21.5781 24.5156 Q13.2344 26.2656 9.51562 29.9062 Q5.8125 33.5469 5.8125 39.8906 Q5.8125 47.6094 11.2812 51.7969 Q16.75 56 26.8125 56 Q31.7812 56 36.1719 55.2656 Q40.5781 54.5469 44.2812 53.0781"
             id="BitstreamVeraSans-Roman-73" />
          <path
             d=" M3.32812 72.9062 L13.2812 72.9062 L28.6094 11.2812 L43.8906 72.9062 L54.9844 72.9062 L70.3125 11.2812 L85.5938 72.9062 L95.6094 72.9062 L77.2969 0 L64.8906 0 L49.5156 63.2812 L33.9844 0 L21.5781 0 z "
             id="BitstreamVeraSans-Roman-57" />
        </defs>
        <g
           transform="translate(460.868676471 383.616)rotate(-90.0)scale(0.08 -0.08)"
           id="g746">
          <use
             xlink:href="#BitstreamVeraSans-Roman-57"
             id="use748" />
          <use
             x="92.501953125"
             xlink:href="#BitstreamVeraSans-Roman-61"
             id="use750" />
          <use
             x="153.78125"
             xlink:href="#BitstreamVeraSans-Roman-73"
             id="use752" />
          <use
             x="205.880859375"
             xlink:href="#BitstreamVeraSans-Roman-74"
             id="use754" />
          <use
             x="245.08984375"
             xlink:href="#BitstreamVeraSans-Roman-65"
             id="use756" />
        </g>
      </g>
      <g
         id="text_34">
        <!-- RAP1-Sup200.res -->
        <defs
           id="defs759">
          <path
             d=" M19.6719 64.7969 L19.6719 37.4062 L32.0781 37.4062 Q38.9688 37.4062 42.7188 40.9688 Q46.4844 44.5312 46.4844 51.125 Q46.4844 57.6719 42.7188 61.2344 Q38.9688 64.7969 32.0781 64.7969 z  M9.8125 72.9062 L32.0781 72.9062 Q44.3438 72.9062 50.6094 67.3594 Q56.8906 61.8125 56.8906 51.125 Q56.8906 40.3281 50.6094 34.8125 Q44.3438 29.2969 32.0781 29.2969 L19.6719 29.2969 L19.6719 0 L9.8125 0 z "
             id="BitstreamVeraSans-Roman-50" />
          <path
             d=" M44.3906 34.1875 Q47.5625 33.1094 50.5625 29.5938 Q53.5625 26.0781 56.5938 19.9219 L66.6094 0 L56 0 L46.6875 18.7031 Q43.0625 26.0312 39.6719 28.4219 Q36.2812 30.8125 30.4219 30.8125 L19.6719 30.8125 L19.6719 0 L9.8125 0 L9.8125 72.9062 L32.0781 72.9062 Q44.5781 72.9062 50.7344 67.6719 Q56.8906 62.4531 56.8906 51.9062 Q56.8906 45.0156 53.6875 40.4688 Q50.4844 35.9375 44.3906 34.1875 M19.6719 64.7969 L19.6719 38.9219 L32.0781 38.9219 Q39.2031 38.9219 42.8438 42.2188 Q46.4844 45.5156 46.4844 51.9062 Q46.4844 58.2969 42.8438 61.5469 Q39.2031 64.7969 32.0781 64.7969 z "
             id="BitstreamVeraSans-Roman-52" />
          <path
             d=" M53.5156 70.5156 L53.5156 60.8906 Q47.9062 63.5781 42.9219 64.8906 Q37.9375 66.2188 33.2969 66.2188 Q25.25 66.2188 20.875 63.0938 Q16.5 59.9688 16.5 54.2031 Q16.5 49.3594 19.4062 46.8906 Q22.3125 44.4375 30.4219 42.9219 L36.375 41.7031 Q47.4062 39.5938 52.6562 34.2969 Q57.9062 29 57.9062 20.125 Q57.9062 9.51562 50.7969 4.04688 Q43.7031 -1.42188 29.9844 -1.42188 Q24.8125 -1.42188 18.9688 -0.25 Q13.1406 0.921875 6.89062 3.21875 L6.89062 13.375 Q12.8906 10.0156 18.6562 8.29688 Q24.4219 6.59375 29.9844 6.59375 Q38.4219 6.59375 43.0156 9.90625 Q47.6094 13.2344 47.6094 19.3906 Q47.6094 24.75 44.3125 27.7812 Q41.0156 30.8125 33.5 32.3281 L27.4844 33.5 Q16.4531 35.6875 11.5156 40.375 Q6.59375 45.0625 6.59375 53.4219 Q6.59375 63.0938 13.4062 68.6562 Q20.2188 74.2188 32.1719 74.2188 Q37.3125 74.2188 42.625 73.2812 Q47.9531 72.3594 53.5156 70.5156"
             id="BitstreamVeraSans-Roman-53" />
          <path
             d=" M4.89062 31.3906 L31.2031 31.3906 L31.2031 23.3906 L4.89062 23.3906 z "
             id="BitstreamVeraSans-Roman-2d" />
          <path
             d=" M8.5 21.5781 L8.5 54.6875 L17.4844 54.6875 L17.4844 21.9219 Q17.4844 14.1562 20.5 10.2656 Q23.5312 6.39062 29.5938 6.39062 Q36.8594 6.39062 41.0781 11.0312 Q45.3125 15.6719 45.3125 23.6875 L45.3125 54.6875 L54.2969 54.6875 L54.2969 0 L45.3125 0 L45.3125 8.40625 Q42.0469 3.42188 37.7188 1 Q33.4062 -1.42188 27.6875 -1.42188 Q18.2656 -1.42188 13.375 4.4375 Q8.5 10.2969 8.5 21.5781"
             id="BitstreamVeraSans-Roman-75" />
          <path
             d=" M18.1094 8.20312 L18.1094 -20.7969 L9.07812 -20.7969 L9.07812 54.6875 L18.1094 54.6875 L18.1094 46.3906 Q20.9531 51.2656 25.2656 53.625 Q29.5938 56 35.5938 56 Q45.5625 56 51.7812 48.0938 Q58.0156 40.1875 58.0156 27.2969 Q58.0156 14.4062 51.7812 6.48438 Q45.5625 -1.42188 35.5938 -1.42188 Q29.5938 -1.42188 25.2656 0.953125 Q20.9531 3.32812 18.1094 8.20312 M48.6875 27.2969 Q48.6875 37.2031 44.6094 42.8438 Q40.5312 48.4844 33.4062 48.4844 Q26.2656 48.4844 22.1875 42.8438 Q18.1094 37.2031 18.1094 27.2969 Q18.1094 17.3906 22.1875 11.75 Q26.2656 6.10938 33.4062 6.10938 Q40.5312 6.10938 44.6094 11.75 Q48.6875 17.3906 48.6875 27.2969"
             id="BitstreamVeraSans-Roman-70" />
        </defs>
        <g
           transform="translate(244.51875 24.762625)scale(0.12 -0.12)"
           id="g769">
          <use
             xlink:href="#BitstreamVeraSans-Roman-52"
             id="use771" />
          <use
             x="65.482421875"
             xlink:href="#BitstreamVeraSans-Roman-41"
             id="use773" />
          <use
             x="133.890625"
             xlink:href="#BitstreamVeraSans-Roman-50"
             id="use775" />
          <use
             x="194.193359375"
             xlink:href="#BitstreamVeraSans-Roman-31"
             id="use777" />
          <use
             x="257.81640625"
             xlink:href="#BitstreamVeraSans-Roman-2d"
             id="use779" />
          <use
             x="293.900390625"
             xlink:href="#BitstreamVeraSans-Roman-53"
             id="use781" />
          <use
             x="357.376953125"
             xlink:href="#BitstreamVeraSans-Roman-75"
             id="use783" />
          <use
             x="420.755859375"
             xlink:href="#BitstreamVeraSans-Roman-70"
             id="use785" />
          <use
             x="484.232421875"
             xlink:href="#BitstreamVeraSans-Roman-32"
             id="use787" />
          <use
             x="547.85546875"
             xlink:href="#BitstreamVeraSans-Roman-30"
             id="use789" />
          <use
             x="611.478515625"
             xlink:href="#BitstreamVeraSans-Roman-30"
             id="use791" />
        </g>
        <!-- Manual run 10 -->
        <defs
           id="defs801">
          <path
             id="BitstreamVeraSans-Roman-20" />
        </defs>
        <g
           transform="translate(252.275625 38.2)scale(0.12 -0.12)"
           id="g806">
          <use
             x="363.37890625"
             xlink:href="#BitstreamVeraSans-Roman-20"
             id="use820" />
          <use
             x="563.037109375"
             xlink:href="#BitstreamVeraSans-Roman-20"
             id="use828" />
        </g>
      </g>
    </g>
  </g>
  <defs
     id="defs834">
    <clipPath
       id="p7ff5b81e1d">
      <rect
         height="345.6"
         width="446.4"
         x="72.0"
         y="43.2"
         id="rect837" />
    </clipPath>
  </defs>
</svg>
