<?xml version="1.0" encoding="UTF-8" standalone="no"?>
<!-- Created with matplotlib (http://matplotlib.org/) -->

<svg
   xmlns:dc="http://purl.org/dc/elements/1.1/"
   xmlns:cc="http://creativecommons.org/ns#"
   xmlns:rdf="http://www.w3.org/1999/02/22-rdf-syntax-ns#"
   xmlns:svg="http://www.w3.org/2000/svg"
   xmlns="http://www.w3.org/2000/svg"
   xmlns:xlink="http://www.w3.org/1999/xlink"
   xmlns:sodipodi="http://sodipodi.sourceforge.net/DTD/sodipodi-0.dtd"
   xmlns:inkscape="http://www.inkscape.org/namespaces/inkscape"
   height="432pt"
   version="1.1"
   viewBox="0 0 576 432"
   width="576pt"
   id="svg2"
   inkscape:version="0.91 r13725"
   sodipodi:docname="ARAGA-Sup200.svg"
   inkscape:export-filename="/Users/Guillaume/Labo/redac/these/resultats/figures/chap1/ARAGA-Sup200.png"
   inkscape:export-xdpi="300"
   inkscape:export-ydpi="300">
  <metadata
     id="metadata844">
    <rdf:RDF>
      <cc:Work
         rdf:about="">
        <dc:format>image/svg+xml</dc:format>
        <dc:type
           rdf:resource="http://purl.org/dc/dcmitype/StillImage" />
        <dc:title></dc:title>
        <dc:creator>
          <cc:Agent>
            <dc:title>Guillaume Gaullier</dc:title>
          </cc:Agent>
        </dc:creator>
        <dc:rights>
          <cc:Agent>
            <dc:title>CC BY-SA 4.0</dc:title>
          </cc:Agent>
        </dc:rights>
        <cc:license
           rdf:resource="http://creativecommons.org/licenses/by-sa/3.0/" />
      </cc:Work>
      <cc:License
         rdf:about="http://creativecommons.org/licenses/by-sa/3.0/">
        <cc:permits
           rdf:resource="http://creativecommons.org/ns#Reproduction" />
        <cc:permits
           rdf:resource="http://creativecommons.org/ns#Distribution" />
        <cc:requires
           rdf:resource="http://creativecommons.org/ns#Notice" />
        <cc:requires
           rdf:resource="http://creativecommons.org/ns#Attribution" />
        <cc:permits
           rdf:resource="http://creativecommons.org/ns#DerivativeWorks" />
        <cc:requires
           rdf:resource="http://creativecommons.org/ns#ShareAlike" />
      </cc:License>
    </rdf:RDF>
  </metadata>
  <sodipodi:namedview
     pagecolor="#ffffff"
     bordercolor="#666666"
     borderopacity="1"
     objecttolerance="10"
     gridtolerance="10"
     guidetolerance="10"
     inkscape:pageopacity="0"
     inkscape:pageshadow="2"
     inkscape:window-width="1280"
     inkscape:window-height="707"
     id="namedview842"
     showgrid="false"
     inkscape:zoom="1"
     inkscape:cx="374.5"
     inkscape:cy="222.5"
     inkscape:window-x="0"
     inkscape:window-y="0"
     inkscape:window-maximized="1"
     inkscape:current-layer="svg2" />
  <defs
     id="defs4">
    <style
       type="text/css"
       id="style6">
*{stroke-linecap:butt;stroke-linejoin:round;}
  </style>
  </defs>
  <g
     id="figure_1">
    <g
       id="patch_1">
      <path
         d=" M0 432 L576 432 L576 0 L0 0 z "
         style="fill:#ffffff;"
         id="path10" />
    </g>
    <g
       id="axes_1">
      <g
         id="patch_2">
        <path
           d=" M72 388.8 L518.4 388.8 L518.4 43.2 L72 43.2 z "
           style="fill:#ffffff;"
           id="path14" />
      </g>
      <g
         id="line2d_1">
        <path
           clip-path="url(#p7ff5b81e1d)"
           d=" M72 369.931 L72 369.968 L72 369.976 L73.302 370.109 L78.51 370.839 L78.51 370.763 L78.882 370.799 L78.882 370.844 L78.882 370.877 L83.346 371.217 L83.346 371.242 L83.904 371.245 L83.904 371.23 L86.322 371.33 L86.322 371.285 L86.88 371.272 L86.88 371.298 L91.902 371.637 L91.902 371.627 L91.902 371.627 L91.902 371.627 L91.902 371.638 L101.946 371.953 L101.946 371.942 L101.946 371.926 L109.2 372.127 L109.2 372.148 L109.944 372.064 L109.944 372.043 L110.688 371.88 L110.688 371.871 L110.688 371.874 L111.432 371.764 L112.362 371.576 L112.362 371.611 L113.478 371.603 L113.478 371.591 L113.478 371.586 L118.314 371.896 L118.314 371.889 L118.314 371.86 L118.872 371.857 L118.872 371.89 L118.872 371.9 L121.662 371.94 L121.662 371.986 L122.778 371.956 L122.778 371.94 L123.336 372.047 L123.336 372.087 L124.824 372.133 L124.824 372.106 L125.568 372.067 L125.568 372.131 L126.126 372.137 L126.126 372.123 L133.38 372.11 L133.38 372.109 L133.38 372.1 L135.054 372.207 L135.054 372.204 L136.17 372.274 L136.17 372.288 L136.17 372.298 L136.728 372.223 L136.728 372.208 L136.728 372.193 L137.658 372.129 L137.658 372.091 L141.75 372.262 L141.75 372.221 L143.424 372.278 L143.424 372.3 L143.982 372.272 L143.982 372.225 L144.354 372.226 L144.354 372.264 L145.656 372.28 L145.656 372.275 L149.004 372.264 L149.004 372.256 L149.562 372.293 L149.562 372.324 L149.562 372.322 L150.864 372.257 L150.864 372.32 L151.422 372.257 L151.422 372.245 L151.422 372.246 L153.282 372.341 L153.282 372.346 L155.142 372.369 L155.142 372.355 L156.816 372.365 L156.816 372.349 L158.862 372.322 L158.862 372.341 L161.094 372.447 L161.094 372.437 L161.094 372.411 L162.396 372.413 L162.396 372.42 L162.396 372.432 L168.906 372.505 L168.906 372.498 L170.022 372.523 L170.022 372.567 L174.114 372.609 L174.114 372.494 L174.486 372.419 L174.486 372.489 L175.416 372.619 L175.416 372.611 L175.416 372.612 L181.368 372.6 L181.368 372.552 L181.926 372.544 L181.926 372.587 L183.042 372.54 L183.042 372.507 L184.158 372.578 L184.158 372.599 L184.158 372.59 L185.46 372.533 L185.46 372.563 L186.576 372.522 L186.576 372.521 L186.576 372.521 L186.576 372.521 L186.576 372.524 L187.134 372.436 L187.134 372.412 L188.436 372.539 L188.436 372.559 L189.552 372.573 L189.552 372.558 L192.342 372.436 L193.086 372.471 L193.086 372.494 L193.086 372.514 L194.574 372.628 L194.574 372.668 L196.434 372.547 L196.434 372.535 L199.968 372.594 L199.968 372.603 L199.968 372.616 L202.386 372.544 L202.386 372.603 L203.688 372.714 L203.688 372.709 L205.176 372.572 L205.176 372.547 L205.734 372.615 L205.734 372.639 L210.57 372.442 L210.57 372.428 L210.942 372.293 L210.942 372.18 L211.128 372.038 L211.128 371.92 L211.314 371.819 L211.314 371.523 L211.5 371.373 L211.5 370.974 L211.686 370.692 L211.686 370.036 L211.872 369.558 L211.872 368.5 L212.058 367.829 L212.058 366.107 L212.244 365.324 L212.244 362.734 L212.43 361.244 L212.43 358.16 L212.616 355.801 L212.616 351.718 L212.802 349.193 L212.802 343.815 L212.988 341.463 L212.988 335.36 L213.174 332.59 L213.174 326.139 L213.36 322.626 L213.36 315.954 L213.546 312.058 L213.546 305.587 L213.732 302.117 L213.732 294.983 L213.918 292.257 L213.918 285.049 L214.104 281.579 L214.104 275.265 L214.29 271.29 L214.29 265.208 L214.476 261.812 L214.476 255.444 L214.662 252.93 L214.662 246.789 L214.848 243.983 L214.848 238.369 L215.034 235.376 L215.034 230.019 L215.22 227.179 L215.22 222.419 L215.406 220.027 L215.406 215.046 L215.592 213.125 L215.592 208.58 L215.778 206.365 L215.778 202.395 L215.964 200.127 L215.964 196.47 L216.15 194.594 L216.15 191.012 L216.336 189.649 L216.336 186.408 L216.522 185.036 L216.522 182.354 L216.708 180.897 L216.708 178.53 L216.894 177.231 L216.894 175.229 L217.08 174.364 L217.08 172.637 L217.266 172.032 L217.266 170.725 L217.452 170.156 L217.452 169.231 L217.638 168.56 L217.638 168.367 L218.01 168.218 L218.01 168.381 L218.196 168.532 L218.196 168.978 L218.382 169.424 L218.382 170.363 L218.568 170.96 L218.568 172.191 L218.754 172.764 L218.754 174.259 L218.94 174.963 L218.94 176.843 L219.126 177.988 L219.126 180.194 L219.312 181.573 L219.312 183.955 L219.498 185.202 L219.498 188.048 L219.684 189.181 L219.684 192.279 L219.87 193.776 L219.87 196.685 L220.056 198.4 L220.056 201.351 L220.242 203.089 L220.242 206.386 L220.428 207.886 L220.428 211.548 L220.614 213.031 L220.614 216.297 L220.8 218.112 L220.8 221.289 L220.986 223.185 L220.986 226.415 L221.172 228.01 L221.172 231.375 L221.358 232.587 L221.358 235.721 L221.544 237.232 L221.544 240.159 L221.73 242 L221.73 244.858 L221.916 246.457 L221.916 249.436 L222.102 250.592 L222.102 253.391 L222.288 254.649 L222.288 257.154 L222.474 258.486 L222.474 260.846 L222.66 262.076 L222.66 264.135 L222.846 265.168 L222.846 267.345 L223.032 268.214 L223.032 270.45 L223.218 271.469 L223.218 273.392 L223.404 274.514 L223.404 276.158 L223.59 277.052 L223.59 278.754 L223.776 279.417 L223.776 281.121 L223.962 281.846 L223.962 283.215 L224.148 284.09 L224.148 285.444 L224.334 286.211 L224.334 287.576 L224.52 288.18 L224.52 289.491 L224.706 290.003 L224.706 291.246 L224.892 291.895 L224.892 293.079 L225.078 293.754 L225.078 294.798 L225.264 295.308 L225.264 296.309 L225.45 296.691 L225.45 297.762 L225.636 298.265 L225.636 299.259 L225.822 299.841 L225.822 300.78 L226.008 301.301 L226.008 302.202 L226.194 302.594 L226.194 303.498 L226.38 303.852 L226.38 304.676 L226.566 305.116 L226.566 305.887 L226.752 306.336 L226.752 307.089 L226.938 307.472 L226.938 308.282 L227.124 308.591 L227.124 309.378 L227.31 309.733 L227.31 310.41 L227.496 310.806 L227.496 311.469 L227.682 311.84 L227.682 312.497 L227.868 312.772 L227.868 313.428 L228.054 313.688 L228.054 314.295 L228.24 314.634 L228.24 315.228 L228.426 315.585 L228.426 316.181 L228.612 316.478 L228.612 317.111 L228.798 317.337 L228.798 317.893 L228.984 318.152 L228.984 318.625 L229.17 318.879 L229.17 319.312 L229.356 319.563 L229.356 320.072 L229.542 320.317 L229.542 320.867 L229.728 321.089 L229.728 321.573 L229.914 321.819 L229.914 322.26 L230.1 322.679 L230.1 322.941 L230.286 323.165 L230.286 323.635 L230.472 323.818 L230.472 324.261 L230.658 324.438 L230.658 324.77 L230.844 325.03 L230.844 325.443 L231.03 325.663 L231.03 326.108 L231.216 326.245 L231.216 326.586 L231.402 326.754 L231.402 327.133 L231.588 327.346 L231.588 327.694 L231.774 327.989 L231.774 328.164 L231.96 328.305 L231.96 328.65 L232.146 328.803 L232.146 329.15 L232.332 329.332 L232.332 329.659 L232.518 329.975 L232.518 330.151 L232.704 330.451 L232.704 330.627 L232.89 330.761 L232.89 331.063 L233.076 331.195 L233.076 331.466 L233.262 331.74 L233.262 331.882 L233.448 332.148 L233.448 332.283 L233.634 332.517 L233.634 332.655 L233.82 332.747 L233.82 332.986 L234.006 333.236 L234.006 333.34 L234.192 333.593 L234.192 333.704 L234.378 333.904 L234.378 334.043 L234.564 334.124 L234.564 334.367 L234.75 334.505 L234.75 334.761 L234.936 335 L234.936 335.092 L235.122 335.241 L235.122 335.343 L235.308 335.511 L235.308 335.617 L235.494 335.826 L235.494 335.897 L235.68 336.089 L235.68 336.17 L235.866 336.36 L235.866 336.463 L236.052 336.614 L236.052 336.699 L236.238 336.814 L236.238 336.872 L236.424 337.037 L236.424 337.098 L236.61 337.287 L236.61 337.378 L236.982 337.665 L236.982 337.712 L237.168 337.813 L237.168 337.871 L237.354 338.08 L237.354 338.162 L237.726 338.43 L237.726 338.483 L237.912 338.616 L237.912 338.678 L238.098 338.839 L238.098 338.886 L238.47 339.128 L238.47 339.244 L238.842 339.455 L238.842 339.531 L239.028 339.679 L239.4 339.916 L239.4 340.045 L239.772 340.25 L239.772 340.335 L240.144 340.532 L240.144 340.571 L240.516 340.674 L240.516 340.821 L240.702 340.954 L241.26 341.253 L241.26 341.315 L241.632 341.55 L241.632 341.582 L242.004 341.761 L242.004 341.794 L242.376 341.955 L242.748 342.153 L242.748 342.239 L243.12 342.34 L243.12 342.395 L243.864 342.576 L243.864 342.631 L244.608 342.874 L244.608 342.918 L245.166 343.068 L245.166 343.099 L245.724 343.231 L245.724 343.28 L247.398 343.479 L247.398 343.442 L248.7 343.25 L248.7 343.227 L249.444 343.035 L249.444 342.97 L249.816 342.845 L249.816 342.763 L250.188 342.568 L250.188 342.494 L250.56 342.329 L250.56 342.222 L250.932 341.998 L250.932 341.917 L251.118 341.761 L251.118 341.691 L251.49 341.479 L251.49 341.395 L251.862 341.239 L251.862 341.079 L252.048 340.885 L252.048 340.812 L252.234 340.659 L252.234 340.602 L252.42 340.41 L252.42 340.325 L252.606 340.181 L252.606 340.101 L252.792 339.993 L252.978 339.852 L252.978 339.788 L253.164 339.604 L253.164 339.514 L253.35 339.332 L253.35 339.24 L253.536 339.108 L253.536 339.046 L253.722 338.9 L253.722 338.835 L253.908 338.706 L253.908 338.633 L254.28 338.341 L254.28 338.152 L254.466 338.002 L254.466 337.93 L254.652 337.713 L254.652 337.63 L254.838 337.446 L254.838 337.355 L255.024 337.214 L255.024 337.138 L255.21 336.995 L255.21 336.909 L255.396 336.75 L255.396 336.692 L255.582 336.549 L255.582 336.489 L255.768 336.36 L255.768 336.274 L255.954 336.116 L255.954 336.031 L256.14 335.858 L256.14 335.78 L256.326 335.605 L256.326 335.537 L256.698 335.242 L256.698 335.202 L256.884 335.124 L257.07 334.985 L257.07 334.918 L257.256 334.796 L257.256 334.73 L257.628 334.506 L257.628 334.365 L258 334.191 L258 334.164 L258.372 333.993 L258.372 333.935 L258.558 333.816 L259.116 333.59 L259.116 333.56 L260.79 333.485 L260.79 333.5 L260.79 333.518 L261.72 333.651 L262.278 333.822 L262.278 333.875 L263.208 334.168 L263.208 334.238 L263.952 334.491 L263.952 334.584 L265.44 334.77 L265.44 334.733 L265.998 334.725 L265.998 334.778 L266.37 334.735 L266.37 334.699 L266.37 334.661 L266.742 334.501 L266.742 334.462 L266.928 334.356 L266.928 334.303 L267.3 334.127 L267.486 333.975 L267.486 333.878 L267.672 333.725 L267.672 333.666 L268.044 333.471 L268.044 333.323 L268.23 333.147 L268.23 333.048 L268.416 332.902 L268.416 332.821 L268.602 332.649 L268.602 332.565 L268.788 332.397 L268.788 332.316 L268.974 332.121 L268.974 332.01 L269.16 331.782 L269.16 331.643 L269.346 331.563 L269.346 331.315 L269.532 331.195 L269.532 330.949 L269.718 330.692 L269.718 330.567 L269.904 330.329 L269.904 330.19 L270.09 330.081 L270.09 329.774 L270.276 329.639 L270.276 329.359 L270.462 329.039 L270.462 328.9 L270.648 328.573 L270.648 328.386 L270.834 328.229 L270.834 327.886 L271.02 327.772 L271.02 327.491 L271.206 327.359 L271.206 327.104 L271.392 326.797 L271.392 326.635 L271.578 326.309 L271.578 326.104 L271.764 325.968 L271.764 325.653 L271.95 325.5 L271.95 325.165 L272.136 324.963 L272.136 324.571 L272.322 324.233 L272.322 324.053 L272.508 323.779 L272.508 323.646 L272.694 323.538 L272.694 323.211 L272.88 323.06 L272.88 322.75 L273.066 322.372 L273.066 322.201 L273.252 322.028 L273.252 321.661 L273.438 321.542 L273.438 321.226 L273.624 321.075 L273.624 320.752 L273.81 320.555 L273.81 320.227 L273.996 319.906 L273.996 319.73 L274.182 319.589 L274.182 319.255 L274.368 319.115 L274.368 318.807 L274.554 318.625 L274.554 318.291 L274.74 317.97 L274.74 317.794 L274.926 317.514 L274.926 317.345 L275.112 317.222 L275.112 316.894 L275.298 316.73 L275.298 316.399 L275.484 316.087 L275.484 315.918 L275.67 315.588 L275.67 315.405 L275.856 315.252 L275.856 314.895 L276.042 314.76 L276.042 314.441 L276.228 314.28 L276.228 313.988 L276.414 313.658 L276.414 313.48 L276.6 313.315 L276.6 312.913 L276.786 312.772 L276.786 312.392 L276.972 312.195 L276.972 311.813 L277.158 311.581 L277.158 311.174 L277.344 310.782 L277.344 310.525 L277.53 310.344 L277.53 309.928 L277.716 309.738 L277.716 309.296 L277.902 309.045 L277.902 308.573 L278.088 308.082 L278.088 307.797 L278.274 307.551 L278.274 306.978 L278.46 306.754 L278.46 306.14 L278.646 305.834 L278.646 305.258 L278.832 304.92 L278.832 304.35 L279.018 304.014 L279.018 303.353 L279.204 303.056 L279.204 302.289 L279.39 301.945 L279.39 301.16 L279.576 300.704 L279.576 299.894 L279.762 299.386 L279.762 298.537 L279.948 298.108 L279.948 297.114 L280.134 296.738 L280.134 295.722 L280.32 295.194 L280.32 294.161 L280.506 293.507 L280.506 292.382 L280.692 291.767 L280.692 290.504 L280.878 289.99 L280.878 288.594 L281.064 287.952 L281.064 286.601 L281.25 285.779 L281.25 284.389 L281.436 283.56 L281.436 282.05 L281.622 281.309 L281.622 279.572 L281.808 278.864 L281.808 277.117 L281.994 276.167 L281.994 274.348 L282.18 273.243 L282.18 271.318 L282.366 270.302 L282.366 268.237 L282.552 267.39 L282.552 265.124 L282.738 264.067 L282.738 261.91 L282.924 260.569 L282.924 258.262 L283.11 256.895 L283.11 254.419 L283.296 253.274 L283.296 250.588 L283.482 249.491 L283.482 246.796 L283.668 245.349 L283.668 242.671 L283.854 241.016 L283.854 238.202 L284.04 236.726 L284.04 233.605 L284.226 232.426 L284.226 229.288 L284.412 227.817 L284.412 224.839 L284.598 223.015 L284.598 219.868 L284.784 218.042 L284.784 214.724 L284.97 213.234 L284.97 209.636 L285.156 208.144 L285.156 204.69 L285.342 202.807 L285.342 199.454 L285.528 197.341 L285.528 194.012 L285.714 192.174 L285.714 188.45 L285.9 187.029 L285.9 183.141 L286.086 181.295 L286.086 177.82 L286.272 175.604 L286.272 172.158 L286.458 170.166 L286.458 166.415 L286.644 164.845 L286.644 161.025 L286.83 159.399 L286.83 155.705 L287.016 153.75 L287.016 150.097 L287.202 148.004 L287.202 144.603 L287.388 142.807 L287.388 139.055 L287.574 137.602 L287.574 133.772 L287.76 131.925 L287.76 128.629 L287.946 126.546 L287.946 123.238 L288.132 121.463 L288.132 118.037 L288.318 116.65 L288.318 113.085 L288.504 111.543 L288.504 108.399 L288.69 106.593 L288.69 103.631 L288.876 101.904 L288.876 98.8918 L289.062 97.4437 L289.062 94.3099 L289.248 93.1309 L289.248 90.3689 L289.434 89.0069 L289.434 86.4551 L289.62 84.9259 L289.62 82.3584 L289.806 81.0461 L289.806 78.5597 L289.992 77.6374 L289.992 75.2512 L290.178 74.1741 L290.178 71.956 L290.364 70.7389 L290.364 68.7932 L290.55 67.7193 L290.55 66.1007 L290.736 65.3779 L290.736 63.6226 L290.922 62.9271 L290.922 61.2671 L291.108 60.4143 L291.108 59.0051 L291.294 58.2773 L291.294 57.1298 L291.48 56.527 L291.48 55.4573 L291.666 55.0541 L291.666 54.1632 L291.852 53.8593 L291.852 53.2698 L292.038 52.9767 L292.038 52.5263 L292.224 52.1422 L292.224 51.9244 L292.41 51.753 L292.41 51.4293 L292.782 51.2447 L292.782 51.3258 L292.968 51.5295 L292.968 51.7522 L293.154 51.9815 L293.154 52.7143 L293.34 53.0529 L293.34 53.9123 L293.526 54.299 L293.526 54.9796 L293.712 55.4316 L293.712 56.2894 L293.898 56.8516 L293.898 58.096 L294.084 58.6656 L294.084 60.0276 L294.27 60.5881 L294.27 61.9228 L294.456 62.7897 L294.456 64.4654 L294.642 65.5244 L294.642 67.389 L294.828 68.2931 L294.828 70.2843 L295.014 71.0353 L295.014 73.188 L295.2 74.2941 L295.2 76.4443 L295.386 77.7194 L295.386 79.8182 L295.572 80.984 L295.572 83.3147 L295.758 84.3761 L295.758 87.2657 L295.944 88.578 L295.944 91.3616 L296.13 92.933 L296.13 95.585 L296.316 97.1755 L296.316 99.9781 L296.502 101.383 L296.502 104.584 L296.688 105.814 L296.688 108.858 L296.874 110.371 L296.874 113.23 L297.06 115.021 L297.06 118.172 L297.246 119.912 L297.246 123.341 L297.432 124.716 L297.432 128.159 L297.618 129.683 L297.618 132.946 L297.804 134.875 L297.804 138.176 L297.99 140.11 L297.99 143.302 L298.176 144.809 L298.176 148.318 L298.362 149.711 L298.362 153.298 L298.548 155.196 L298.548 158.712 L298.734 160.75 L298.734 164.097 L298.92 165.845 L298.92 169.309 L299.106 170.714 L299.106 174.353 L299.292 175.984 L299.292 179.241 L299.478 181.13 L299.478 184.29 L299.664 186.139 L299.664 189.457 L299.85 191.027 L299.85 194.598 L300.036 196.01 L300.036 199.351 L300.222 201.085 L300.222 204.26 L300.408 206.133 L300.408 209.21 L300.594 210.778 L300.594 213.936 L300.78 215.14 L300.78 218.288 L300.966 219.748 L300.966 222.693 L301.152 224.464 L301.152 227.448 L301.338 229.108 L301.338 232.056 L301.524 233.271 L301.524 236.164 L301.71 237.381 L301.71 240.217 L301.896 241.64 L301.896 244.29 L302.082 245.79 L302.082 248.24 L302.268 249.592 L302.268 252.307 L302.454 253.349 L302.454 256.097 L302.64 257.342 L302.64 259.611 L302.826 261.063 L302.826 263.281 L303.012 264.552 L303.012 266.91 L303.198 267.86 L303.198 270.081 L303.384 271.022 L303.384 273.233 L303.57 274.383 L303.57 276.569 L303.756 277.822 L303.756 279.813 L303.942 280.774 L303.942 282.837 L304.128 283.607 L304.128 285.575 L304.314 286.53 L304.314 288.317 L304.5 289.368 L304.5 291.043 L304.686 291.925 L304.686 293.63 L304.872 294.327 L304.872 296.054 L305.058 296.826 L305.058 298.427 L305.244 299.33 L305.244 300.838 L305.43 301.686 L305.43 303.074 L305.616 303.735 L305.616 305.197 L305.802 305.786 L305.802 307.162 L305.988 307.841 L305.988 309.091 L306.174 309.842 L306.174 311.097 L306.36 311.748 L306.36 313.02 L306.546 313.509 L306.546 314.675 L306.732 315.2 L306.732 316.27 L306.918 316.887 L306.918 317.947 L307.104 318.545 L307.104 319.484 L307.29 319.896 L307.29 320.871 L307.476 321.264 L307.476 322.225 L307.662 322.739 L307.662 323.637 L307.848 324.134 L307.848 324.918 L308.034 325.309 L308.034 326.102 L308.22 326.416 L308.22 327.213 L308.406 327.577 L308.406 328.272 L308.592 328.663 L308.592 329.326 L308.778 329.71 L308.778 330.352 L308.964 330.629 L308.964 331.252 L309.15 331.483 L309.15 332.048 L309.336 332.376 L309.336 332.97 L309.522 333.305 L309.522 333.849 L309.708 334.115 L309.708 334.612 L309.894 334.796 L309.894 335.319 L310.08 335.543 L310.08 335.972 L310.266 336.416 L310.266 336.606 L310.452 336.964 L310.452 337.172 L310.638 337.322 L310.638 337.737 L310.824 337.905 L310.824 338.272 L311.01 338.464 L311.01 338.755 L311.196 339.042 L311.196 339.211 L311.382 339.491 L311.382 339.639 L311.568 339.728 L311.568 340.019 L311.754 340.151 L311.754 340.412 L311.94 340.656 L311.94 340.75 L312.126 340.917 L312.126 341.023 L312.312 341.104 L312.312 341.367 L312.498 341.485 L312.498 341.721 L312.87 342.027 L312.87 342.193 L313.056 342.407 L313.056 342.524 L313.242 342.662 L313.242 342.723 L313.614 342.938 L313.614 343.013 L313.8 343.162 L313.986 343.279 L313.986 343.339 L314.358 343.57 L314.358 343.673 L315.102 343.972 L315.102 344.052 L316.962 344.414 L316.962 344.452 L317.334 344.429 L317.334 344.404 L317.334 344.382 L317.892 344.471 L317.892 344.474 L317.892 344.474 L317.892 344.474 L317.892 344.456 L319.752 344.419 L319.752 344.426 L319.752 344.438 L321.054 344.463 L321.054 344.431 L323.1 344.414 L323.1 344.449 L323.1 344.482 L323.472 344.482 L323.472 344.439 L324.588 344.434 L324.588 344.445 L325.146 344.442 L325.146 344.41 L326.448 344.145 L326.448 344.082 L326.634 343.982 L326.634 343.925 L327.378 343.675 L328.122 343.375 L328.122 343.356 L328.494 343.219 L328.494 343.121 L328.68 343.009 L328.68 342.942 L328.866 342.818 L328.866 342.757 L329.052 342.593 L329.238 342.437 L329.238 342.364 L329.424 342.223 L329.424 342.153 L329.982 341.917 L329.982 341.858 L330.168 341.695 L330.168 341.603 L330.354 341.45 L330.354 341.373 L330.54 341.258 L330.54 341.197 L330.726 341.058 L330.726 340.997 L330.912 340.853 L330.912 340.793 L331.284 340.57 L331.284 340.435 L331.47 340.296 L331.47 340.231 L331.656 340.06 L331.656 339.993 L331.842 339.819 L331.842 339.727 L332.028 339.576 L332.028 339.49 L332.214 339.342 L332.214 339.253 L332.4 339.077 L332.4 339.006 L332.586 338.843 L332.586 338.782 L332.772 338.644 L332.772 338.565 L332.958 338.418 L332.958 338.333 L333.144 338.152 L333.144 338.064 L333.33 337.889 L333.33 337.824 L333.702 337.558 L333.702 337.413 L333.888 337.258 L333.888 337.18 L334.074 337.037 L334.074 336.965 L334.26 336.748 L334.26 336.655 L334.446 336.467 L334.446 336.368 L334.632 336.239 L334.632 336.162 L334.818 335.998 L334.818 335.922 L335.004 335.741 L335.004 335.662 L335.19 335.499 L335.19 335.399 L335.376 335.208 L335.376 335.109 L335.562 334.957 L335.562 334.893 L335.748 334.759 L335.748 334.699 L335.934 334.504 L335.934 334.405 L336.12 334.222 L336.12 334.116 L336.306 333.984 L336.306 333.914 L336.492 333.741 L336.492 333.666 L336.678 333.498 L336.678 333.416 L336.864 333.257 L336.864 333.173 L337.05 333 L337.05 332.889 L337.236 332.715 L337.236 332.637 L337.422 332.477 L337.422 332.429 L337.608 332.307 L337.608 332.239 L337.794 332.104 L337.794 332.018 L337.98 331.883 L337.98 331.815 L338.166 331.675 L338.166 331.624 L338.352 331.487 L338.352 331.421 L338.538 331.287 L338.538 331.194 L338.724 331.048 L338.724 330.989 L339.096 330.794 L339.096 330.699 L339.468 330.462 L339.468 330.344 L339.654 330.191 L339.84 330.066 L339.84 330.014 L340.398 329.796 L340.398 329.681 L342.072 329.306 L342.072 329.343 L342.072 329.383 L342.63 329.486 L342.63 329.547 L342.816 329.663 L343.188 329.862 L343.188 329.936 L343.56 330.103 L343.56 330.21 L343.746 330.348 L343.746 330.438 L343.932 330.612 L343.932 330.672 L344.118 330.848 L344.118 330.912 L344.304 331.055 L344.304 331.146 L344.49 331.282 L344.49 331.368 L344.676 331.52 L344.676 331.589 L344.862 331.796 L344.862 331.88 L345.048 332.129 L345.048 332.257 L345.234 332.467 L345.234 332.605 L345.42 332.812 L345.42 332.924 L345.606 333.029 L345.606 333.232 L345.792 333.511 L345.792 333.644 L345.978 333.908 L345.978 334.06 L346.164 334.265 L346.164 334.379 L346.35 334.468 L346.35 334.728 L346.536 334.872 L346.536 335.155 L346.722 335.458 L346.722 335.593 L346.908 335.819 L346.908 335.974 L347.094 336.084 L347.094 336.368 L347.28 336.522 L347.28 336.829 L347.466 337.149 L347.466 337.297 L347.652 337.578 L347.652 337.726 L347.838 337.967 L347.838 338.12 L348.024 338.225 L348.024 338.509 L348.21 338.668 L348.21 338.95 L348.396 339.223 L348.396 339.38 L348.582 339.655 L348.582 339.808 L348.768 339.919 L348.768 340.218 L348.954 340.347 L348.954 340.62 L349.14 340.804 L349.14 341.107 L349.326 341.36 L349.326 341.545 L349.512 341.804 L349.512 341.954 L349.698 342.086 L349.698 342.39 L349.884 342.549 L349.884 342.856 L350.07 343.135 L350.07 343.279 L350.256 343.519 L350.256 343.667 L350.442 343.783 L350.442 344.14 L350.628 344.307 L350.628 344.603 L350.814 344.912 L350.814 345.05 L351 345.303 L351 345.462 L351.186 345.703 L351.186 345.839 L351.372 345.95 L351.372 346.245 L351.558 346.392 L351.558 346.672 L351.744 346.921 L351.744 347.052 L351.93 347.277 L351.93 347.415 L352.116 347.635 L352.116 347.732 L352.302 347.845 L352.302 348.062 L352.488 348.306 L352.488 348.433 L352.674 348.649 L352.674 348.786 L352.86 349.004 L352.86 349.127 L353.046 349.238 L353.046 349.453 L353.232 349.671 L353.232 349.76 L353.418 349.949 L353.418 350.073 L353.604 350.268 L353.604 350.37 L353.79 350.537 L353.79 350.607 L353.976 350.769 L353.976 350.844 L354.162 351.022 L354.162 351.108 L354.348 351.253 L354.348 351.342 L354.534 351.484 L354.534 351.561 L354.72 351.75 L354.72 351.826 L354.906 352.003 L354.906 352.091 L355.092 352.264 L355.092 352.346 L355.278 352.494 L355.278 352.584 L355.464 352.74 L355.65 352.883 L355.65 352.932 L355.836 353.079 L355.836 353.168 L356.022 353.32 L356.022 353.4 L356.208 353.526 L356.208 353.591 L356.394 353.726 L356.394 353.779 L356.766 354.009 L356.766 354.121 L356.952 354.246 L356.952 354.309 L357.138 354.438 L357.138 354.492 L357.51 354.686 L357.51 354.763 L357.696 354.862 L357.696 354.932 L358.068 355.123 L358.068 355.22 L358.44 355.43 L358.44 355.533 L358.626 355.641 L358.626 355.701 L358.998 355.877 L358.998 355.895 L359.37 356.036 L359.37 356.15 L359.556 356.259 L359.556 356.316 L359.928 356.527 L359.928 356.628 L360.3 356.845 L360.3 356.88 L360.672 357.016 L361.23 357.215 L361.23 357.288 L361.788 357.5 L361.788 357.546 L362.346 357.704 L362.346 357.767 L363.276 358.035 L363.276 358.113 L364.206 358.385 L364.206 358.406 L364.764 358.544 L364.764 358.591 L365.322 358.712 L365.322 358.74 L365.88 358.814 L365.88 358.842 L366.252 358.986 L366.252 359.008 L371.46 359.961 L371.46 360.003 L372.576 360.198 L372.576 360.235 L376.11 360.801 L376.11 360.826 L377.412 361.055 L377.412 361.085 L378.342 361.224 L378.342 361.253 L380.388 361.27 L380.388 361.25 L380.946 361.096 L380.946 361.087 L382.062 360.965 L382.062 360.957 L382.62 360.791 L382.62 360.742 L383.178 360.588 L383.178 360.554 L383.55 360.394 L383.55 360.36 L384.108 360.166 L384.108 360.134 L384.666 359.978 L384.666 359.924 L384.852 359.779 L385.224 359.571 L385.224 359.519 L385.596 359.366 L385.596 359.314 L386.154 359.079 L386.154 358.999 L386.526 358.8 L386.526 358.671 L386.712 358.518 L386.712 358.432 L387.084 358.207 L387.084 358.101 L387.456 357.939 L387.456 357.899 L387.642 357.769 L387.642 357.69 L387.828 357.505 L387.828 357.433 L388.014 357.275 L388.014 357.214 L388.386 356.977 L388.386 356.928 L388.758 356.741 L388.758 356.642 L388.944 356.517 L388.944 356.437 L389.13 356.283 L389.13 356.189 L389.316 356.039 L389.316 355.964 L389.688 355.731 L389.688 355.629 L390.06 355.411 L390.06 355.281 L390.246 355.133 L390.246 355.068 L390.432 354.878 L390.432 354.796 L390.618 354.629 L390.618 354.542 L390.99 354.326 L390.99 354.174 L391.176 354.001 L391.176 353.913 L391.362 353.717 L391.362 353.633 L391.548 353.479 L391.548 353.412 L391.734 353.306 L391.734 353.245 L391.92 353.13 L391.92 353.07 L392.292 352.827 L392.292 352.701 L392.478 352.557 L392.478 352.467 L392.664 352.337 L392.664 352.262 L392.85 352.095 L392.85 352.025 L393.036 351.83 L393.036 351.766 L393.222 351.654 L393.222 351.561 L393.594 351.341 L393.594 351.222 L393.78 351.065 L393.966 350.954 L393.966 350.864 L394.152 350.698 L394.152 350.599 L394.338 350.424 L394.338 350.358 L394.71 350.16 L394.71 350.07 L395.082 349.852 L395.082 349.76 L395.268 349.65 L395.268 349.597 L395.454 349.475 L395.454 349.406 L396.012 349.053 L396.012 349.019 L396.384 348.811 L396.384 348.695 L396.756 348.494 L396.756 348.404 L396.942 348.255 L397.128 348.106 L397.128 348.034 L397.5 347.807 L397.5 347.771 L398.058 347.557 L398.058 347.514 L398.43 347.373 L398.43 347.306 L399.174 347.089 L399.174 347.04 L401.034 346.7 L401.034 346.7 L401.592 346.8 L401.592 346.825 L401.964 346.909 L401.964 346.989 L402.708 347.126 L402.708 347.234 L403.08 347.427 L403.08 347.465 L403.266 347.556 L403.266 347.63 L403.452 347.777 L403.824 347.949 L403.824 347.995 L404.196 348.196 L404.196 348.254 L404.568 348.368 L404.568 348.474 L404.94 348.722 L404.94 348.848 L405.126 348.981 L405.312 349.159 L405.684 349.415 L405.684 349.545 L405.87 349.677 L405.87 349.755 L406.242 349.987 L406.242 350.079 L406.428 350.194 L406.428 350.277 L406.614 350.438 L406.614 350.531 L406.8 350.671 L406.8 350.726 L406.986 350.866 L406.986 350.93 L407.172 351.11 L407.172 351.19 L407.358 351.32 L407.358 351.394 L407.544 351.49 L407.544 351.556 L407.73 351.753 L407.73 351.834 L407.916 352.03 L407.916 352.11 L408.102 352.244 L408.102 352.339 L408.288 352.491 L408.288 352.571 L408.474 352.762 L408.474 352.84 L408.66 352.992 L408.66 353.067 L409.032 353.348 L409.032 353.516 L409.218 353.655 L409.218 353.717 L409.404 353.858 L409.404 353.9 L409.59 354.041 L409.59 354.126 L409.776 354.288 L409.776 354.383 L409.962 354.537 L409.962 354.616 L410.148 354.779 L410.334 354.926 L410.334 355.005 L410.52 355.195 L410.52 355.315 L410.706 355.507 L410.706 355.609 L410.892 355.744 L410.892 355.801 L411.078 355.938 L411.078 355.989 L411.264 356.147 L411.264 356.229 L411.45 356.373 L411.45 356.468 L411.822 356.695 L411.822 356.825 L412.008 356.924 L412.008 356.995 L412.194 357.138 L412.194 357.219 L412.38 357.377 L412.38 357.466 L412.566 357.605 L412.566 357.675 L412.752 357.85 L412.752 357.928 L412.938 358.102 L412.938 358.171 L413.124 358.284 L413.124 358.364 L413.31 358.489 L413.31 358.562 L413.496 358.714 L413.496 358.761 L413.868 358.989 L413.868 359.097 L414.054 359.227 L414.054 359.311 L414.426 359.54 L414.426 359.628 L414.798 359.831 L414.798 359.942 L415.17 360.139 L415.17 360.24 L415.356 360.409 L415.728 360.634 L415.728 360.772 L416.1 360.947 L416.1 361.047 L416.472 361.245 L416.472 361.324 L416.844 361.47 L416.844 361.529 L417.216 361.699 L417.216 361.826 L417.774 362.123 L417.774 362.177 L419.262 362.803 L419.262 362.837 L420.564 362.945 L421.494 362.888 L421.494 362.87 L424.098 362.862 L424.098 362.846 L424.098 362.826 L427.26 362.48 L427.26 362.415 L428.19 362.217 L428.19 362.148 L429.12 361.927 L429.12 361.844 L430.236 361.566 L430.608 361.386 L430.608 361.332 L432.468 360.859 L432.468 360.827 L433.026 360.68 L433.026 360.64 L434.328 360.465 L434.328 360.448 L435.258 360.31 L436.002 360.142 L436.002 360.113 L437.304 359.925 L437.304 359.894 L438.606 360.083 L438.606 360.144 L439.536 360.292 L439.536 360.351 L440.28 360.515 L440.28 360.577 L441.024 360.82 L441.024 360.868 L441.396 361.08 L441.396 361.109 L441.768 361.209 L441.768 361.266 L442.326 361.39 L442.326 361.46 L442.698 361.609 L442.698 361.655 L444.558 362.24 L444.558 362.254 L445.86 362.446 L445.86 362.458 L447.162 362.753 L447.162 362.766 L448.836 362.948 L448.836 362.986 L449.952 363.149 L449.952 363.177 L451.998 363.57 L451.998 363.565 L452.37 363.461 L453.114 363.263 L453.672 363.063 L453.672 363.04 L454.044 362.928 L454.044 362.875 L454.416 362.718 L454.416 362.683 L455.16 362.471 L455.16 362.404 L455.718 362.206 L455.718 362.137 L456.09 361.913 L456.09 361.875 L456.834 361.691 L456.834 361.684 L457.95 361.719 L457.95 361.722 L457.95 361.73 L458.322 361.777 L458.322 361.811 L460.368 361.778 L460.368 361.648 L460.554 361.515 L460.554 361.46 L460.74 361.32 L460.74 361.254 L461.298 361.038 L461.298 360.907 L461.484 360.781 L461.484 360.705 L461.67 360.545 L461.67 360.481 L462.042 360.234 L462.042 360.116 L462.786 359.859 L462.786 359.714 L462.972 359.559 L462.972 359.477 L463.716 359.262 L464.088 359.382 L464.088 359.443 L464.646 359.608 L464.646 359.717 L464.832 359.873 L464.832 359.941 L465.018 360.123 L465.018 360.23 L465.204 360.417 L465.204 360.525 L465.39 360.718 L465.39 360.841 L465.576 360.935 L465.576 361.178 L465.762 361.432 L465.762 361.532 L465.948 361.798 L465.948 361.927 L466.134 362.178 L466.134 362.327 L466.32 362.411 L466.32 362.718 L466.506 362.87 L466.506 363.158 L466.692 363.441 L466.692 363.557 L466.878 363.765 L466.878 363.915 L467.064 364.155 L467.064 364.286 L467.25 364.391 L467.25 364.638 L467.436 364.872 L467.436 364.99 L467.622 365.231 L467.622 365.368 L467.808 365.623 L467.808 365.762 L467.994 365.86 L467.994 366.093 L468.18 366.304 L468.18 366.374 L468.366 366.556 L468.366 366.638 L468.552 366.788 L468.552 366.898 L468.738 367.062 L468.738 367.148 L468.924 367.331 L468.924 367.391 L469.11 367.541 L469.11 367.618 L469.296 367.758 L469.296 367.842 L469.482 367.996 L469.482 368.082 L469.668 368.228 L469.668 368.284 L470.04 368.506 L470.04 368.554 L470.412 368.722 L470.412 368.804 L471.156 368.959 L471.9 369.203 L471.9 369.218 L472.83 369.401 L472.83 369.425 L473.574 369.537 L474.876 369.762 L474.876 369.798 L478.224 369.997 L478.224 369.97 L480.456 369.769 L480.456 369.732 L481.2 369.602 L481.2 369.59 L482.13 369.468 L482.502 369.321 L482.502 369.295 L483.246 369.143 L485.106 368.774 L485.106 368.727 L487.338 368.616 L487.338 368.62 L489.942 368.885 L489.942 368.923 L491.616 369.242 L491.616 369.257 L493.476 369.492 L496.824 370.003 L496.824 369.999 L497.382 370.006 L497.382 370.031 L497.382 370.052 L500.358 370.276 L500.358 370.262 L501.474 370.192 L501.474 370.182 L504.636 369.753 L504.636 369.715 L507.798 369.52 L507.798 369.526 L511.518 369.754 L511.518 369.776 L512.076 369.819 L512.076 369.849 L514.308 370.147 L515.052 370.319 L515.052 370.329 L515.238 370.325 L515.238 370.341"
           style="fill:none;stroke:#0000ff;stroke-linecap:square;stroke-width:1.5;"
           id="path17" />
      </g>
      <g
         id="line2d_2">
        <path
           clip-path="url(#p7ff5b81e1d)"
           d=" M212.244 366.336 L212.244 388.8"
           style="fill:none;stroke:#ff0000;stroke-linecap:square;stroke-width:0.85;"
           id="path20" />
      </g>
      <g
         id="line2d_3">
        <path
           clip-path="url(#p7ff5b81e1d)"
           d=" M221.544 366.336 L221.544 388.8"
           style="fill:none;stroke:#ff0000;stroke-linecap:square;stroke-width:0.85;"
           id="path23" />
      </g>
      <g
         id="line2d_4">
        <path
           clip-path="url(#p7ff5b81e1d)"
           d=" M230.844 366.336 L230.844 388.8"
           style="fill:none;stroke:#ff0000;stroke-linecap:square;stroke-width:0.85;"
           id="path26" />
      </g>
      <g
         id="line2d_5">
        <path
           clip-path="url(#p7ff5b81e1d)"
           d=" M240.144 366.336 L240.144 388.8"
           style="fill:none;stroke:#ff0000;stroke-linecap:square;stroke-width:0.85;"
           id="path29" />
      </g>
      <g
         id="line2d_6">
        <path
           clip-path="url(#p7ff5b81e1d)"
           d=" M249.444 366.336 L249.444 388.8"
           style="fill:none;stroke:#ff0000;stroke-linecap:square;stroke-width:0.85;"
           id="path32" />
      </g>
      <g
         id="line2d_7">
        <path
           clip-path="url(#p7ff5b81e1d)"
           d=" M258.744 366.336 L258.744 388.8"
           style="fill:none;stroke:#ff0000;stroke-linecap:square;stroke-width:0.85;"
           id="path35" />
      </g>
      <g
         id="line2d_8">
        <path
           clip-path="url(#p7ff5b81e1d)"
           d=" M268.044 366.336 L268.044 388.8"
           style="fill:none;stroke:#ff0000;stroke-linecap:square;stroke-width:0.85;"
           id="path38" />
      </g>
      <g
         id="line2d_9">
        <path
           clip-path="url(#p7ff5b81e1d)"
           d=" M277.344 366.336 L277.344 388.8"
           style="fill:none;stroke:#ff0000;stroke-linecap:square;stroke-width:0.85;"
           id="path41" />
      </g>
      <g
         id="line2d_10">
        <path
           clip-path="url(#p7ff5b81e1d)"
           d=" M286.644 366.336 L286.644 388.8"
           style="fill:none;stroke:#ff0000;stroke-linecap:square;stroke-width:0.85;"
           id="path44" />
      </g>
      <g
         id="line2d_11">
        <path
           clip-path="url(#p7ff5b81e1d)"
           d=" M295.944 366.336 L295.944 388.8"
           style="fill:none;stroke:#ff0000;stroke-linecap:square;stroke-width:0.85;"
           id="path47" />
      </g>
      <g
         id="line2d_12">
        <path
           clip-path="url(#p7ff5b81e1d)"
           d=" M305.244 366.336 L305.244 388.8"
           style="fill:none;stroke:#ff0000;stroke-linecap:square;stroke-width:0.85;"
           id="path50" />
      </g>
      <g
         id="line2d_13">
        <path
           clip-path="url(#p7ff5b81e1d)"
           d=" M314.544 366.336 L314.544 388.8"
           style="fill:none;stroke:#ff0000;stroke-linecap:square;stroke-width:0.85;"
           id="path53" />
      </g>
      <g
         id="line2d_14">
        <path
           clip-path="url(#p7ff5b81e1d)"
           d=" M323.658 366.336 L323.658 388.8"
           style="fill:none;stroke:#ff0000;stroke-linecap:square;stroke-width:0.85;"
           id="path56" />
      </g>
      <g
         id="line2d_15">
        <path
           clip-path="url(#p7ff5b81e1d)"
           d=" M332.958 366.336 L332.958 388.8"
           style="fill:none;stroke:#ff0000;stroke-linecap:square;stroke-width:0.85;"
           id="path59" />
      </g>
      <g
         id="line2d_16">
        <path
           clip-path="url(#p7ff5b81e1d)"
           d=" M342.258 366.336 L342.258 388.8"
           style="fill:none;stroke:#ff0000;stroke-linecap:square;stroke-width:0.85;"
           id="path62" />
      </g>
      <g
         id="line2d_17">
        <path
           clip-path="url(#p7ff5b81e1d)"
           d=" M351.558 366.336 L351.558 388.8"
           style="fill:none;stroke:#ff0000;stroke-linecap:square;stroke-width:0.85;"
           id="path65" />
      </g>
      <g
         id="line2d_18">
        <path
           clip-path="url(#p7ff5b81e1d)"
           d=" M360.858 366.336 L360.858 388.8"
           style="fill:none;stroke:#ff0000;stroke-linecap:square;stroke-width:0.85;"
           id="path68" />
      </g>
      <g
         id="line2d_19">
        <path
           clip-path="url(#p7ff5b81e1d)"
           d=" M362.718 366.336 L362.718 388.8"
           style="fill:none;stroke:#ff0000;stroke-linecap:square;stroke-width:0.85;"
           id="path71" />
      </g>
      <g
         id="matplotlib.axis_1">
        <g
           id="xtick_1">
          <g
             id="line2d_20">
            <defs
               id="defs76">
              <path
                 d=" M0 0 L0 6"
                 id="m041f95ef2b"
                 style="stroke:#000000;stroke-width:0.5;" />
            </defs>
            <g
               id="g79">
              <use
                 style="stroke:#000000;stroke-width:0.5;"
                 x="72.0"
                 xlink:href="#m041f95ef2b"
                 y="388.8"
                 id="use81" />
            </g>
          </g>
          <g
             id="text_1">
            <!-- 0 -->
            <defs
               id="defs84">
              <path
                 d=" M31.7812 66.4062 Q24.1719 66.4062 20.3281 58.9062 Q16.5 51.4219 16.5 36.375 Q16.5 21.3906 20.3281 13.8906 Q24.1719 6.39062 31.7812 6.39062 Q39.4531 6.39062 43.2812 13.8906 Q47.125 21.3906 47.125 36.375 Q47.125 51.4219 43.2812 58.9062 Q39.4531 66.4062 31.7812 66.4062 M31.7812 74.2188 Q44.0469 74.2188 50.5156 64.5156 Q56.9844 54.8281 56.9844 36.375 Q56.9844 17.9688 50.5156 8.26562 Q44.0469 -1.42188 31.7812 -1.42188 Q19.5312 -1.42188 13.0625 8.26562 Q6.59375 17.9688 6.59375 36.375 Q6.59375 54.8281 13.0625 64.5156 Q19.5312 74.2188 31.7812 74.2188"
                 id="BitstreamVeraSans-Roman-30" />
            </defs>
            <g
               transform="translate(68.9765625 405.918125)scale(0.12 -0.12)"
               id="g87">
              <use
                 xlink:href="#BitstreamVeraSans-Roman-30"
                 id="use89" />
            </g>
          </g>
        </g>
        <g
           id="xtick_2">
          <g
             id="line2d_21">
            <g
               id="g93">
              <use
                 style="stroke:#000000;stroke-width:0.5;"
                 x="165.0"
                 xlink:href="#m041f95ef2b"
                 y="388.8"
                 id="use95" />
            </g>
          </g>
          <g
             id="text_2">
            <!-- 5 -->
            <defs
               id="defs98">
              <path
                 d=" M10.7969 72.9062 L49.5156 72.9062 L49.5156 64.5938 L19.8281 64.5938 L19.8281 46.7344 Q21.9688 47.4688 24.1094 47.8281 Q26.2656 48.1875 28.4219 48.1875 Q40.625 48.1875 47.75 41.5 Q54.8906 34.8125 54.8906 23.3906 Q54.8906 11.625 47.5625 5.09375 Q40.2344 -1.42188 26.9062 -1.42188 Q22.3125 -1.42188 17.5469 -0.640625 Q12.7969 0.140625 7.71875 1.70312 L7.71875 11.625 Q12.1094 9.23438 16.7969 8.0625 Q21.4844 6.89062 26.7031 6.89062 Q35.1562 6.89062 40.0781 11.3281 Q45.0156 15.7656 45.0156 23.3906 Q45.0156 31 40.0781 35.4375 Q35.1562 39.8906 26.7031 39.8906 Q22.75 39.8906 18.8125 39.0156 Q14.8906 38.1406 10.7969 36.2812 z "
                 id="BitstreamVeraSans-Roman-35" />
            </defs>
            <g
               transform="translate(162.1696875 405.918125)scale(0.12 -0.12)"
               id="g101">
              <use
                 xlink:href="#BitstreamVeraSans-Roman-35"
                 id="use103" />
            </g>
          </g>
        </g>
        <g
           id="xtick_3">
          <g
             id="line2d_22">
            <g
               id="g107">
              <use
                 style="stroke:#000000;stroke-width:0.5;"
                 x="258.0"
                 xlink:href="#m041f95ef2b"
                 y="388.8"
                 id="use109" />
            </g>
          </g>
          <g
             id="text_3">
            <!-- 10 -->
            <defs
               id="defs112">
              <path
                 d=" M12.4062 8.29688 L28.5156 8.29688 L28.5156 63.9219 L10.9844 60.4062 L10.9844 69.3906 L28.4219 72.9062 L38.2812 72.9062 L38.2812 8.29688 L54.3906 8.29688 L54.3906 0 L12.4062 0 z "
                 id="BitstreamVeraSans-Roman-31" />
            </defs>
            <g
               transform="translate(251.4225 405.918125)scale(0.12 -0.12)"
               id="g115">
              <use
                 xlink:href="#BitstreamVeraSans-Roman-31"
                 id="use117" />
              <use
                 x="63.623046875"
                 xlink:href="#BitstreamVeraSans-Roman-30"
                 id="use119" />
            </g>
          </g>
        </g>
        <g
           id="xtick_4">
          <g
             id="line2d_23">
            <g
               id="g123">
              <use
                 style="stroke:#000000;stroke-width:0.5;"
                 x="351.0"
                 xlink:href="#m041f95ef2b"
                 y="388.8"
                 id="use125" />
            </g>
          </g>
          <g
             id="text_4">
            <!-- 15 -->
            <g
               transform="translate(344.548125 405.918125)scale(0.12 -0.12)"
               id="g128">
              <use
                 xlink:href="#BitstreamVeraSans-Roman-31"
                 id="use130" />
              <use
                 x="63.623046875"
                 xlink:href="#BitstreamVeraSans-Roman-35"
                 id="use132" />
            </g>
          </g>
        </g>
        <g
           id="xtick_5">
          <g
             id="line2d_24">
            <g
               id="g136">
              <use
                 style="stroke:#000000;stroke-width:0.5;"
                 x="444.0"
                 xlink:href="#m041f95ef2b"
                 y="388.8"
                 id="use138" />
            </g>
          </g>
          <g
             id="text_5">
            <!-- 20 -->
            <defs
               id="defs141">
              <path
                 d=" M19.1875 8.29688 L53.6094 8.29688 L53.6094 0 L7.32812 0 L7.32812 8.29688 Q12.9375 14.1094 22.625 23.8906 Q32.3281 33.6875 34.8125 36.5312 Q39.5469 41.8438 41.4219 45.5312 Q43.3125 49.2188 43.3125 52.7812 Q43.3125 58.5938 39.2344 62.25 Q35.1562 65.9219 28.6094 65.9219 Q23.9688 65.9219 18.8125 64.3125 Q13.6719 62.7031 7.8125 59.4219 L7.8125 69.3906 Q13.7656 71.7812 18.9375 73 Q24.125 74.2188 28.4219 74.2188 Q39.75 74.2188 46.4844 68.5469 Q53.2188 62.8906 53.2188 53.4219 Q53.2188 48.9219 51.5312 44.8906 Q49.8594 40.875 45.4062 35.4062 Q44.1875 33.9844 37.6406 27.2188 Q31.1094 20.4531 19.1875 8.29688"
                 id="BitstreamVeraSans-Roman-32" />
            </defs>
            <g
               transform="translate(437.203125 405.918125)scale(0.12 -0.12)"
               id="g144">
              <use
                 xlink:href="#BitstreamVeraSans-Roman-32"
                 id="use146" />
              <use
                 x="63.623046875"
                 xlink:href="#BitstreamVeraSans-Roman-30"
                 id="use148" />
            </g>
          </g>
        </g>
        <g
           id="xtick_6">
          <g
             id="line2d_25">
            <defs
               id="defs152">
              <path
                 d=" M0 0 L0 4"
                 id="m241eb9d196"
                 style="stroke:#2b2b2b;stroke-width:0.5;" />
            </defs>
            <g
               id="g155">
              <use
                 style="fill:#2b2b2b;stroke:#2b2b2b;stroke-width:0.5;"
                 x="90.6"
                 xlink:href="#m241eb9d196"
                 y="388.8"
                 id="use157" />
            </g>
          </g>
        </g>
        <g
           id="xtick_7">
          <g
             id="line2d_26">
            <g
               id="g161">
              <use
                 style="fill:#2b2b2b;stroke:#2b2b2b;stroke-width:0.5;"
                 x="109.2"
                 xlink:href="#m241eb9d196"
                 y="388.8"
                 id="use163" />
            </g>
          </g>
        </g>
        <g
           id="xtick_8">
          <g
             id="line2d_27">
            <g
               id="g167">
              <use
                 style="fill:#2b2b2b;stroke:#2b2b2b;stroke-width:0.5;"
                 x="127.8"
                 xlink:href="#m241eb9d196"
                 y="388.8"
                 id="use169" />
            </g>
          </g>
        </g>
        <g
           id="xtick_9">
          <g
             id="line2d_28">
            <g
               id="g173">
              <use
                 style="fill:#2b2b2b;stroke:#2b2b2b;stroke-width:0.5;"
                 x="146.4"
                 xlink:href="#m241eb9d196"
                 y="388.8"
                 id="use175" />
            </g>
          </g>
        </g>
        <g
           id="xtick_10">
          <g
             id="line2d_29">
            <g
               id="g179">
              <use
                 style="fill:#2b2b2b;stroke:#2b2b2b;stroke-width:0.5;"
                 x="183.6"
                 xlink:href="#m241eb9d196"
                 y="388.8"
                 id="use181" />
            </g>
          </g>
        </g>
        <g
           id="xtick_11">
          <g
             id="line2d_30">
            <g
               id="g185">
              <use
                 style="fill:#2b2b2b;stroke:#2b2b2b;stroke-width:0.5;"
                 x="202.2"
                 xlink:href="#m241eb9d196"
                 y="388.8"
                 id="use187" />
            </g>
          </g>
        </g>
        <g
           id="xtick_12">
          <g
             id="line2d_31">
            <g
               id="g191">
              <use
                 style="fill:#2b2b2b;stroke:#2b2b2b;stroke-width:0.5;"
                 x="220.8"
                 xlink:href="#m241eb9d196"
                 y="388.8"
                 id="use193" />
            </g>
          </g>
        </g>
        <g
           id="xtick_13">
          <g
             id="line2d_32">
            <g
               id="g197">
              <use
                 style="fill:#2b2b2b;stroke:#2b2b2b;stroke-width:0.5;"
                 x="239.4"
                 xlink:href="#m241eb9d196"
                 y="388.8"
                 id="use199" />
            </g>
          </g>
        </g>
        <g
           id="xtick_14">
          <g
             id="line2d_33">
            <g
               id="g203">
              <use
                 style="fill:#2b2b2b;stroke:#2b2b2b;stroke-width:0.5;"
                 x="276.6"
                 xlink:href="#m241eb9d196"
                 y="388.8"
                 id="use205" />
            </g>
          </g>
        </g>
        <g
           id="xtick_15">
          <g
             id="line2d_34">
            <g
               id="g209">
              <use
                 style="fill:#2b2b2b;stroke:#2b2b2b;stroke-width:0.5;"
                 x="295.2"
                 xlink:href="#m241eb9d196"
                 y="388.8"
                 id="use211" />
            </g>
          </g>
        </g>
        <g
           id="xtick_16">
          <g
             id="line2d_35">
            <g
               id="g215">
              <use
                 style="fill:#2b2b2b;stroke:#2b2b2b;stroke-width:0.5;"
                 x="313.8"
                 xlink:href="#m241eb9d196"
                 y="388.8"
                 id="use217" />
            </g>
          </g>
        </g>
        <g
           id="xtick_17">
          <g
             id="line2d_36">
            <g
               id="g221">
              <use
                 style="fill:#2b2b2b;stroke:#2b2b2b;stroke-width:0.5;"
                 x="332.4"
                 xlink:href="#m241eb9d196"
                 y="388.8"
                 id="use223" />
            </g>
          </g>
        </g>
        <g
           id="xtick_18">
          <g
             id="line2d_37">
            <g
               id="g227">
              <use
                 style="fill:#2b2b2b;stroke:#2b2b2b;stroke-width:0.5;"
                 x="369.6"
                 xlink:href="#m241eb9d196"
                 y="388.8"
                 id="use229" />
            </g>
          </g>
        </g>
        <g
           id="xtick_19">
          <g
             id="line2d_38">
            <g
               id="g233">
              <use
                 style="fill:#2b2b2b;stroke:#2b2b2b;stroke-width:0.5;"
                 x="388.2"
                 xlink:href="#m241eb9d196"
                 y="388.8"
                 id="use235" />
            </g>
          </g>
        </g>
        <g
           id="xtick_20">
          <g
             id="line2d_39">
            <g
               id="g239">
              <use
                 style="fill:#2b2b2b;stroke:#2b2b2b;stroke-width:0.5;"
                 x="406.8"
                 xlink:href="#m241eb9d196"
                 y="388.8"
                 id="use241" />
            </g>
          </g>
        </g>
        <g
           id="xtick_21">
          <g
             id="line2d_40">
            <g
               id="g245">
              <use
                 style="fill:#2b2b2b;stroke:#2b2b2b;stroke-width:0.5;"
                 x="425.4"
                 xlink:href="#m241eb9d196"
                 y="388.8"
                 id="use247" />
            </g>
          </g>
        </g>
        <g
           id="xtick_22">
          <g
             id="line2d_41">
            <g
               id="g251">
              <use
                 style="fill:#2b2b2b;stroke:#2b2b2b;stroke-width:0.5;"
                 x="462.6"
                 xlink:href="#m241eb9d196"
                 y="388.8"
                 id="use253" />
            </g>
          </g>
        </g>
        <g
           id="xtick_23">
          <g
             id="line2d_42">
            <g
               id="g257">
              <use
                 style="fill:#2b2b2b;stroke:#2b2b2b;stroke-width:0.5;"
                 x="481.2"
                 xlink:href="#m241eb9d196"
                 y="388.8"
                 id="use259" />
            </g>
          </g>
        </g>
        <g
           id="xtick_24">
          <g
             id="line2d_43">
            <g
               id="g263">
              <use
                 style="fill:#2b2b2b;stroke:#2b2b2b;stroke-width:0.5;"
                 x="499.8"
                 xlink:href="#m241eb9d196"
                 y="388.8"
                 id="use265" />
            </g>
          </g>
        </g>
        <g
           id="text_6">
          <!-- ml -->
          <defs
             id="defs268">
            <path
               d=" M52 44.1875 Q55.375 50.25 60.0625 53.125 Q64.75 56 71.0938 56 Q79.6406 56 84.2812 50.0156 Q88.9219 44.0469 88.9219 33.0156 L88.9219 0 L79.8906 0 L79.8906 32.7188 Q79.8906 40.5781 77.0938 44.375 Q74.3125 48.1875 68.6094 48.1875 Q61.625 48.1875 57.5625 43.5469 Q53.5156 38.9219 53.5156 30.9062 L53.5156 0 L44.4844 0 L44.4844 32.7188 Q44.4844 40.625 41.7031 44.4062 Q38.9219 48.1875 33.1094 48.1875 Q26.2188 48.1875 22.1562 43.5312 Q18.1094 38.875 18.1094 30.9062 L18.1094 0 L9.07812 0 L9.07812 54.6875 L18.1094 54.6875 L18.1094 46.1875 Q21.1875 51.2188 25.4844 53.6094 Q29.7812 56 35.6875 56 Q41.6562 56 45.8281 52.9688 Q50 49.9531 52 44.1875"
               id="BitstreamVeraSans-Roman-6d" />
            <path
               d=" M9.42188 75.9844 L18.4062 75.9844 L18.4062 0 L9.42188 0 z "
               id="BitstreamVeraSans-Roman-6c" />
          </defs>
          <g
             transform="translate(288.7959375 422.531875)scale(0.12 -0.12)"
             id="g272">
            <use
               xlink:href="#BitstreamVeraSans-Roman-6d"
               id="use274" />
            <use
               x="97.412109375"
               xlink:href="#BitstreamVeraSans-Roman-6c"
               id="use276" />
          </g>
        </g>
      </g>
      <g
         id="matplotlib.axis_2">
        <g
           id="ytick_1">
          <g
             id="line2d_44">
            <defs
               id="defs281">
              <path
                 d=" M0 0 L-6 0"
                 id="mcdbef0770c"
                 style="stroke:#000000;stroke-width:0.5;" />
            </defs>
            <g
               id="g284">
              <use
                 style="stroke:#000000;stroke-width:0.5;"
                 x="72.0"
                 xlink:href="#mcdbef0770c"
                 y="372.225496468"
                 id="use286" />
            </g>
          </g>
          <g
             id="text_7">
            <!-- 0 -->
            <g
               transform="translate(57.953125 375.536746468)scale(0.12 -0.12)"
               id="g289">
              <use
                 xlink:href="#BitstreamVeraSans-Roman-30"
                 id="use291" />
            </g>
          </g>
        </g>
        <g
           id="ytick_2">
          <g
             id="line2d_45">
            <g
               id="g295">
              <use
                 style="stroke:#000000;stroke-width:0.5;"
                 x="72.0"
                 xlink:href="#mcdbef0770c"
                 y="330.827737553"
                 id="use297" />
            </g>
          </g>
          <g
             id="text_8">
            <!-- 50 -->
            <g
               transform="translate(50.453125 334.138987553)scale(0.12 -0.12)"
               id="g300">
              <use
                 xlink:href="#BitstreamVeraSans-Roman-35"
                 id="use302" />
              <use
                 x="63.623046875"
                 xlink:href="#BitstreamVeraSans-Roman-30"
                 id="use304" />
            </g>
          </g>
        </g>
        <g
           id="ytick_3">
          <g
             id="line2d_46">
            <g
               id="g308">
              <use
                 style="stroke:#000000;stroke-width:0.5;"
                 x="72.0"
                 xlink:href="#mcdbef0770c"
                 y="289.429978638"
                 id="use310" />
            </g>
          </g>
          <g
             id="text_9">
            <!-- 100 -->
            <g
               transform="translate(43.21 292.741228638)scale(0.12 -0.12)"
               id="g313">
              <use
                 xlink:href="#BitstreamVeraSans-Roman-31"
                 id="use315" />
              <use
                 x="63.623046875"
                 xlink:href="#BitstreamVeraSans-Roman-30"
                 id="use317" />
              <use
                 x="127.24609375"
                 xlink:href="#BitstreamVeraSans-Roman-30"
                 id="use319" />
            </g>
          </g>
        </g>
        <g
           id="ytick_4">
          <g
             id="line2d_47">
            <g
               id="g323">
              <use
                 style="stroke:#000000;stroke-width:0.5;"
                 x="72.0"
                 xlink:href="#mcdbef0770c"
                 y="248.032219722"
                 id="use325" />
            </g>
          </g>
          <g
             id="text_10">
            <!-- 150 -->
            <g
               transform="translate(43.21 251.343469722)scale(0.12 -0.12)"
               id="g328">
              <use
                 xlink:href="#BitstreamVeraSans-Roman-31"
                 id="use330" />
              <use
                 x="63.623046875"
                 xlink:href="#BitstreamVeraSans-Roman-35"
                 id="use332" />
              <use
                 x="127.24609375"
                 xlink:href="#BitstreamVeraSans-Roman-30"
                 id="use334" />
            </g>
          </g>
        </g>
        <g
           id="ytick_5">
          <g
             id="line2d_48">
            <g
               id="g338">
              <use
                 style="stroke:#000000;stroke-width:0.5;"
                 x="72.0"
                 xlink:href="#mcdbef0770c"
                 y="206.634460807"
                 id="use340" />
            </g>
          </g>
          <g
             id="text_11">
            <!-- 200 -->
            <g
               transform="translate(42.77125 209.945710807)scale(0.12 -0.12)"
               id="g343">
              <use
                 xlink:href="#BitstreamVeraSans-Roman-32"
                 id="use345" />
              <use
                 x="63.623046875"
                 xlink:href="#BitstreamVeraSans-Roman-30"
                 id="use347" />
              <use
                 x="127.24609375"
                 xlink:href="#BitstreamVeraSans-Roman-30"
                 id="use349" />
            </g>
          </g>
        </g>
        <g
           id="ytick_6">
          <g
             id="line2d_49">
            <g
               id="g353">
              <use
                 style="stroke:#000000;stroke-width:0.5;"
                 x="72.0"
                 xlink:href="#mcdbef0770c"
                 y="165.236701892"
                 id="use355" />
            </g>
          </g>
          <g
             id="text_12">
            <!-- 250 -->
            <g
               transform="translate(42.77125 168.547951892)scale(0.12 -0.12)"
               id="g358">
              <use
                 xlink:href="#BitstreamVeraSans-Roman-32"
                 id="use360" />
              <use
                 x="63.623046875"
                 xlink:href="#BitstreamVeraSans-Roman-35"
                 id="use362" />
              <use
                 x="127.24609375"
                 xlink:href="#BitstreamVeraSans-Roman-30"
                 id="use364" />
            </g>
          </g>
        </g>
        <g
           id="ytick_7">
          <g
             id="line2d_50">
            <g
               id="g368">
              <use
                 style="stroke:#000000;stroke-width:0.5;"
                 x="72.0"
                 xlink:href="#mcdbef0770c"
                 y="123.838942977"
                 id="use370" />
            </g>
          </g>
          <g
             id="text_13">
            <!-- 300 -->
            <defs
               id="defs373">
              <path
                 d=" M40.5781 39.3125 Q47.6562 37.7969 51.625 33 Q55.6094 28.2188 55.6094 21.1875 Q55.6094 10.4062 48.1875 4.48438 Q40.7656 -1.42188 27.0938 -1.42188 Q22.5156 -1.42188 17.6562 -0.515625 Q12.7969 0.390625 7.625 2.20312 L7.625 11.7188 Q11.7188 9.32812 16.5938 8.10938 Q21.4844 6.89062 26.8125 6.89062 Q36.0781 6.89062 40.9375 10.5469 Q45.7969 14.2031 45.7969 21.1875 Q45.7969 27.6406 41.2812 31.2656 Q36.7656 34.9062 28.7188 34.9062 L20.2188 34.9062 L20.2188 43.0156 L29.1094 43.0156 Q36.375 43.0156 40.2344 45.9219 Q44.0938 48.8281 44.0938 54.2969 Q44.0938 59.9062 40.1094 62.9062 Q36.1406 65.9219 28.7188 65.9219 Q24.6562 65.9219 20.0156 65.0312 Q15.375 64.1562 9.8125 62.3125 L9.8125 71.0938 Q15.4375 72.6562 20.3438 73.4375 Q25.25 74.2188 29.5938 74.2188 Q40.8281 74.2188 47.3594 69.1094 Q53.9062 64.0156 53.9062 55.3281 Q53.9062 49.2656 50.4375 45.0938 Q46.9688 40.9219 40.5781 39.3125"
                 id="BitstreamVeraSans-Roman-33" />
            </defs>
            <g
               transform="translate(42.806875 127.150192977)scale(0.12 -0.12)"
               id="g376">
              <use
                 xlink:href="#BitstreamVeraSans-Roman-33"
                 id="use378" />
              <use
                 x="63.623046875"
                 xlink:href="#BitstreamVeraSans-Roman-30"
                 id="use380" />
              <use
                 x="127.24609375"
                 xlink:href="#BitstreamVeraSans-Roman-30"
                 id="use382" />
            </g>
          </g>
        </g>
        <g
           id="ytick_8">
          <g
             id="line2d_51">
            <g
               id="g386">
              <use
                 style="stroke:#000000;stroke-width:0.5;"
                 x="72.0"
                 xlink:href="#mcdbef0770c"
                 y="82.4411840622"
                 id="use388" />
            </g>
          </g>
          <g
             id="text_14">
            <!-- 350 -->
            <g
               transform="translate(42.806875 85.7524340622)scale(0.12 -0.12)"
               id="g391">
              <use
                 xlink:href="#BitstreamVeraSans-Roman-33"
                 id="use393" />
              <use
                 x="63.623046875"
                 xlink:href="#BitstreamVeraSans-Roman-35"
                 id="use395" />
              <use
                 x="127.24609375"
                 xlink:href="#BitstreamVeraSans-Roman-30"
                 id="use397" />
            </g>
          </g>
        </g>
        <g
           id="ytick_9">
          <g
             id="line2d_52">
            <defs
               id="defs401">
              <path
                 d=" M0 0 L-4 0"
                 id="mb4bc592ff6"
                 style="stroke:#2b2b2b;stroke-width:0.5;" />
            </defs>
            <g
               id="g404">
              <use
                 style="fill:#2b2b2b;stroke:#2b2b2b;stroke-width:0.5;"
                 x="72.0"
                 xlink:href="#mb4bc592ff6"
                 y="388.784600034"
                 id="use406" />
            </g>
          </g>
        </g>
        <g
           id="ytick_10">
          <g
             id="line2d_53">
            <g
               id="g410">
              <use
                 style="fill:#2b2b2b;stroke:#2b2b2b;stroke-width:0.5;"
                 x="72.0"
                 xlink:href="#mb4bc592ff6"
                 y="380.505048251"
                 id="use412" />
            </g>
          </g>
        </g>
        <g
           id="ytick_11">
          <g
             id="line2d_54">
            <g
               id="g416">
              <use
                 style="fill:#2b2b2b;stroke:#2b2b2b;stroke-width:0.5;"
                 x="72.0"
                 xlink:href="#mb4bc592ff6"
                 y="363.945944685"
                 id="use418" />
            </g>
          </g>
        </g>
        <g
           id="ytick_12">
          <g
             id="line2d_55">
            <g
               id="g422">
              <use
                 style="fill:#2b2b2b;stroke:#2b2b2b;stroke-width:0.5;"
                 x="72.0"
                 xlink:href="#mb4bc592ff6"
                 y="355.666392902"
                 id="use424" />
            </g>
          </g>
        </g>
        <g
           id="ytick_13">
          <g
             id="line2d_56">
            <g
               id="g428">
              <use
                 style="fill:#2b2b2b;stroke:#2b2b2b;stroke-width:0.5;"
                 x="72.0"
                 xlink:href="#mb4bc592ff6"
                 y="347.386841119"
                 id="use430" />
            </g>
          </g>
        </g>
        <g
           id="ytick_14">
          <g
             id="line2d_57">
            <g
               id="g434">
              <use
                 style="fill:#2b2b2b;stroke:#2b2b2b;stroke-width:0.5;"
                 x="72.0"
                 xlink:href="#mb4bc592ff6"
                 y="339.107289336"
                 id="use436" />
            </g>
          </g>
        </g>
        <g
           id="ytick_15">
          <g
             id="line2d_58">
            <g
               id="g440">
              <use
                 style="fill:#2b2b2b;stroke:#2b2b2b;stroke-width:0.5;"
                 x="72.0"
                 xlink:href="#mb4bc592ff6"
                 y="322.54818577"
                 id="use442" />
            </g>
          </g>
        </g>
        <g
           id="ytick_16">
          <g
             id="line2d_59">
            <g
               id="g446">
              <use
                 style="fill:#2b2b2b;stroke:#2b2b2b;stroke-width:0.5;"
                 x="72.0"
                 xlink:href="#mb4bc592ff6"
                 y="314.268633987"
                 id="use448" />
            </g>
          </g>
        </g>
        <g
           id="ytick_17">
          <g
             id="line2d_60">
            <g
               id="g452">
              <use
                 style="fill:#2b2b2b;stroke:#2b2b2b;stroke-width:0.5;"
                 x="72.0"
                 xlink:href="#mb4bc592ff6"
                 y="305.989082204"
                 id="use454" />
            </g>
          </g>
        </g>
        <g
           id="ytick_18">
          <g
             id="line2d_61">
            <g
               id="g458">
              <use
                 style="fill:#2b2b2b;stroke:#2b2b2b;stroke-width:0.5;"
                 x="72.0"
                 xlink:href="#mb4bc592ff6"
                 y="297.709530421"
                 id="use460" />
            </g>
          </g>
        </g>
        <g
           id="ytick_19">
          <g
             id="line2d_62">
            <g
               id="g464">
              <use
                 style="fill:#2b2b2b;stroke:#2b2b2b;stroke-width:0.5;"
                 x="72.0"
                 xlink:href="#mb4bc592ff6"
                 y="281.150426854"
                 id="use466" />
            </g>
          </g>
        </g>
        <g
           id="ytick_20">
          <g
             id="line2d_63">
            <g
               id="g470">
              <use
                 style="fill:#2b2b2b;stroke:#2b2b2b;stroke-width:0.5;"
                 x="72.0"
                 xlink:href="#mb4bc592ff6"
                 y="272.870875071"
                 id="use472" />
            </g>
          </g>
        </g>
        <g
           id="ytick_21">
          <g
             id="line2d_64">
            <g
               id="g476">
              <use
                 style="fill:#2b2b2b;stroke:#2b2b2b;stroke-width:0.5;"
                 x="72.0"
                 xlink:href="#mb4bc592ff6"
                 y="264.591323288"
                 id="use478" />
            </g>
          </g>
        </g>
        <g
           id="ytick_22">
          <g
             id="line2d_65">
            <g
               id="g482">
              <use
                 style="fill:#2b2b2b;stroke:#2b2b2b;stroke-width:0.5;"
                 x="72.0"
                 xlink:href="#mb4bc592ff6"
                 y="256.311771505"
                 id="use484" />
            </g>
          </g>
        </g>
        <g
           id="ytick_23">
          <g
             id="line2d_66">
            <g
               id="g488">
              <use
                 style="fill:#2b2b2b;stroke:#2b2b2b;stroke-width:0.5;"
                 x="72.0"
                 xlink:href="#mb4bc592ff6"
                 y="239.752667939"
                 id="use490" />
            </g>
          </g>
        </g>
        <g
           id="ytick_24">
          <g
             id="line2d_67">
            <g
               id="g494">
              <use
                 style="fill:#2b2b2b;stroke:#2b2b2b;stroke-width:0.5;"
                 x="72.0"
                 xlink:href="#mb4bc592ff6"
                 y="231.473116156"
                 id="use496" />
            </g>
          </g>
        </g>
        <g
           id="ytick_25">
          <g
             id="line2d_68">
            <g
               id="g500">
              <use
                 style="fill:#2b2b2b;stroke:#2b2b2b;stroke-width:0.5;"
                 x="72.0"
                 xlink:href="#mb4bc592ff6"
                 y="223.193564373"
                 id="use502" />
            </g>
          </g>
        </g>
        <g
           id="ytick_26">
          <g
             id="line2d_69">
            <g
               id="g506">
              <use
                 style="fill:#2b2b2b;stroke:#2b2b2b;stroke-width:0.5;"
                 x="72.0"
                 xlink:href="#mb4bc592ff6"
                 y="214.91401259"
                 id="use508" />
            </g>
          </g>
        </g>
        <g
           id="ytick_27">
          <g
             id="line2d_70">
            <g
               id="g512">
              <use
                 style="fill:#2b2b2b;stroke:#2b2b2b;stroke-width:0.5;"
                 x="72.0"
                 xlink:href="#mb4bc592ff6"
                 y="198.354909024"
                 id="use514" />
            </g>
          </g>
        </g>
        <g
           id="ytick_28">
          <g
             id="line2d_71">
            <g
               id="g518">
              <use
                 style="fill:#2b2b2b;stroke:#2b2b2b;stroke-width:0.5;"
                 x="72.0"
                 xlink:href="#mb4bc592ff6"
                 y="190.075357241"
                 id="use520" />
            </g>
          </g>
        </g>
        <g
           id="ytick_29">
          <g
             id="line2d_72">
            <g
               id="g524">
              <use
                 style="fill:#2b2b2b;stroke:#2b2b2b;stroke-width:0.5;"
                 x="72.0"
                 xlink:href="#mb4bc592ff6"
                 y="181.795805458"
                 id="use526" />
            </g>
          </g>
        </g>
        <g
           id="ytick_30">
          <g
             id="line2d_73">
            <g
               id="g530">
              <use
                 style="fill:#2b2b2b;stroke:#2b2b2b;stroke-width:0.5;"
                 x="72.0"
                 xlink:href="#mb4bc592ff6"
                 y="173.516253675"
                 id="use532" />
            </g>
          </g>
        </g>
        <g
           id="ytick_31">
          <g
             id="line2d_74">
            <g
               id="g536">
              <use
                 style="fill:#2b2b2b;stroke:#2b2b2b;stroke-width:0.5;"
                 x="72.0"
                 xlink:href="#mb4bc592ff6"
                 y="156.957150109"
                 id="use538" />
            </g>
          </g>
        </g>
        <g
           id="ytick_32">
          <g
             id="line2d_75">
            <g
               id="g542">
              <use
                 style="fill:#2b2b2b;stroke:#2b2b2b;stroke-width:0.5;"
                 x="72.0"
                 xlink:href="#mb4bc592ff6"
                 y="148.677598326"
                 id="use544" />
            </g>
          </g>
        </g>
        <g
           id="ytick_33">
          <g
             id="line2d_76">
            <g
               id="g548">
              <use
                 style="fill:#2b2b2b;stroke:#2b2b2b;stroke-width:0.5;"
                 x="72.0"
                 xlink:href="#mb4bc592ff6"
                 y="140.398046543"
                 id="use550" />
            </g>
          </g>
        </g>
        <g
           id="ytick_34">
          <g
             id="line2d_77">
            <g
               id="g554">
              <use
                 style="fill:#2b2b2b;stroke:#2b2b2b;stroke-width:0.5;"
                 x="72.0"
                 xlink:href="#mb4bc592ff6"
                 y="132.11849476"
                 id="use556" />
            </g>
          </g>
        </g>
        <g
           id="ytick_35">
          <g
             id="line2d_78">
            <g
               id="g560">
              <use
                 style="fill:#2b2b2b;stroke:#2b2b2b;stroke-width:0.5;"
                 x="72.0"
                 xlink:href="#mb4bc592ff6"
                 y="115.559391194"
                 id="use562" />
            </g>
          </g>
        </g>
        <g
           id="ytick_36">
          <g
             id="line2d_79">
            <g
               id="g566">
              <use
                 style="fill:#2b2b2b;stroke:#2b2b2b;stroke-width:0.5;"
                 x="72.0"
                 xlink:href="#mb4bc592ff6"
                 y="107.279839411"
                 id="use568" />
            </g>
          </g>
        </g>
        <g
           id="ytick_37">
          <g
             id="line2d_80">
            <g
               id="g572">
              <use
                 style="fill:#2b2b2b;stroke:#2b2b2b;stroke-width:0.5;"
                 x="72.0"
                 xlink:href="#mb4bc592ff6"
                 y="99.0002876282"
                 id="use574" />
            </g>
          </g>
        </g>
        <g
           id="ytick_38">
          <g
             id="line2d_81">
            <g
               id="g578">
              <use
                 style="fill:#2b2b2b;stroke:#2b2b2b;stroke-width:0.5;"
                 x="72.0"
                 xlink:href="#mb4bc592ff6"
                 y="90.7207358452"
                 id="use580" />
            </g>
          </g>
        </g>
        <g
           id="ytick_39">
          <g
             id="line2d_82">
            <g
               id="g584">
              <use
                 style="fill:#2b2b2b;stroke:#2b2b2b;stroke-width:0.5;"
                 x="72.0"
                 xlink:href="#mb4bc592ff6"
                 y="74.1616322791"
                 id="use586" />
            </g>
          </g>
        </g>
        <g
           id="ytick_40">
          <g
             id="line2d_83">
            <g
               id="g590">
              <use
                 style="fill:#2b2b2b;stroke:#2b2b2b;stroke-width:0.5;"
                 x="72.0"
                 xlink:href="#mb4bc592ff6"
                 y="65.8820804961"
                 id="use592" />
            </g>
          </g>
        </g>
        <g
           id="ytick_41">
          <g
             id="line2d_84">
            <g
               id="g596">
              <use
                 style="fill:#2b2b2b;stroke:#2b2b2b;stroke-width:0.5;"
                 x="72.0"
                 xlink:href="#mb4bc592ff6"
                 y="57.6025287131"
                 id="use598" />
            </g>
          </g>
        </g>
        <g
           id="text_15">
          <!-- mAU -->
          <defs
             id="defs601">
            <path
               d=" M8.6875 72.9062 L18.6094 72.9062 L18.6094 28.6094 Q18.6094 16.8906 22.8438 11.7344 Q27.0938 6.59375 36.625 6.59375 Q46.0938 6.59375 50.3438 11.7344 Q54.5938 16.8906 54.5938 28.6094 L54.5938 72.9062 L64.5 72.9062 L64.5 27.3906 Q64.5 13.1406 57.4375 5.85938 Q50.3906 -1.42188 36.625 -1.42188 Q22.7969 -1.42188 15.7344 5.85938 Q8.6875 13.1406 8.6875 27.3906 z "
               id="BitstreamVeraSans-Roman-55" />
            <path
               d=" M34.1875 63.1875 L20.7969 26.9062 L47.6094 26.9062 z  M28.6094 72.9062 L39.7969 72.9062 L67.5781 0 L57.3281 0 L50.6875 18.7031 L17.8281 18.7031 L11.1875 0 L0.78125 0 z "
               id="BitstreamVeraSans-Roman-41" />
          </defs>
          <g
             transform="translate(35.275625 229.2740625)rotate(-90.0)scale(0.12 -0.12)"
             id="g605">
            <use
               xlink:href="#BitstreamVeraSans-Roman-6d"
               id="use607" />
            <use
               x="97.412109375"
               xlink:href="#BitstreamVeraSans-Roman-41"
               id="use609" />
            <use
               x="165.8203125"
               xlink:href="#BitstreamVeraSans-Roman-55"
               id="use611" />
          </g>
        </g>
      </g>
      <g
         id="patch_3">
        <path
           d=" M72 43.2 L518.4 43.2"
           style="fill:none;"
           id="path614" />
      </g>
      <g
         id="patch_4">
        <path
           d=" M518.4 388.8 L518.4 43.2"
           style="fill:none;"
           id="path617" />
      </g>
      <g
         id="patch_5">
        <path
           d=" M72 388.8 L518.4 388.8"
           style="fill:none;stroke:#000000;"
           id="path620" />
      </g>
      <g
         id="patch_6">
        <path
           d=" M72 388.8 L72 43.2"
           style="fill:none;stroke:#000000;"
           id="path623" />
      </g>
      <g
         id="text_16">
        <!-- 1 -->
        <g
           transform="translate(219.1015 383.616)rotate(-90.0)scale(0.08 -0.08)"
           id="g626">
          <use
             xlink:href="#BitstreamVeraSans-Roman-31"
             id="use628" />
        </g>
      </g>
      <g
         id="text_17">
        <!-- 2 -->
        <g
           transform="translate(228.4015 383.616)rotate(-90.0)scale(0.08 -0.08)"
           id="g631">
          <use
             xlink:href="#BitstreamVeraSans-Roman-32"
             id="use633" />
        </g>
      </g>
      <g
         id="text_18">
        <!-- 3 -->
        <g
           transform="translate(237.7015 383.616)rotate(-90.0)scale(0.08 -0.08)"
           id="g636">
          <use
             xlink:href="#BitstreamVeraSans-Roman-33"
             id="use638" />
        </g>
      </g>
      <g
         id="text_19">
        <!-- 4 -->
        <defs
           id="defs641">
          <path
             d=" M37.7969 64.3125 L12.8906 25.3906 L37.7969 25.3906 z  M35.2031 72.9062 L47.6094 72.9062 L47.6094 25.3906 L58.0156 25.3906 L58.0156 17.1875 L47.6094 17.1875 L47.6094 0 L37.7969 0 L37.7969 17.1875 L4.89062 17.1875 L4.89062 26.7031 z "
             id="BitstreamVeraSans-Roman-34" />
        </defs>
        <g
           transform="translate(247.0015 383.616)rotate(-90.0)scale(0.08 -0.08)"
           id="g644">
          <use
             xlink:href="#BitstreamVeraSans-Roman-34"
             id="use646" />
        </g>
      </g>
      <g
         id="text_20">
        <!-- 5 -->
        <g
           transform="translate(256.3015 383.616)rotate(-90.0)scale(0.08 -0.08)"
           id="g649">
          <use
             xlink:href="#BitstreamVeraSans-Roman-35"
             id="use651" />
        </g>
      </g>
      <g
         id="text_21">
        <!-- 6 -->
        <defs
           id="defs654">
          <path
             d=" M33.0156 40.375 Q26.375 40.375 22.4844 35.8281 Q18.6094 31.2969 18.6094 23.3906 Q18.6094 15.5312 22.4844 10.9531 Q26.375 6.39062 33.0156 6.39062 Q39.6562 6.39062 43.5312 10.9531 Q47.4062 15.5312 47.4062 23.3906 Q47.4062 31.2969 43.5312 35.8281 Q39.6562 40.375 33.0156 40.375 M52.5938 71.2969 L52.5938 62.3125 Q48.875 64.0625 45.0938 64.9844 Q41.3125 65.9219 37.5938 65.9219 Q27.8281 65.9219 22.6719 59.3281 Q17.5312 52.7344 16.7969 39.4062 Q19.6719 43.6562 24.0156 45.9219 Q28.375 48.1875 33.5938 48.1875 Q44.5781 48.1875 50.9531 41.5156 Q57.3281 34.8594 57.3281 23.3906 Q57.3281 12.1562 50.6875 5.35938 Q44.0469 -1.42188 33.0156 -1.42188 Q20.3594 -1.42188 13.6719 8.26562 Q6.98438 17.9688 6.98438 36.375 Q6.98438 53.6562 15.1875 63.9375 Q23.3906 74.2188 37.2031 74.2188 Q40.9219 74.2188 44.7031 73.4844 Q48.4844 72.75 52.5938 71.2969"
             id="BitstreamVeraSans-Roman-36" />
        </defs>
        <g
           transform="translate(265.6015 383.616)rotate(-90.0)scale(0.08 -0.08)"
           id="g657">
          <use
             xlink:href="#BitstreamVeraSans-Roman-36"
             id="use659" />
        </g>
      </g>
      <g
         id="text_22">
        <!-- 7 -->
        <defs
           id="defs662">
          <path
             d=" M8.20312 72.9062 L55.0781 72.9062 L55.0781 68.7031 L28.6094 0 L18.3125 0 L43.2188 64.5938 L8.20312 64.5938 z "
             id="BitstreamVeraSans-Roman-37" />
        </defs>
        <g
           transform="translate(274.9015 383.616)rotate(-90.0)scale(0.08 -0.08)"
           id="g665">
          <use
             xlink:href="#BitstreamVeraSans-Roman-37"
             id="use667" />
        </g>
      </g>
      <g
         id="text_23">
        <!-- 8 -->
        <defs
           id="defs670">
          <path
             d=" M31.7812 34.625 Q24.75 34.625 20.7188 30.8594 Q16.7031 27.0938 16.7031 20.5156 Q16.7031 13.9219 20.7188 10.1562 Q24.75 6.39062 31.7812 6.39062 Q38.8125 6.39062 42.8594 10.1719 Q46.9219 13.9688 46.9219 20.5156 Q46.9219 27.0938 42.8906 30.8594 Q38.875 34.625 31.7812 34.625 M21.9219 38.8125 Q15.5781 40.375 12.0312 44.7188 Q8.5 49.0781 8.5 55.3281 Q8.5 64.0625 14.7188 69.1406 Q20.9531 74.2188 31.7812 74.2188 Q42.6719 74.2188 48.875 69.1406 Q55.0781 64.0625 55.0781 55.3281 Q55.0781 49.0781 51.5312 44.7188 Q48 40.375 41.7031 38.8125 Q48.8281 37.1562 52.7969 32.3125 Q56.7812 27.4844 56.7812 20.5156 Q56.7812 9.90625 50.3125 4.23438 Q43.8438 -1.42188 31.7812 -1.42188 Q19.7344 -1.42188 13.25 4.23438 Q6.78125 9.90625 6.78125 20.5156 Q6.78125 27.4844 10.7812 32.3125 Q14.7969 37.1562 21.9219 38.8125 M18.3125 54.3906 Q18.3125 48.7344 21.8438 45.5625 Q25.3906 42.3906 31.7812 42.3906 Q38.1406 42.3906 41.7188 45.5625 Q45.3125 48.7344 45.3125 54.3906 Q45.3125 60.0625 41.7188 63.2344 Q38.1406 66.4062 31.7812 66.4062 Q25.3906 66.4062 21.8438 63.2344 Q18.3125 60.0625 18.3125 54.3906"
             id="BitstreamVeraSans-Roman-38" />
        </defs>
        <g
           transform="translate(284.2015 383.616)rotate(-90.0)scale(0.08 -0.08)"
           id="g673">
          <use
             xlink:href="#BitstreamVeraSans-Roman-38"
             id="use675" />
        </g>
      </g>
      <g
         id="text_24">
        <!-- 9 -->
        <defs
           id="defs678">
          <path
             d=" M10.9844 1.51562 L10.9844 10.5 Q14.7031 8.73438 18.5 7.8125 Q22.3125 6.89062 25.9844 6.89062 Q35.75 6.89062 40.8906 13.4531 Q46.0469 20.0156 46.7812 33.4062 Q43.9531 29.2031 39.5938 26.9531 Q35.25 24.7031 29.9844 24.7031 Q19.0469 24.7031 12.6719 31.3125 Q6.29688 37.9375 6.29688 49.4219 Q6.29688 60.6406 12.9375 67.4219 Q19.5781 74.2188 30.6094 74.2188 Q43.2656 74.2188 49.9219 64.5156 Q56.5938 54.8281 56.5938 36.375 Q56.5938 19.1406 48.4062 8.85938 Q40.2344 -1.42188 26.4219 -1.42188 Q22.7031 -1.42188 18.8906 -0.6875 Q15.0938 0.046875 10.9844 1.51562 M30.6094 32.4219 Q37.25 32.4219 41.125 36.9531 Q45.0156 41.5 45.0156 49.4219 Q45.0156 57.2812 41.125 61.8438 Q37.25 66.4062 30.6094 66.4062 Q23.9688 66.4062 20.0938 61.8438 Q16.2188 57.2812 16.2188 49.4219 Q16.2188 41.5 20.0938 36.9531 Q23.9688 32.4219 30.6094 32.4219"
             id="BitstreamVeraSans-Roman-39" />
        </defs>
        <g
           transform="translate(293.5015 383.616)rotate(-90.0)scale(0.08 -0.08)"
           id="g681">
          <use
             xlink:href="#BitstreamVeraSans-Roman-39"
             id="use683" />
        </g>
      </g>
      <g
         id="text_25">
        <!-- 10 -->
        <g
           transform="translate(302.8015 383.616)rotate(-90.0)scale(0.08 -0.08)"
           id="g686">
          <use
             xlink:href="#BitstreamVeraSans-Roman-31"
             id="use688" />
          <use
             x="63.623046875"
             xlink:href="#BitstreamVeraSans-Roman-30"
             id="use690" />
        </g>
      </g>
      <g
         id="text_26">
        <!-- 11 -->
        <g
           transform="translate(312.1015 383.616)rotate(-90.0)scale(0.08 -0.08)"
           id="g693">
          <use
             xlink:href="#BitstreamVeraSans-Roman-31"
             id="use695" />
          <use
             x="63.623046875"
             xlink:href="#BitstreamVeraSans-Roman-31"
             id="use697" />
        </g>
      </g>
      <g
         id="text_27">
        <!-- 12 -->
        <g
           transform="translate(321.3085 383.616)rotate(-90.0)scale(0.08 -0.08)"
           id="g700">
          <use
             xlink:href="#BitstreamVeraSans-Roman-31"
             id="use702" />
          <use
             x="63.623046875"
             xlink:href="#BitstreamVeraSans-Roman-32"
             id="use704" />
        </g>
      </g>
      <g
         id="text_28">
        <!-- 13 -->
        <g
           transform="translate(330.5155 383.616)rotate(-90.0)scale(0.08 -0.08)"
           id="g707">
          <use
             xlink:href="#BitstreamVeraSans-Roman-31"
             id="use709" />
          <use
             x="63.623046875"
             xlink:href="#BitstreamVeraSans-Roman-33"
             id="use711" />
        </g>
      </g>
      <g
         id="text_29">
        <!-- 14 -->
        <g
           transform="translate(339.8155 383.616)rotate(-90.0)scale(0.08 -0.08)"
           id="g714">
          <use
             xlink:href="#BitstreamVeraSans-Roman-31"
             id="use716" />
          <use
             x="63.623046875"
             xlink:href="#BitstreamVeraSans-Roman-34"
             id="use718" />
        </g>
      </g>
      <g
         id="text_30">
        <!-- 15 -->
        <g
           transform="translate(349.1155 383.616)rotate(-90.0)scale(0.08 -0.08)"
           id="g721">
          <use
             xlink:href="#BitstreamVeraSans-Roman-31"
             id="use723" />
          <use
             x="63.623046875"
             xlink:href="#BitstreamVeraSans-Roman-35"
             id="use725" />
        </g>
      </g>
      <g
         id="text_31">
        <!-- 16 -->
        <g
           transform="translate(358.4155 383.616)rotate(-90.0)scale(0.08 -0.08)"
           id="g728">
          <use
             xlink:href="#BitstreamVeraSans-Roman-31"
             id="use730" />
          <use
             x="63.623046875"
             xlink:href="#BitstreamVeraSans-Roman-36"
             id="use732" />
        </g>
      </g>
      <g
         id="text_32">
        <!-- 17 -->
        <g
           transform="translate(363.9955 383.616)rotate(-90.0)scale(0.08 -0.08)"
           id="g735">
          <use
             xlink:href="#BitstreamVeraSans-Roman-31"
             id="use737" />
          <use
             x="63.623046875"
             xlink:href="#BitstreamVeraSans-Roman-37"
             id="use739" />
        </g>
      </g>
      <g
         id="text_33">
        <!-- Waste -->
        <defs
           id="defs742">
          <path
             d=" M56.2031 29.5938 L56.2031 25.2031 L14.8906 25.2031 Q15.4844 15.9219 20.4844 11.0625 Q25.4844 6.20312 34.4219 6.20312 Q39.5938 6.20312 44.4531 7.46875 Q49.3125 8.73438 54.1094 11.2812 L54.1094 2.78125 Q49.2656 0.734375 44.1875 -0.34375 Q39.1094 -1.42188 33.8906 -1.42188 Q20.7969 -1.42188 13.1562 6.1875 Q5.51562 13.8125 5.51562 26.8125 Q5.51562 40.2344 12.7656 48.1094 Q20.0156 56 32.3281 56 Q43.3594 56 49.7812 48.8906 Q56.2031 41.7969 56.2031 29.5938 M47.2188 32.2344 Q47.125 39.5938 43.0938 43.9844 Q39.0625 48.3906 32.4219 48.3906 Q24.9062 48.3906 20.3906 44.1406 Q15.875 39.8906 15.1875 32.1719 z "
             id="BitstreamVeraSans-Roman-65" />
          <path
             d=" M18.3125 70.2188 L18.3125 54.6875 L36.8125 54.6875 L36.8125 47.7031 L18.3125 47.7031 L18.3125 18.0156 Q18.3125 11.3281 20.1406 9.42188 Q21.9688 7.51562 27.5938 7.51562 L36.8125 7.51562 L36.8125 0 L27.5938 0 Q17.1875 0 13.2344 3.875 Q9.28125 7.76562 9.28125 18.0156 L9.28125 47.7031 L2.6875 47.7031 L2.6875 54.6875 L9.28125 54.6875 L9.28125 70.2188 z "
             id="BitstreamVeraSans-Roman-74" />
          <path
             d=" M34.2812 27.4844 Q23.3906 27.4844 19.1875 25 Q14.9844 22.5156 14.9844 16.5 Q14.9844 11.7188 18.1406 8.90625 Q21.2969 6.10938 26.7031 6.10938 Q34.1875 6.10938 38.7031 11.4062 Q43.2188 16.7031 43.2188 25.4844 L43.2188 27.4844 z  M52.2031 31.2031 L52.2031 0 L43.2188 0 L43.2188 8.29688 Q40.1406 3.32812 35.5469 0.953125 Q30.9531 -1.42188 24.3125 -1.42188 Q15.9219 -1.42188 10.9531 3.29688 Q6 8.01562 6 15.9219 Q6 25.1406 12.1719 29.8281 Q18.3594 34.5156 30.6094 34.5156 L43.2188 34.5156 L43.2188 35.4062 Q43.2188 41.6094 39.1406 45 Q35.0625 48.3906 27.6875 48.3906 Q23 48.3906 18.5469 47.2656 Q14.1094 46.1406 10.0156 43.8906 L10.0156 52.2031 Q14.9375 54.1094 19.5781 55.0469 Q24.2188 56 28.6094 56 Q40.4844 56 46.3438 49.8438 Q52.2031 43.7031 52.2031 31.2031"
             id="BitstreamVeraSans-Roman-61" />
          <path
             d=" M44.2812 53.0781 L44.2812 44.5781 Q40.4844 46.5312 36.375 47.5 Q32.2812 48.4844 27.875 48.4844 Q21.1875 48.4844 17.8438 46.4375 Q14.5 44.3906 14.5 40.2812 Q14.5 37.1562 16.8906 35.375 Q19.2812 33.5938 26.5156 31.9844 L29.5938 31.2969 Q39.1562 29.25 43.1875 25.5156 Q47.2188 21.7812 47.2188 15.0938 Q47.2188 7.46875 41.1875 3.01562 Q35.1562 -1.42188 24.6094 -1.42188 Q20.2188 -1.42188 15.4531 -0.5625 Q10.6875 0.296875 5.42188 2 L5.42188 11.2812 Q10.4062 8.6875 15.2344 7.39062 Q20.0625 6.10938 24.8125 6.10938 Q31.1562 6.10938 34.5625 8.28125 Q37.9844 10.4531 37.9844 14.4062 Q37.9844 18.0625 35.5156 20.0156 Q33.0625 21.9688 24.7031 23.7812 L21.5781 24.5156 Q13.2344 26.2656 9.51562 29.9062 Q5.8125 33.5469 5.8125 39.8906 Q5.8125 47.6094 11.2812 51.7969 Q16.75 56 26.8125 56 Q31.7812 56 36.1719 55.2656 Q40.5781 54.5469 44.2812 53.0781"
             id="BitstreamVeraSans-Roman-73" />
          <path
             d=" M3.32812 72.9062 L13.2812 72.9062 L28.6094 11.2812 L43.8906 72.9062 L54.9844 72.9062 L70.3125 11.2812 L85.5938 72.9062 L95.6094 72.9062 L77.2969 0 L64.8906 0 L49.5156 63.2812 L33.9844 0 L21.5781 0 z "
             id="BitstreamVeraSans-Roman-57" />
        </defs>
        <g
           transform="translate(365.8555 383.616)rotate(-90.0)scale(0.08 -0.08)"
           id="g749">
          <use
             xlink:href="#BitstreamVeraSans-Roman-57"
             id="use751" />
          <use
             x="92.501953125"
             xlink:href="#BitstreamVeraSans-Roman-61"
             id="use753" />
          <use
             x="153.78125"
             xlink:href="#BitstreamVeraSans-Roman-73"
             id="use755" />
          <use
             x="205.880859375"
             xlink:href="#BitstreamVeraSans-Roman-74"
             id="use757" />
          <use
             x="245.08984375"
             xlink:href="#BitstreamVeraSans-Roman-65"
             id="use759" />
        </g>
      </g>
      <g
         id="text_34">
        <!-- ARAGA-Sup200.res -->
        <defs
           id="defs762">
          <path
             d=" M59.5156 10.4062 L59.5156 29.9844 L43.4062 29.9844 L43.4062 38.0938 L69.2812 38.0938 L69.2812 6.78125 Q63.5781 2.73438 56.6875 0.65625 Q49.8125 -1.42188 42 -1.42188 Q24.9062 -1.42188 15.25 8.5625 Q5.60938 18.5625 5.60938 36.375 Q5.60938 54.25 15.25 64.2344 Q24.9062 74.2188 42 74.2188 Q49.125 74.2188 55.5469 72.4531 Q61.9688 70.7031 67.3906 67.2812 L67.3906 56.7812 Q61.9219 61.4219 55.7656 63.7656 Q49.6094 66.1094 42.8281 66.1094 Q29.4375 66.1094 22.7188 58.6406 Q16.0156 51.1719 16.0156 36.375 Q16.0156 21.625 22.7188 14.1562 Q29.4375 6.6875 42.8281 6.6875 Q48.0469 6.6875 52.1406 7.59375 Q56.25 8.5 59.5156 10.4062"
             id="BitstreamVeraSans-Roman-47" />
          <path
             d=" M44.3906 34.1875 Q47.5625 33.1094 50.5625 29.5938 Q53.5625 26.0781 56.5938 19.9219 L66.6094 0 L56 0 L46.6875 18.7031 Q43.0625 26.0312 39.6719 28.4219 Q36.2812 30.8125 30.4219 30.8125 L19.6719 30.8125 L19.6719 0 L9.8125 0 L9.8125 72.9062 L32.0781 72.9062 Q44.5781 72.9062 50.7344 67.6719 Q56.8906 62.4531 56.8906 51.9062 Q56.8906 45.0156 53.6875 40.4688 Q50.4844 35.9375 44.3906 34.1875 M19.6719 64.7969 L19.6719 38.9219 L32.0781 38.9219 Q39.2031 38.9219 42.8438 42.2188 Q46.4844 45.5156 46.4844 51.9062 Q46.4844 58.2969 42.8438 61.5469 Q39.2031 64.7969 32.0781 64.7969 z "
             id="BitstreamVeraSans-Roman-52" />
          <path
             d=" M53.5156 70.5156 L53.5156 60.8906 Q47.9062 63.5781 42.9219 64.8906 Q37.9375 66.2188 33.2969 66.2188 Q25.25 66.2188 20.875 63.0938 Q16.5 59.9688 16.5 54.2031 Q16.5 49.3594 19.4062 46.8906 Q22.3125 44.4375 30.4219 42.9219 L36.375 41.7031 Q47.4062 39.5938 52.6562 34.2969 Q57.9062 29 57.9062 20.125 Q57.9062 9.51562 50.7969 4.04688 Q43.7031 -1.42188 29.9844 -1.42188 Q24.8125 -1.42188 18.9688 -0.25 Q13.1406 0.921875 6.89062 3.21875 L6.89062 13.375 Q12.8906 10.0156 18.6562 8.29688 Q24.4219 6.59375 29.9844 6.59375 Q38.4219 6.59375 43.0156 9.90625 Q47.6094 13.2344 47.6094 19.3906 Q47.6094 24.75 44.3125 27.7812 Q41.0156 30.8125 33.5 32.3281 L27.4844 33.5 Q16.4531 35.6875 11.5156 40.375 Q6.59375 45.0625 6.59375 53.4219 Q6.59375 63.0938 13.4062 68.6562 Q20.2188 74.2188 32.1719 74.2188 Q37.3125 74.2188 42.625 73.2812 Q47.9531 72.3594 53.5156 70.5156"
             id="BitstreamVeraSans-Roman-53" />
          <path
             d=" M4.89062 31.3906 L31.2031 31.3906 L31.2031 23.3906 L4.89062 23.3906 z "
             id="BitstreamVeraSans-Roman-2d" />
          <path
             d=" M8.5 21.5781 L8.5 54.6875 L17.4844 54.6875 L17.4844 21.9219 Q17.4844 14.1562 20.5 10.2656 Q23.5312 6.39062 29.5938 6.39062 Q36.8594 6.39062 41.0781 11.0312 Q45.3125 15.6719 45.3125 23.6875 L45.3125 54.6875 L54.2969 54.6875 L54.2969 0 L45.3125 0 L45.3125 8.40625 Q42.0469 3.42188 37.7188 1 Q33.4062 -1.42188 27.6875 -1.42188 Q18.2656 -1.42188 13.375 4.4375 Q8.5 10.2969 8.5 21.5781"
             id="BitstreamVeraSans-Roman-75" />
          <path
             d=" M18.1094 8.20312 L18.1094 -20.7969 L9.07812 -20.7969 L9.07812 54.6875 L18.1094 54.6875 L18.1094 46.3906 Q20.9531 51.2656 25.2656 53.625 Q29.5938 56 35.5938 56 Q45.5625 56 51.7812 48.0938 Q58.0156 40.1875 58.0156 27.2969 Q58.0156 14.4062 51.7812 6.48438 Q45.5625 -1.42188 35.5938 -1.42188 Q29.5938 -1.42188 25.2656 0.953125 Q20.9531 3.32812 18.1094 8.20312 M48.6875 27.2969 Q48.6875 37.2031 44.6094 42.8438 Q40.5312 48.4844 33.4062 48.4844 Q26.2656 48.4844 22.1875 42.8438 Q18.1094 37.2031 18.1094 27.2969 Q18.1094 17.3906 22.1875 11.75 Q26.2656 6.10938 33.4062 6.10938 Q40.5312 6.10938 44.6094 11.75 Q48.6875 17.3906 48.6875 27.2969"
             id="BitstreamVeraSans-Roman-70" />
        </defs>
        <g
           transform="translate(238.794375 24.762625)scale(0.12 -0.12)"
           id="g772">
          <use
             xlink:href="#BitstreamVeraSans-Roman-41"
             id="use774" />
          <use
             x="68.408203125"
             xlink:href="#BitstreamVeraSans-Roman-52"
             id="use776" />
          <use
             x="133.890625"
             xlink:href="#BitstreamVeraSans-Roman-41"
             id="use778" />
          <use
             x="200.548828125"
             xlink:href="#BitstreamVeraSans-Roman-47"
             id="use780" />
          <use
             x="278.0390625"
             xlink:href="#BitstreamVeraSans-Roman-41"
             id="use782" />
          <use
             x="344.197265625"
             xlink:href="#BitstreamVeraSans-Roman-2d"
             id="use784" />
          <use
             x="380.28125"
             xlink:href="#BitstreamVeraSans-Roman-53"
             id="use786" />
          <use
             x="443.7578125"
             xlink:href="#BitstreamVeraSans-Roman-75"
             id="use788" />
          <use
             x="507.13671875"
             xlink:href="#BitstreamVeraSans-Roman-70"
             id="use790" />
          <use
             x="570.61328125"
             xlink:href="#BitstreamVeraSans-Roman-32"
             id="use792" />
          <use
             x="634.236328125"
             xlink:href="#BitstreamVeraSans-Roman-30"
             id="use794" />
          <use
             x="697.859375"
             xlink:href="#BitstreamVeraSans-Roman-30"
             id="use796" />
        </g>
        <!-- Manual run 8 -->
        <defs
           id="defs806">
          <path
             id="BitstreamVeraSans-Roman-20" />
        </defs>
        <g
           transform="translate(256.1053125 38.2)scale(0.12 -0.12)"
           id="g811">
          <use
             x="363.37890625"
             xlink:href="#BitstreamVeraSans-Roman-20"
             id="use825" />
          <use
             x="563.037109375"
             xlink:href="#BitstreamVeraSans-Roman-20"
             id="use833" />
        </g>
      </g>
    </g>
  </g>
  <defs
     id="defs837">
    <clipPath
       id="p7ff5b81e1d">
      <rect
         height="345.6"
         width="446.4"
         x="72.0"
         y="43.2"
         id="rect840" />
    </clipPath>
  </defs>
</svg>
